<?xml version="1.0" encoding="utf-8" standalone="no"?>
<!DOCTYPE svg PUBLIC "-//W3C//DTD SVG 1.1//EN"
  "http://www.w3.org/Graphics/SVG/1.1/DTD/svg11.dtd">
<svg xmlns:xlink="http://www.w3.org/1999/xlink" width="954.320391pt" height="549.628687pt" viewBox="0 0 954.320391 549.628687" xmlns="http://www.w3.org/2000/svg" version="1.1">
 <metadata>
  <rdf:RDF xmlns:dc="http://purl.org/dc/elements/1.1/" xmlns:cc="http://creativecommons.org/ns#" xmlns:rdf="http://www.w3.org/1999/02/22-rdf-syntax-ns#">
   <cc:Work>
    <dc:type rdf:resource="http://purl.org/dc/dcmitype/StillImage"/>
    <dc:date>2025-12-04T11:03:47.245587</dc:date>
    <dc:format>image/svg+xml</dc:format>
    <dc:creator>
     <cc:Agent>
      <dc:title>Matplotlib v3.10.7, https://matplotlib.org/</dc:title>
     </cc:Agent>
    </dc:creator>
   </cc:Work>
  </rdf:RDF>
 </metadata>
 <defs>
  <style type="text/css">*{stroke-linejoin: round; stroke-linecap: butt}</style>
 </defs>
 <g id="figure_1">
  <g id="patch_1">
   <path d="M 0 549.628687 
L 954.320391 549.628687 
L 954.320391 0 
L 0 0 
z
" style="fill: #ffffff"/>
  </g>
  <g id="axes_1">
   <g id="patch_2">
    <path d="M 88.053516 490.311187 
L 404.602959 490.311187 
L 404.602959 26.303437 
L 88.053516 26.303437 
z
" style="fill: #ffffff"/>
   </g>
   <g id="matplotlib.axis_1">
    <g id="xtick_1">
     <g id="line2d_1">
      <path d="M 147.538301 490.311187 
L 147.538301 26.303437 
" clip-path="url(#p5463c8e54c)" style="fill: none; stroke: #cccccc; stroke-opacity: 0.3; stroke-linecap: round"/>
     </g>
     <g id="text_1">
      <!-- $\mathdefault{\frac{1}{2}}$ -->
      <g style="fill: #262626" transform="translate(143.248301 516.146187) scale(0.165 -0.165)">
       <defs>
        <path id="ArialMT-31" d="M 2384 0 
L 1822 0 
L 1822 3584 
Q 1619 3391 1289 3197 
Q 959 3003 697 2906 
L 697 3450 
Q 1169 3672 1522 3987 
Q 1875 4303 2022 4600 
L 2384 4600 
L 2384 0 
z
" transform="scale(0.015625)"/>
        <path id="ArialMT-32" d="M 3222 541 
L 3222 0 
L 194 0 
Q 188 203 259 391 
Q 375 700 629 1000 
Q 884 1300 1366 1694 
Q 2113 2306 2375 2664 
Q 2638 3022 2638 3341 
Q 2638 3675 2398 3904 
Q 2159 4134 1775 4134 
Q 1369 4134 1125 3890 
Q 881 3647 878 3216 
L 300 3275 
Q 359 3922 746 4261 
Q 1134 4600 1788 4600 
Q 2447 4600 2831 4234 
Q 3216 3869 3216 3328 
Q 3216 3053 3103 2787 
Q 2991 2522 2730 2228 
Q 2469 1934 1863 1422 
Q 1356 997 1212 845 
Q 1069 694 975 541 
L 3222 541 
z
" transform="scale(0.015625)"/>
       </defs>
       <use xlink:href="#ArialMT-31" transform="translate(0 48.6875) scale(0.7)"/>
       <use xlink:href="#ArialMT-32" transform="translate(0 -32.875) scale(0.7)"/>
       <path d="M 0 23.6875 
L 0 29.9375 
L 38.930664 29.9375 
L 38.930664 23.6875 
L 0 23.6875 
z
"/>
      </g>
     </g>
    </g>
    <g id="xtick_2">
     <g id="line2d_2">
      <path d="M 213.216612 490.311187 
L 213.216612 26.303437 
" clip-path="url(#p5463c8e54c)" style="fill: none; stroke: #cccccc; stroke-opacity: 0.3; stroke-linecap: round"/>
     </g>
     <g id="text_2">
      <!-- $\mathdefault{0.6}$ -->
      <g style="fill: #262626" transform="translate(201.666612 511.621578) scale(0.165 -0.165)">
       <defs>
        <path id="ArialMT-30" d="M 266 2259 
Q 266 3072 433 3567 
Q 600 4063 929 4331 
Q 1259 4600 1759 4600 
Q 2128 4600 2406 4451 
Q 2684 4303 2865 4023 
Q 3047 3744 3150 3342 
Q 3253 2941 3253 2259 
Q 3253 1453 3087 958 
Q 2922 463 2592 192 
Q 2263 -78 1759 -78 
Q 1097 -78 719 397 
Q 266 969 266 2259 
z
M 844 2259 
Q 844 1131 1108 757 
Q 1372 384 1759 384 
Q 2147 384 2411 759 
Q 2675 1134 2675 2259 
Q 2675 3391 2411 3762 
Q 2147 4134 1753 4134 
Q 1366 4134 1134 3806 
Q 844 3388 844 2259 
z
" transform="scale(0.015625)"/>
        <path id="ArialMT-2e" d="M 581 0 
L 581 641 
L 1222 641 
L 1222 0 
L 581 0 
z
" transform="scale(0.015625)"/>
        <path id="ArialMT-36" d="M 3184 3459 
L 2625 3416 
Q 2550 3747 2413 3897 
Q 2184 4138 1850 4138 
Q 1581 4138 1378 3988 
Q 1113 3794 959 3422 
Q 806 3050 800 2363 
Q 1003 2672 1297 2822 
Q 1591 2972 1913 2972 
Q 2475 2972 2870 2558 
Q 3266 2144 3266 1488 
Q 3266 1056 3080 686 
Q 2894 316 2569 119 
Q 2244 -78 1831 -78 
Q 1128 -78 684 439 
Q 241 956 241 2144 
Q 241 3472 731 4075 
Q 1159 4600 1884 4600 
Q 2425 4600 2770 4297 
Q 3116 3994 3184 3459 
z
M 888 1484 
Q 888 1194 1011 928 
Q 1134 663 1356 523 
Q 1578 384 1822 384 
Q 2178 384 2434 671 
Q 2691 959 2691 1453 
Q 2691 1928 2437 2201 
Q 2184 2475 1800 2475 
Q 1419 2475 1153 2201 
Q 888 1928 888 1484 
z
" transform="scale(0.015625)"/>
       </defs>
       <use xlink:href="#ArialMT-30" transform="translate(0 0.125)"/>
       <use xlink:href="#ArialMT-2e" transform="translate(55.615234 0.125)"/>
       <use xlink:href="#ArialMT-36" transform="translate(83.398438 0.125)"/>
      </g>
     </g>
    </g>
    <g id="xtick_3">
     <g id="line2d_3">
      <path d="M 284.785852 490.311187 
L 284.785852 26.303437 
" clip-path="url(#p5463c8e54c)" style="fill: none; stroke: #cccccc; stroke-opacity: 0.3; stroke-linecap: round"/>
     </g>
     <g id="text_3">
      <!-- $\mathdefault{0.7}$ -->
      <g style="fill: #262626" transform="translate(273.235852 511.621578) scale(0.165 -0.165)">
       <defs>
        <path id="ArialMT-37" d="M 303 3981 
L 303 4522 
L 3269 4522 
L 3269 4084 
Q 2831 3619 2401 2847 
Q 1972 2075 1738 1259 
Q 1569 684 1522 0 
L 944 0 
Q 953 541 1156 1306 
Q 1359 2072 1739 2783 
Q 2119 3494 2547 3981 
L 303 3981 
z
" transform="scale(0.015625)"/>
       </defs>
       <use xlink:href="#ArialMT-30" transform="translate(0 0.125)"/>
       <use xlink:href="#ArialMT-2e" transform="translate(55.615234 0.125)"/>
       <use xlink:href="#ArialMT-37" transform="translate(83.398438 0.125)"/>
      </g>
     </g>
    </g>
    <g id="xtick_4">
     <g id="line2d_4">
      <path d="M 372.093932 490.311187 
L 372.093932 26.303437 
" clip-path="url(#p5463c8e54c)" style="fill: none; stroke: #cccccc; stroke-opacity: 0.3; stroke-linecap: round"/>
     </g>
     <g id="text_4">
      <!-- $\mathdefault{0.8}$ -->
      <g style="fill: #262626" transform="translate(360.543932 511.621578) scale(0.165 -0.165)">
       <defs>
        <path id="ArialMT-38" d="M 1131 2484 
Q 781 2613 612 2850 
Q 444 3088 444 3419 
Q 444 3919 803 4259 
Q 1163 4600 1759 4600 
Q 2359 4600 2725 4251 
Q 3091 3903 3091 3403 
Q 3091 3084 2923 2848 
Q 2756 2613 2416 2484 
Q 2838 2347 3058 2040 
Q 3278 1734 3278 1309 
Q 3278 722 2862 322 
Q 2447 -78 1769 -78 
Q 1091 -78 675 323 
Q 259 725 259 1325 
Q 259 1772 486 2073 
Q 713 2375 1131 2484 
z
M 1019 3438 
Q 1019 3113 1228 2906 
Q 1438 2700 1772 2700 
Q 2097 2700 2305 2904 
Q 2513 3109 2513 3406 
Q 2513 3716 2298 3927 
Q 2084 4138 1766 4138 
Q 1444 4138 1231 3931 
Q 1019 3725 1019 3438 
z
M 838 1322 
Q 838 1081 952 856 
Q 1066 631 1291 507 
Q 1516 384 1775 384 
Q 2178 384 2440 643 
Q 2703 903 2703 1303 
Q 2703 1709 2433 1975 
Q 2163 2241 1756 2241 
Q 1359 2241 1098 1978 
Q 838 1716 838 1322 
z
" transform="scale(0.015625)"/>
       </defs>
       <use xlink:href="#ArialMT-30" transform="translate(0 0.125)"/>
       <use xlink:href="#ArialMT-2e" transform="translate(55.615234 0.125)"/>
       <use xlink:href="#ArialMT-38" transform="translate(83.398438 0.125)"/>
      </g>
     </g>
    </g>
    <g id="text_5">
     <!-- Accuracy -->
     <g style="fill: #262626" transform="translate(209.31855 538.64025) scale(0.18 -0.18)">
      <defs>
       <path id="ArialMT-41" d="M -9 0 
L 1750 4581 
L 2403 4581 
L 4278 0 
L 3588 0 
L 3053 1388 
L 1138 1388 
L 634 0 
L -9 0 
z
M 1313 1881 
L 2866 1881 
L 2388 3150 
Q 2169 3728 2063 4100 
Q 1975 3659 1816 3225 
L 1313 1881 
z
" transform="scale(0.015625)"/>
       <path id="ArialMT-63" d="M 2588 1216 
L 3141 1144 
Q 3050 572 2676 248 
Q 2303 -75 1759 -75 
Q 1078 -75 664 370 
Q 250 816 250 1647 
Q 250 2184 428 2587 
Q 606 2991 970 3192 
Q 1334 3394 1763 3394 
Q 2303 3394 2647 3120 
Q 2991 2847 3088 2344 
L 2541 2259 
Q 2463 2594 2264 2762 
Q 2066 2931 1784 2931 
Q 1359 2931 1093 2626 
Q 828 2322 828 1663 
Q 828 994 1084 691 
Q 1341 388 1753 388 
Q 2084 388 2306 591 
Q 2528 794 2588 1216 
z
" transform="scale(0.015625)"/>
       <path id="ArialMT-75" d="M 2597 0 
L 2597 488 
Q 2209 -75 1544 -75 
Q 1250 -75 995 37 
Q 741 150 617 320 
Q 494 491 444 738 
Q 409 903 409 1263 
L 409 3319 
L 972 3319 
L 972 1478 
Q 972 1038 1006 884 
Q 1059 663 1231 536 
Q 1403 409 1656 409 
Q 1909 409 2131 539 
Q 2353 669 2445 892 
Q 2538 1116 2538 1541 
L 2538 3319 
L 3100 3319 
L 3100 0 
L 2597 0 
z
" transform="scale(0.015625)"/>
       <path id="ArialMT-72" d="M 416 0 
L 416 3319 
L 922 3319 
L 922 2816 
Q 1116 3169 1280 3281 
Q 1444 3394 1641 3394 
Q 1925 3394 2219 3213 
L 2025 2691 
Q 1819 2813 1613 2813 
Q 1428 2813 1281 2702 
Q 1134 2591 1072 2394 
Q 978 2094 978 1738 
L 978 0 
L 416 0 
z
" transform="scale(0.015625)"/>
       <path id="ArialMT-61" d="M 2588 409 
Q 2275 144 1986 34 
Q 1697 -75 1366 -75 
Q 819 -75 525 192 
Q 231 459 231 875 
Q 231 1119 342 1320 
Q 453 1522 633 1644 
Q 813 1766 1038 1828 
Q 1203 1872 1538 1913 
Q 2219 1994 2541 2106 
Q 2544 2222 2544 2253 
Q 2544 2597 2384 2738 
Q 2169 2928 1744 2928 
Q 1347 2928 1158 2789 
Q 969 2650 878 2297 
L 328 2372 
Q 403 2725 575 2942 
Q 747 3159 1072 3276 
Q 1397 3394 1825 3394 
Q 2250 3394 2515 3294 
Q 2781 3194 2906 3042 
Q 3031 2891 3081 2659 
Q 3109 2516 3109 2141 
L 3109 1391 
Q 3109 606 3145 398 
Q 3181 191 3288 0 
L 2700 0 
Q 2613 175 2588 409 
z
M 2541 1666 
Q 2234 1541 1622 1453 
Q 1275 1403 1131 1340 
Q 988 1278 909 1158 
Q 831 1038 831 891 
Q 831 666 1001 516 
Q 1172 366 1500 366 
Q 1825 366 2078 508 
Q 2331 650 2450 897 
Q 2541 1088 2541 1459 
L 2541 1666 
z
" transform="scale(0.015625)"/>
       <path id="ArialMT-79" d="M 397 -1278 
L 334 -750 
Q 519 -800 656 -800 
Q 844 -800 956 -737 
Q 1069 -675 1141 -563 
Q 1194 -478 1313 -144 
Q 1328 -97 1363 -6 
L 103 3319 
L 709 3319 
L 1400 1397 
Q 1534 1031 1641 628 
Q 1738 1016 1872 1384 
L 2581 3319 
L 3144 3319 
L 1881 -56 
Q 1678 -603 1566 -809 
Q 1416 -1088 1222 -1217 
Q 1028 -1347 759 -1347 
Q 597 -1347 397 -1278 
z
" transform="scale(0.015625)"/>
      </defs>
      <use xlink:href="#ArialMT-41"/>
      <use xlink:href="#ArialMT-63" transform="translate(66.699219 0)"/>
      <use xlink:href="#ArialMT-63" transform="translate(116.699219 0)"/>
      <use xlink:href="#ArialMT-75" transform="translate(166.699219 0)"/>
      <use xlink:href="#ArialMT-72" transform="translate(222.314453 0)"/>
      <use xlink:href="#ArialMT-61" transform="translate(255.615234 0)"/>
      <use xlink:href="#ArialMT-63" transform="translate(311.230469 0)"/>
      <use xlink:href="#ArialMT-79" transform="translate(361.230469 0)"/>
     </g>
    </g>
   </g>
   <g id="matplotlib.axis_2">
    <g id="ytick_1">
     <g id="line2d_5">
      <path d="M 88.053516 455.319035 
L 404.602959 455.319035 
" clip-path="url(#p5463c8e54c)" style="fill: none; stroke: #cccccc; stroke-opacity: 0.3; stroke-linecap: round"/>
     </g>
     <g id="text_6">
      <!-- 0.0040 -->
      <g style="fill: #262626" transform="translate(28.091875 461.22423) scale(0.165 -0.165)">
       <defs>
        <path id="ArialMT-34" d="M 2069 0 
L 2069 1097 
L 81 1097 
L 81 1613 
L 2172 4581 
L 2631 4581 
L 2631 1613 
L 3250 1613 
L 3250 1097 
L 2631 1097 
L 2631 0 
L 2069 0 
z
M 2069 1613 
L 2069 3678 
L 634 1613 
L 2069 1613 
z
" transform="scale(0.015625)"/>
       </defs>
       <use xlink:href="#ArialMT-30"/>
       <use xlink:href="#ArialMT-2e" transform="translate(55.615234 0)"/>
       <use xlink:href="#ArialMT-30" transform="translate(83.398438 0)"/>
       <use xlink:href="#ArialMT-30" transform="translate(139.013672 0)"/>
       <use xlink:href="#ArialMT-34" transform="translate(194.628906 0)"/>
       <use xlink:href="#ArialMT-30" transform="translate(250.244141 0)"/>
      </g>
     </g>
    </g>
    <g id="ytick_2">
     <g id="line2d_6">
      <path d="M 88.053516 395.496497 
L 404.602959 395.496497 
" clip-path="url(#p5463c8e54c)" style="fill: none; stroke: #cccccc; stroke-opacity: 0.3; stroke-linecap: round"/>
     </g>
     <g id="text_7">
      <!-- 0.0045 -->
      <g style="fill: #262626" transform="translate(28.091875 401.401692) scale(0.165 -0.165)">
       <defs>
        <path id="ArialMT-35" d="M 266 1200 
L 856 1250 
Q 922 819 1161 601 
Q 1400 384 1738 384 
Q 2144 384 2425 690 
Q 2706 997 2706 1503 
Q 2706 1984 2436 2262 
Q 2166 2541 1728 2541 
Q 1456 2541 1237 2417 
Q 1019 2294 894 2097 
L 366 2166 
L 809 4519 
L 3088 4519 
L 3088 3981 
L 1259 3981 
L 1013 2750 
Q 1425 3038 1878 3038 
Q 2478 3038 2890 2622 
Q 3303 2206 3303 1553 
Q 3303 931 2941 478 
Q 2500 -78 1738 -78 
Q 1113 -78 717 272 
Q 322 622 266 1200 
z
" transform="scale(0.015625)"/>
       </defs>
       <use xlink:href="#ArialMT-30"/>
       <use xlink:href="#ArialMT-2e" transform="translate(55.615234 0)"/>
       <use xlink:href="#ArialMT-30" transform="translate(83.398438 0)"/>
       <use xlink:href="#ArialMT-30" transform="translate(139.013672 0)"/>
       <use xlink:href="#ArialMT-34" transform="translate(194.628906 0)"/>
       <use xlink:href="#ArialMT-35" transform="translate(250.244141 0)"/>
      </g>
     </g>
    </g>
    <g id="ytick_3">
     <g id="line2d_7">
      <path d="M 88.053516 335.673959 
L 404.602959 335.673959 
" clip-path="url(#p5463c8e54c)" style="fill: none; stroke: #cccccc; stroke-opacity: 0.3; stroke-linecap: round"/>
     </g>
     <g id="text_8">
      <!-- 0.0050 -->
      <g style="fill: #262626" transform="translate(28.091875 341.579154) scale(0.165 -0.165)">
       <use xlink:href="#ArialMT-30"/>
       <use xlink:href="#ArialMT-2e" transform="translate(55.615234 0)"/>
       <use xlink:href="#ArialMT-30" transform="translate(83.398438 0)"/>
       <use xlink:href="#ArialMT-30" transform="translate(139.013672 0)"/>
       <use xlink:href="#ArialMT-35" transform="translate(194.628906 0)"/>
       <use xlink:href="#ArialMT-30" transform="translate(250.244141 0)"/>
      </g>
     </g>
    </g>
    <g id="ytick_4">
     <g id="line2d_8">
      <path d="M 88.053516 275.85142 
L 404.602959 275.85142 
" clip-path="url(#p5463c8e54c)" style="fill: none; stroke: #cccccc; stroke-opacity: 0.3; stroke-linecap: round"/>
     </g>
     <g id="text_9">
      <!-- 0.0055 -->
      <g style="fill: #262626" transform="translate(28.091875 281.756616) scale(0.165 -0.165)">
       <use xlink:href="#ArialMT-30"/>
       <use xlink:href="#ArialMT-2e" transform="translate(55.615234 0)"/>
       <use xlink:href="#ArialMT-30" transform="translate(83.398438 0)"/>
       <use xlink:href="#ArialMT-30" transform="translate(139.013672 0)"/>
       <use xlink:href="#ArialMT-35" transform="translate(194.628906 0)"/>
       <use xlink:href="#ArialMT-35" transform="translate(250.244141 0)"/>
      </g>
     </g>
    </g>
    <g id="ytick_5">
     <g id="line2d_9">
      <path d="M 88.053516 216.028882 
L 404.602959 216.028882 
" clip-path="url(#p5463c8e54c)" style="fill: none; stroke: #cccccc; stroke-opacity: 0.3; stroke-linecap: round"/>
     </g>
     <g id="text_10">
      <!-- 0.0060 -->
      <g style="fill: #262626" transform="translate(28.091875 221.934078) scale(0.165 -0.165)">
       <use xlink:href="#ArialMT-30"/>
       <use xlink:href="#ArialMT-2e" transform="translate(55.615234 0)"/>
       <use xlink:href="#ArialMT-30" transform="translate(83.398438 0)"/>
       <use xlink:href="#ArialMT-30" transform="translate(139.013672 0)"/>
       <use xlink:href="#ArialMT-36" transform="translate(194.628906 0)"/>
       <use xlink:href="#ArialMT-30" transform="translate(250.244141 0)"/>
      </g>
     </g>
    </g>
    <g id="ytick_6">
     <g id="line2d_10">
      <path d="M 88.053516 156.206344 
L 404.602959 156.206344 
" clip-path="url(#p5463c8e54c)" style="fill: none; stroke: #cccccc; stroke-opacity: 0.3; stroke-linecap: round"/>
     </g>
     <g id="text_11">
      <!-- 0.0065 -->
      <g style="fill: #262626" transform="translate(28.091875 162.111539) scale(0.165 -0.165)">
       <use xlink:href="#ArialMT-30"/>
       <use xlink:href="#ArialMT-2e" transform="translate(55.615234 0)"/>
       <use xlink:href="#ArialMT-30" transform="translate(83.398438 0)"/>
       <use xlink:href="#ArialMT-30" transform="translate(139.013672 0)"/>
       <use xlink:href="#ArialMT-36" transform="translate(194.628906 0)"/>
       <use xlink:href="#ArialMT-35" transform="translate(250.244141 0)"/>
      </g>
     </g>
    </g>
    <g id="ytick_7">
     <g id="line2d_11">
      <path d="M 88.053516 96.383806 
L 404.602959 96.383806 
" clip-path="url(#p5463c8e54c)" style="fill: none; stroke: #cccccc; stroke-opacity: 0.3; stroke-linecap: round"/>
     </g>
     <g id="text_12">
      <!-- 0.0070 -->
      <g style="fill: #262626" transform="translate(28.091875 102.289001) scale(0.165 -0.165)">
       <use xlink:href="#ArialMT-30"/>
       <use xlink:href="#ArialMT-2e" transform="translate(55.615234 0)"/>
       <use xlink:href="#ArialMT-30" transform="translate(83.398438 0)"/>
       <use xlink:href="#ArialMT-30" transform="translate(139.013672 0)"/>
       <use xlink:href="#ArialMT-37" transform="translate(194.628906 0)"/>
       <use xlink:href="#ArialMT-30" transform="translate(250.244141 0)"/>
      </g>
     </g>
    </g>
    <g id="ytick_8">
     <g id="line2d_12">
      <path d="M 88.053516 36.561268 
L 404.602959 36.561268 
" clip-path="url(#p5463c8e54c)" style="fill: none; stroke: #cccccc; stroke-opacity: 0.3; stroke-linecap: round"/>
     </g>
     <g id="text_13">
      <!-- 0.0075 -->
      <g style="fill: #262626" transform="translate(28.091875 42.466463) scale(0.165 -0.165)">
       <use xlink:href="#ArialMT-30"/>
       <use xlink:href="#ArialMT-2e" transform="translate(55.615234 0)"/>
       <use xlink:href="#ArialMT-30" transform="translate(83.398438 0)"/>
       <use xlink:href="#ArialMT-30" transform="translate(139.013672 0)"/>
       <use xlink:href="#ArialMT-37" transform="translate(194.628906 0)"/>
       <use xlink:href="#ArialMT-35" transform="translate(250.244141 0)"/>
      </g>
     </g>
    </g>
    <g id="text_14">
     <!-- Wall Clock Time (s/image) -->
     <g style="fill: #262626" transform="translate(20.303437 362.482312) rotate(-90) scale(0.18 -0.18)">
      <defs>
       <path id="ArialMT-57" d="M 1294 0 
L 78 4581 
L 700 4581 
L 1397 1578 
Q 1509 1106 1591 641 
Q 1766 1375 1797 1488 
L 2669 4581 
L 3400 4581 
L 4056 2263 
Q 4303 1400 4413 641 
Q 4500 1075 4641 1638 
L 5359 4581 
L 5969 4581 
L 4713 0 
L 4128 0 
L 3163 3491 
Q 3041 3928 3019 4028 
Q 2947 3713 2884 3491 
L 1913 0 
L 1294 0 
z
" transform="scale(0.015625)"/>
       <path id="ArialMT-6c" d="M 409 0 
L 409 4581 
L 972 4581 
L 972 0 
L 409 0 
z
" transform="scale(0.015625)"/>
       <path id="ArialMT-20" transform="scale(0.015625)"/>
       <path id="ArialMT-43" d="M 3763 1606 
L 4369 1453 
Q 4178 706 3683 314 
Q 3188 -78 2472 -78 
Q 1731 -78 1267 223 
Q 803 525 561 1097 
Q 319 1669 319 2325 
Q 319 3041 592 3573 
Q 866 4106 1370 4382 
Q 1875 4659 2481 4659 
Q 3169 4659 3637 4309 
Q 4106 3959 4291 3325 
L 3694 3184 
Q 3534 3684 3231 3912 
Q 2928 4141 2469 4141 
Q 1941 4141 1586 3887 
Q 1231 3634 1087 3207 
Q 944 2781 944 2328 
Q 944 1744 1114 1308 
Q 1284 872 1643 656 
Q 2003 441 2422 441 
Q 2931 441 3284 734 
Q 3638 1028 3763 1606 
z
" transform="scale(0.015625)"/>
       <path id="ArialMT-6f" d="M 213 1659 
Q 213 2581 725 3025 
Q 1153 3394 1769 3394 
Q 2453 3394 2887 2945 
Q 3322 2497 3322 1706 
Q 3322 1066 3130 698 
Q 2938 331 2570 128 
Q 2203 -75 1769 -75 
Q 1072 -75 642 372 
Q 213 819 213 1659 
z
M 791 1659 
Q 791 1022 1069 705 
Q 1347 388 1769 388 
Q 2188 388 2466 706 
Q 2744 1025 2744 1678 
Q 2744 2294 2464 2611 
Q 2184 2928 1769 2928 
Q 1347 2928 1069 2612 
Q 791 2297 791 1659 
z
" transform="scale(0.015625)"/>
       <path id="ArialMT-6b" d="M 425 0 
L 425 4581 
L 988 4581 
L 988 1969 
L 2319 3319 
L 3047 3319 
L 1778 2088 
L 3175 0 
L 2481 0 
L 1384 1697 
L 988 1316 
L 988 0 
L 425 0 
z
" transform="scale(0.015625)"/>
       <path id="ArialMT-54" d="M 1659 0 
L 1659 4041 
L 150 4041 
L 150 4581 
L 3781 4581 
L 3781 4041 
L 2266 4041 
L 2266 0 
L 1659 0 
z
" transform="scale(0.015625)"/>
       <path id="ArialMT-69" d="M 425 3934 
L 425 4581 
L 988 4581 
L 988 3934 
L 425 3934 
z
M 425 0 
L 425 3319 
L 988 3319 
L 988 0 
L 425 0 
z
" transform="scale(0.015625)"/>
       <path id="ArialMT-6d" d="M 422 0 
L 422 3319 
L 925 3319 
L 925 2853 
Q 1081 3097 1340 3245 
Q 1600 3394 1931 3394 
Q 2300 3394 2536 3241 
Q 2772 3088 2869 2813 
Q 3263 3394 3894 3394 
Q 4388 3394 4653 3120 
Q 4919 2847 4919 2278 
L 4919 0 
L 4359 0 
L 4359 2091 
Q 4359 2428 4304 2576 
Q 4250 2725 4106 2815 
Q 3963 2906 3769 2906 
Q 3419 2906 3187 2673 
Q 2956 2441 2956 1928 
L 2956 0 
L 2394 0 
L 2394 2156 
Q 2394 2531 2256 2718 
Q 2119 2906 1806 2906 
Q 1569 2906 1367 2781 
Q 1166 2656 1075 2415 
Q 984 2175 984 1722 
L 984 0 
L 422 0 
z
" transform="scale(0.015625)"/>
       <path id="ArialMT-65" d="M 2694 1069 
L 3275 997 
Q 3138 488 2766 206 
Q 2394 -75 1816 -75 
Q 1088 -75 661 373 
Q 234 822 234 1631 
Q 234 2469 665 2931 
Q 1097 3394 1784 3394 
Q 2450 3394 2872 2941 
Q 3294 2488 3294 1666 
Q 3294 1616 3291 1516 
L 816 1516 
Q 847 969 1125 678 
Q 1403 388 1819 388 
Q 2128 388 2347 550 
Q 2566 713 2694 1069 
z
M 847 1978 
L 2700 1978 
Q 2663 2397 2488 2606 
Q 2219 2931 1791 2931 
Q 1403 2931 1139 2672 
Q 875 2413 847 1978 
z
" transform="scale(0.015625)"/>
       <path id="ArialMT-28" d="M 1497 -1347 
Q 1031 -759 709 28 
Q 388 816 388 1659 
Q 388 2403 628 3084 
Q 909 3875 1497 4659 
L 1900 4659 
Q 1522 4009 1400 3731 
Q 1209 3300 1100 2831 
Q 966 2247 966 1656 
Q 966 153 1900 -1347 
L 1497 -1347 
z
" transform="scale(0.015625)"/>
       <path id="ArialMT-73" d="M 197 991 
L 753 1078 
Q 800 744 1014 566 
Q 1228 388 1613 388 
Q 2000 388 2187 545 
Q 2375 703 2375 916 
Q 2375 1106 2209 1216 
Q 2094 1291 1634 1406 
Q 1016 1563 777 1677 
Q 538 1791 414 1992 
Q 291 2194 291 2438 
Q 291 2659 392 2848 
Q 494 3038 669 3163 
Q 800 3259 1026 3326 
Q 1253 3394 1513 3394 
Q 1903 3394 2198 3281 
Q 2494 3169 2634 2976 
Q 2775 2784 2828 2463 
L 2278 2388 
Q 2241 2644 2061 2787 
Q 1881 2931 1553 2931 
Q 1166 2931 1000 2803 
Q 834 2675 834 2503 
Q 834 2394 903 2306 
Q 972 2216 1119 2156 
Q 1203 2125 1616 2013 
Q 2213 1853 2448 1751 
Q 2684 1650 2818 1456 
Q 2953 1263 2953 975 
Q 2953 694 2789 445 
Q 2625 197 2315 61 
Q 2006 -75 1616 -75 
Q 969 -75 630 194 
Q 291 463 197 991 
z
" transform="scale(0.015625)"/>
       <path id="ArialMT-2f" d="M 0 -78 
L 1328 4659 
L 1778 4659 
L 453 -78 
L 0 -78 
z
" transform="scale(0.015625)"/>
       <path id="ArialMT-67" d="M 319 -275 
L 866 -356 
Q 900 -609 1056 -725 
Q 1266 -881 1628 -881 
Q 2019 -881 2231 -725 
Q 2444 -569 2519 -288 
Q 2563 -116 2559 434 
Q 2191 0 1641 0 
Q 956 0 581 494 
Q 206 988 206 1678 
Q 206 2153 378 2554 
Q 550 2956 876 3175 
Q 1203 3394 1644 3394 
Q 2231 3394 2613 2919 
L 2613 3319 
L 3131 3319 
L 3131 450 
Q 3131 -325 2973 -648 
Q 2816 -972 2473 -1159 
Q 2131 -1347 1631 -1347 
Q 1038 -1347 672 -1080 
Q 306 -813 319 -275 
z
M 784 1719 
Q 784 1066 1043 766 
Q 1303 466 1694 466 
Q 2081 466 2343 764 
Q 2606 1063 2606 1700 
Q 2606 2309 2336 2618 
Q 2066 2928 1684 2928 
Q 1309 2928 1046 2623 
Q 784 2319 784 1719 
z
" transform="scale(0.015625)"/>
       <path id="ArialMT-29" d="M 791 -1347 
L 388 -1347 
Q 1322 153 1322 1656 
Q 1322 2244 1188 2822 
Q 1081 3291 891 3722 
Q 769 4003 388 4659 
L 791 4659 
Q 1378 3875 1659 3084 
Q 1900 2403 1900 1659 
Q 1900 816 1576 28 
Q 1253 -759 791 -1347 
z
" transform="scale(0.015625)"/>
      </defs>
      <use xlink:href="#ArialMT-57"/>
      <use xlink:href="#ArialMT-61" transform="translate(90.634766 0)"/>
      <use xlink:href="#ArialMT-6c" transform="translate(146.25 0)"/>
      <use xlink:href="#ArialMT-6c" transform="translate(168.466797 0)"/>
      <use xlink:href="#ArialMT-20" transform="translate(190.683594 0)"/>
      <use xlink:href="#ArialMT-43" transform="translate(218.466797 0)"/>
      <use xlink:href="#ArialMT-6c" transform="translate(290.683594 0)"/>
      <use xlink:href="#ArialMT-6f" transform="translate(312.900391 0)"/>
      <use xlink:href="#ArialMT-63" transform="translate(368.515625 0)"/>
      <use xlink:href="#ArialMT-6b" transform="translate(418.515625 0)"/>
      <use xlink:href="#ArialMT-20" transform="translate(468.515625 0)"/>
      <use xlink:href="#ArialMT-54" transform="translate(494.548828 0)"/>
      <use xlink:href="#ArialMT-69" transform="translate(551.882812 0)"/>
      <use xlink:href="#ArialMT-6d" transform="translate(574.099609 0)"/>
      <use xlink:href="#ArialMT-65" transform="translate(657.400391 0)"/>
      <use xlink:href="#ArialMT-20" transform="translate(713.015625 0)"/>
      <use xlink:href="#ArialMT-28" transform="translate(740.798828 0)"/>
      <use xlink:href="#ArialMT-73" transform="translate(774.099609 0)"/>
      <use xlink:href="#ArialMT-2f" transform="translate(824.099609 0)"/>
      <use xlink:href="#ArialMT-69" transform="translate(851.882812 0)"/>
      <use xlink:href="#ArialMT-6d" transform="translate(874.099609 0)"/>
      <use xlink:href="#ArialMT-61" transform="translate(957.400391 0)"/>
      <use xlink:href="#ArialMT-67" transform="translate(1013.015625 0)"/>
      <use xlink:href="#ArialMT-65" transform="translate(1068.630859 0)"/>
      <use xlink:href="#ArialMT-29" transform="translate(1124.246094 0)"/>
     </g>
    </g>
   </g>
   <g id="line2d_13">
    <path d="M 157.519589 469.219926 
L 361.042355 271.602752 
L 373.230201 86.661196 
" clip-path="url(#p5463c8e54c)" style="fill: none; stroke-dasharray: 9.25,4; stroke-dashoffset: 0; stroke: #f77189; stroke-width: 2.5"/>
   </g>
   <g id="line2d_14">
    <path d="M 278.372314 454.394059 
L 379.900846 289.579508 
L 390.214348 83.849632 
" clip-path="url(#p5463c8e54c)" style="fill: none; stroke: #f77189; stroke-width: 2.5; stroke-linecap: round"/>
   </g>
   <g id="line2d_15">
    <path d="M 102.442127 368.946895 
L 302.066942 166.340378 
L 326.700126 47.394699 
" clip-path="url(#p5463c8e54c)" style="fill: none; stroke-dasharray: 9.25,4; stroke-dashoffset: 0; stroke: #36ada4; stroke-width: 2.5"/>
   </g>
   <g id="line2d_16">
    <path d="M 232.211601 414.464046 
L 319.510754 238.019049 
L 342.979481 62.973026 
" clip-path="url(#p5463c8e54c)" style="fill: none; stroke: #36ada4; stroke-width: 2.5; stroke-linecap: round"/>
   </g>
   <g id="patch_3">
    <path d="M 88.053516 490.311188 
L 88.053516 26.303437 
" style="fill: none; stroke: #cccccc; stroke-width: 1.25; stroke-linejoin: miter; stroke-linecap: square"/>
   </g>
   <g id="patch_4">
    <path d="M 404.602959 490.311188 
L 404.602959 26.303437 
" style="fill: none; stroke: #cccccc; stroke-width: 1.25; stroke-linejoin: miter; stroke-linecap: square"/>
   </g>
   <g id="patch_5">
    <path d="M 88.053516 490.311187 
L 404.602959 490.311187 
" style="fill: none; stroke: #cccccc; stroke-width: 1.25; stroke-linejoin: miter; stroke-linecap: square"/>
   </g>
   <g id="patch_6">
    <path d="M 88.053516 26.303437 
L 404.602959 26.303437 
" style="fill: none; stroke: #cccccc; stroke-width: 1.25; stroke-linejoin: miter; stroke-linecap: square"/>
   </g>
   <g id="text_15">
    <!-- Inference Time vs Accuracy -->
    <g style="fill: #262626" transform="translate(127.770112 20.303437) scale(0.18 -0.18)">
     <defs>
      <path id="Arial-BoldMT-49" d="M 438 0 
L 438 4581 
L 1363 4581 
L 1363 0 
L 438 0 
z
" transform="scale(0.015625)"/>
      <path id="Arial-BoldMT-6e" d="M 3478 0 
L 2600 0 
L 2600 1694 
Q 2600 2231 2544 2389 
Q 2488 2547 2361 2634 
Q 2234 2722 2056 2722 
Q 1828 2722 1647 2597 
Q 1466 2472 1398 2265 
Q 1331 2059 1331 1503 
L 1331 0 
L 453 0 
L 453 3319 
L 1269 3319 
L 1269 2831 
Q 1703 3394 2363 3394 
Q 2653 3394 2893 3289 
Q 3134 3184 3257 3021 
Q 3381 2859 3429 2653 
Q 3478 2447 3478 2063 
L 3478 0 
z
" transform="scale(0.015625)"/>
      <path id="Arial-BoldMT-66" d="M 75 3319 
L 563 3319 
L 563 3569 
Q 563 3988 652 4194 
Q 741 4400 980 4529 
Q 1219 4659 1584 4659 
Q 1959 4659 2319 4547 
L 2200 3934 
Q 1991 3984 1797 3984 
Q 1606 3984 1523 3895 
Q 1441 3806 1441 3553 
L 1441 3319 
L 2097 3319 
L 2097 2628 
L 1441 2628 
L 1441 0 
L 563 0 
L 563 2628 
L 75 2628 
L 75 3319 
z
" transform="scale(0.015625)"/>
      <path id="Arial-BoldMT-65" d="M 2381 1056 
L 3256 909 
Q 3088 428 2723 176 
Q 2359 -75 1813 -75 
Q 947 -75 531 491 
Q 203 944 203 1634 
Q 203 2459 634 2926 
Q 1066 3394 1725 3394 
Q 2466 3394 2894 2905 
Q 3322 2416 3303 1406 
L 1103 1406 
Q 1113 1016 1316 798 
Q 1519 581 1822 581 
Q 2028 581 2168 693 
Q 2309 806 2381 1056 
z
M 2431 1944 
Q 2422 2325 2234 2523 
Q 2047 2722 1778 2722 
Q 1491 2722 1303 2513 
Q 1116 2303 1119 1944 
L 2431 1944 
z
" transform="scale(0.015625)"/>
      <path id="Arial-BoldMT-72" d="M 1300 0 
L 422 0 
L 422 3319 
L 1238 3319 
L 1238 2847 
Q 1447 3181 1614 3287 
Q 1781 3394 1994 3394 
Q 2294 3394 2572 3228 
L 2300 2463 
Q 2078 2606 1888 2606 
Q 1703 2606 1575 2504 
Q 1447 2403 1373 2137 
Q 1300 1872 1300 1025 
L 1300 0 
z
" transform="scale(0.015625)"/>
      <path id="Arial-BoldMT-63" d="M 3353 2338 
L 2488 2181 
Q 2444 2441 2289 2572 
Q 2134 2703 1888 2703 
Q 1559 2703 1364 2476 
Q 1169 2250 1169 1719 
Q 1169 1128 1367 884 
Q 1566 641 1900 641 
Q 2150 641 2309 783 
Q 2469 925 2534 1272 
L 3397 1125 
Q 3263 531 2881 228 
Q 2500 -75 1859 -75 
Q 1131 -75 698 384 
Q 266 844 266 1656 
Q 266 2478 700 2936 
Q 1134 3394 1875 3394 
Q 2481 3394 2839 3133 
Q 3197 2872 3353 2338 
z
" transform="scale(0.015625)"/>
      <path id="Arial-BoldMT-20" transform="scale(0.015625)"/>
      <path id="Arial-BoldMT-54" d="M 1497 0 
L 1497 3806 
L 138 3806 
L 138 4581 
L 3778 4581 
L 3778 3806 
L 2422 3806 
L 2422 0 
L 1497 0 
z
" transform="scale(0.015625)"/>
      <path id="Arial-BoldMT-69" d="M 459 3769 
L 459 4581 
L 1338 4581 
L 1338 3769 
L 459 3769 
z
M 459 0 
L 459 3319 
L 1338 3319 
L 1338 0 
L 459 0 
z
" transform="scale(0.015625)"/>
      <path id="Arial-BoldMT-6d" d="M 394 3319 
L 1203 3319 
L 1203 2866 
Q 1638 3394 2238 3394 
Q 2556 3394 2790 3262 
Q 3025 3131 3175 2866 
Q 3394 3131 3647 3262 
Q 3900 3394 4188 3394 
Q 4553 3394 4806 3245 
Q 5059 3097 5184 2809 
Q 5275 2597 5275 2122 
L 5275 0 
L 4397 0 
L 4397 1897 
Q 4397 2391 4306 2534 
Q 4184 2722 3931 2722 
Q 3747 2722 3584 2609 
Q 3422 2497 3350 2280 
Q 3278 2063 3278 1594 
L 3278 0 
L 2400 0 
L 2400 1819 
Q 2400 2303 2353 2443 
Q 2306 2584 2207 2653 
Q 2109 2722 1941 2722 
Q 1738 2722 1575 2612 
Q 1413 2503 1342 2297 
Q 1272 2091 1272 1613 
L 1272 0 
L 394 0 
L 394 3319 
z
" transform="scale(0.015625)"/>
      <path id="Arial-BoldMT-76" d="M 1372 0 
L 34 3319 
L 956 3319 
L 1581 1625 
L 1763 1059 
Q 1834 1275 1853 1344 
Q 1897 1484 1947 1625 
L 2578 3319 
L 3481 3319 
L 2163 0 
L 1372 0 
z
" transform="scale(0.015625)"/>
      <path id="Arial-BoldMT-73" d="M 150 947 
L 1031 1081 
Q 1088 825 1259 692 
Q 1431 559 1741 559 
Q 2081 559 2253 684 
Q 2369 772 2369 919 
Q 2369 1019 2306 1084 
Q 2241 1147 2013 1200 
Q 950 1434 666 1628 
Q 272 1897 272 2375 
Q 272 2806 612 3100 
Q 953 3394 1669 3394 
Q 2350 3394 2681 3172 
Q 3013 2950 3138 2516 
L 2309 2363 
Q 2256 2556 2107 2659 
Q 1959 2763 1684 2763 
Q 1338 2763 1188 2666 
Q 1088 2597 1088 2488 
Q 1088 2394 1175 2328 
Q 1294 2241 1995 2081 
Q 2697 1922 2975 1691 
Q 3250 1456 3250 1038 
Q 3250 581 2869 253 
Q 2488 -75 1741 -75 
Q 1063 -75 667 200 
Q 272 475 150 947 
z
" transform="scale(0.015625)"/>
      <path id="Arial-BoldMT-41" d="M 4597 0 
L 3591 0 
L 3191 1041 
L 1359 1041 
L 981 0 
L 0 0 
L 1784 4581 
L 2763 4581 
L 4597 0 
z
M 2894 1813 
L 2263 3513 
L 1644 1813 
L 2894 1813 
z
" transform="scale(0.015625)"/>
      <path id="Arial-BoldMT-75" d="M 2644 0 
L 2644 497 
Q 2463 231 2167 78 
Q 1872 -75 1544 -75 
Q 1209 -75 943 72 
Q 678 219 559 484 
Q 441 750 441 1219 
L 441 3319 
L 1319 3319 
L 1319 1794 
Q 1319 1094 1367 936 
Q 1416 778 1544 686 
Q 1672 594 1869 594 
Q 2094 594 2272 717 
Q 2450 841 2515 1023 
Q 2581 1206 2581 1919 
L 2581 3319 
L 3459 3319 
L 3459 0 
L 2644 0 
z
" transform="scale(0.015625)"/>
      <path id="Arial-BoldMT-61" d="M 1116 2306 
L 319 2450 
Q 453 2931 781 3162 
Q 1109 3394 1756 3394 
Q 2344 3394 2631 3255 
Q 2919 3116 3036 2902 
Q 3153 2688 3153 2116 
L 3144 1091 
Q 3144 653 3186 445 
Q 3228 238 3344 0 
L 2475 0 
Q 2441 88 2391 259 
Q 2369 338 2359 363 
Q 2134 144 1878 34 
Q 1622 -75 1331 -75 
Q 819 -75 523 203 
Q 228 481 228 906 
Q 228 1188 362 1408 
Q 497 1628 739 1745 
Q 981 1863 1438 1950 
Q 2053 2066 2291 2166 
L 2291 2253 
Q 2291 2506 2166 2614 
Q 2041 2722 1694 2722 
Q 1459 2722 1328 2630 
Q 1197 2538 1116 2306 
z
M 2291 1594 
Q 2122 1538 1756 1459 
Q 1391 1381 1278 1306 
Q 1106 1184 1106 997 
Q 1106 813 1243 678 
Q 1381 544 1594 544 
Q 1831 544 2047 700 
Q 2206 819 2256 991 
Q 2291 1103 2291 1419 
L 2291 1594 
z
" transform="scale(0.015625)"/>
      <path id="Arial-BoldMT-79" d="M 44 3319 
L 978 3319 
L 1772 963 
L 2547 3319 
L 3456 3319 
L 2284 125 
L 2075 -453 
Q 1959 -744 1854 -897 
Q 1750 -1050 1614 -1145 
Q 1478 -1241 1279 -1294 
Q 1081 -1347 831 -1347 
Q 578 -1347 334 -1294 
L 256 -606 
Q 463 -647 628 -647 
Q 934 -647 1081 -467 
Q 1228 -288 1306 -9 
L 44 3319 
z
" transform="scale(0.015625)"/>
     </defs>
     <use xlink:href="#Arial-BoldMT-49"/>
     <use xlink:href="#Arial-BoldMT-6e" transform="translate(27.783203 0)"/>
     <use xlink:href="#Arial-BoldMT-66" transform="translate(88.867188 0)"/>
     <use xlink:href="#Arial-BoldMT-65" transform="translate(122.167969 0)"/>
     <use xlink:href="#Arial-BoldMT-72" transform="translate(177.783203 0)"/>
     <use xlink:href="#Arial-BoldMT-65" transform="translate(216.699219 0)"/>
     <use xlink:href="#Arial-BoldMT-6e" transform="translate(272.314453 0)"/>
     <use xlink:href="#Arial-BoldMT-63" transform="translate(333.398438 0)"/>
     <use xlink:href="#Arial-BoldMT-65" transform="translate(389.013672 0)"/>
     <use xlink:href="#Arial-BoldMT-20" transform="translate(444.628906 0)"/>
     <use xlink:href="#Arial-BoldMT-54" transform="translate(472.412109 0)"/>
     <use xlink:href="#Arial-BoldMT-69" transform="translate(531.746094 0)"/>
     <use xlink:href="#Arial-BoldMT-6d" transform="translate(559.529297 0)"/>
     <use xlink:href="#Arial-BoldMT-65" transform="translate(648.445312 0)"/>
     <use xlink:href="#Arial-BoldMT-20" transform="translate(704.060547 0)"/>
     <use xlink:href="#Arial-BoldMT-76" transform="translate(731.84375 0)"/>
     <use xlink:href="#Arial-BoldMT-73" transform="translate(787.458984 0)"/>
     <use xlink:href="#Arial-BoldMT-20" transform="translate(843.074219 0)"/>
     <use xlink:href="#Arial-BoldMT-41" transform="translate(867.107422 0)"/>
     <use xlink:href="#Arial-BoldMT-63" transform="translate(939.324219 0)"/>
     <use xlink:href="#Arial-BoldMT-63" transform="translate(994.939453 0)"/>
     <use xlink:href="#Arial-BoldMT-75" transform="translate(1050.554688 0)"/>
     <use xlink:href="#Arial-BoldMT-72" transform="translate(1111.638672 0)"/>
     <use xlink:href="#Arial-BoldMT-61" transform="translate(1150.554688 0)"/>
     <use xlink:href="#Arial-BoldMT-63" transform="translate(1206.169922 0)"/>
     <use xlink:href="#Arial-BoldMT-79" transform="translate(1261.785156 0)"/>
    </g>
   </g>
   <g id="PathCollection_1">
    <defs>
     <path id="m22d67be037" d="M 0 5 
C 1.326016 5 2.597899 4.473168 3.535534 3.535534 
C 4.473168 2.597899 5 1.326016 5 0 
C 5 -1.326016 4.473168 -2.597899 3.535534 -3.535534 
C 2.597899 -4.473168 1.326016 -5 0 -5 
C -1.326016 -5 -2.597899 -4.473168 -3.535534 -3.535534 
C -4.473168 -2.597899 -5 -1.326016 -5 0 
C -5 1.326016 -4.473168 2.597899 -3.535534 3.535534 
C -2.597899 4.473168 -1.326016 5 0 5 
z
" style="stroke: #f77189"/>
    </defs>
    <g clip-path="url(#p5463c8e54c)">
     <use xlink:href="#m22d67be037" x="157.519589" y="469.219926" style="fill: #f77189; stroke: #f77189"/>
    </g>
   </g>
   <g id="PathCollection_2">
    <defs>
     <path id="m869ee174a1" d="M -5 5 
L 5 5 
L 5 -5 
L -5 -5 
z
" style="stroke: #f77189"/>
    </defs>
    <g clip-path="url(#p5463c8e54c)">
     <use xlink:href="#m869ee174a1" x="361.042355" y="271.602752" style="fill: #f77189; stroke: #f77189"/>
    </g>
   </g>
   <g id="PathCollection_3">
    <defs>
     <path id="mb7b7da2adb" d="M 0 -5 
L -5 5 
L 5 5 
z
" style="stroke: #f77189"/>
    </defs>
    <g clip-path="url(#p5463c8e54c)">
     <use xlink:href="#mb7b7da2adb" x="373.230201" y="86.661196" style="fill: #f77189; stroke: #f77189"/>
    </g>
   </g>
   <g id="PathCollection_4">
    <g clip-path="url(#p5463c8e54c)">
     <use xlink:href="#m22d67be037" x="278.372314" y="454.394059" style="fill: #f77189; stroke: #f77189"/>
    </g>
   </g>
   <g id="PathCollection_5">
    <g clip-path="url(#p5463c8e54c)">
     <use xlink:href="#m869ee174a1" x="379.900846" y="289.579508" style="fill: #f77189; stroke: #f77189"/>
    </g>
   </g>
   <g id="PathCollection_6">
    <g clip-path="url(#p5463c8e54c)">
     <use xlink:href="#mb7b7da2adb" x="390.214348" y="83.849632" style="fill: #f77189; stroke: #f77189"/>
    </g>
   </g>
   <g id="PathCollection_7">
    <defs>
     <path id="m25c7c08c21" d="M 0 5 
C 1.326016 5 2.597899 4.473168 3.535534 3.535534 
C 4.473168 2.597899 5 1.326016 5 0 
C 5 -1.326016 4.473168 -2.597899 3.535534 -3.535534 
C 2.597899 -4.473168 1.326016 -5 0 -5 
C -1.326016 -5 -2.597899 -4.473168 -3.535534 -3.535534 
C -4.473168 -2.597899 -5 -1.326016 -5 0 
C -5 1.326016 -4.473168 2.597899 -3.535534 3.535534 
C -2.597899 4.473168 -1.326016 5 0 5 
z
" style="stroke: #36ada4"/>
    </defs>
    <g clip-path="url(#p5463c8e54c)">
     <use xlink:href="#m25c7c08c21" x="102.442127" y="368.946895" style="fill: #36ada4; stroke: #36ada4"/>
    </g>
   </g>
   <g id="PathCollection_8">
    <defs>
     <path id="m128081a823" d="M -5 5 
L 5 5 
L 5 -5 
L -5 -5 
z
" style="stroke: #36ada4"/>
    </defs>
    <g clip-path="url(#p5463c8e54c)">
     <use xlink:href="#m128081a823" x="302.066942" y="166.340378" style="fill: #36ada4; stroke: #36ada4"/>
    </g>
   </g>
   <g id="PathCollection_9">
    <defs>
     <path id="md4992a78a5" d="M 0 -5 
L -5 5 
L 5 5 
z
" style="stroke: #36ada4"/>
    </defs>
    <g clip-path="url(#p5463c8e54c)">
     <use xlink:href="#md4992a78a5" x="326.700126" y="47.394699" style="fill: #36ada4; stroke: #36ada4"/>
    </g>
   </g>
   <g id="PathCollection_10">
    <g clip-path="url(#p5463c8e54c)">
     <use xlink:href="#m25c7c08c21" x="232.211601" y="414.464046" style="fill: #36ada4; stroke: #36ada4"/>
    </g>
   </g>
   <g id="PathCollection_11">
    <g clip-path="url(#p5463c8e54c)">
     <use xlink:href="#m128081a823" x="319.510754" y="238.019049" style="fill: #36ada4; stroke: #36ada4"/>
    </g>
   </g>
   <g id="PathCollection_12">
    <g clip-path="url(#p5463c8e54c)">
     <use xlink:href="#md4992a78a5" x="342.979481" y="62.973026" style="fill: #36ada4; stroke: #36ada4"/>
    </g>
   </g>
  </g>
  <g id="axes_2">
   <g id="patch_7">
    <path d="M 466.349072 490.311187 
L 782.898516 490.311187 
L 782.898516 26.303437 
L 466.349072 26.303437 
z
" style="fill: #ffffff"/>
   </g>
   <g id="matplotlib.axis_3">
    <g id="xtick_5">
     <g id="line2d_17">
      <path d="M 525.833857 490.311187 
L 525.833857 26.303437 
" clip-path="url(#p1c5f5aea72)" style="fill: none; stroke: #cccccc; stroke-opacity: 0.3; stroke-linecap: round"/>
     </g>
     <g id="text_16">
      <!-- $\mathdefault{\frac{1}{2}}$ -->
      <g style="fill: #262626" transform="translate(521.543857 516.146187) scale(0.165 -0.165)">
       <use xlink:href="#ArialMT-31" transform="translate(0 48.6875) scale(0.7)"/>
       <use xlink:href="#ArialMT-32" transform="translate(0 -32.875) scale(0.7)"/>
       <path d="M 0 23.6875 
L 0 29.9375 
L 38.930664 29.9375 
L 38.930664 23.6875 
L 0 23.6875 
z
"/>
      </g>
     </g>
    </g>
    <g id="xtick_6">
     <g id="line2d_18">
      <path d="M 591.512169 490.311187 
L 591.512169 26.303437 
" clip-path="url(#p1c5f5aea72)" style="fill: none; stroke: #cccccc; stroke-opacity: 0.3; stroke-linecap: round"/>
     </g>
     <g id="text_17">
      <!-- $\mathdefault{0.6}$ -->
      <g style="fill: #262626" transform="translate(579.962169 511.621578) scale(0.165 -0.165)">
       <use xlink:href="#ArialMT-30" transform="translate(0 0.125)"/>
       <use xlink:href="#ArialMT-2e" transform="translate(55.615234 0.125)"/>
       <use xlink:href="#ArialMT-36" transform="translate(83.398438 0.125)"/>
      </g>
     </g>
    </g>
    <g id="xtick_7">
     <g id="line2d_19">
      <path d="M 663.081408 490.311187 
L 663.081408 26.303437 
" clip-path="url(#p1c5f5aea72)" style="fill: none; stroke: #cccccc; stroke-opacity: 0.3; stroke-linecap: round"/>
     </g>
     <g id="text_18">
      <!-- $\mathdefault{0.7}$ -->
      <g style="fill: #262626" transform="translate(651.531408 511.621578) scale(0.165 -0.165)">
       <use xlink:href="#ArialMT-30" transform="translate(0 0.125)"/>
       <use xlink:href="#ArialMT-2e" transform="translate(55.615234 0.125)"/>
       <use xlink:href="#ArialMT-37" transform="translate(83.398438 0.125)"/>
      </g>
     </g>
    </g>
    <g id="xtick_8">
     <g id="line2d_20">
      <path d="M 750.389489 490.311187 
L 750.389489 26.303437 
" clip-path="url(#p1c5f5aea72)" style="fill: none; stroke: #cccccc; stroke-opacity: 0.3; stroke-linecap: round"/>
     </g>
     <g id="text_19">
      <!-- $\mathdefault{0.8}$ -->
      <g style="fill: #262626" transform="translate(738.839489 511.621578) scale(0.165 -0.165)">
       <use xlink:href="#ArialMT-30" transform="translate(0 0.125)"/>
       <use xlink:href="#ArialMT-2e" transform="translate(55.615234 0.125)"/>
       <use xlink:href="#ArialMT-38" transform="translate(83.398438 0.125)"/>
      </g>
     </g>
    </g>
    <g id="text_20">
     <!-- Accuracy -->
     <g style="fill: #262626" transform="translate(587.614107 538.64025) scale(0.18 -0.18)">
      <use xlink:href="#ArialMT-41"/>
      <use xlink:href="#ArialMT-63" transform="translate(66.699219 0)"/>
      <use xlink:href="#ArialMT-63" transform="translate(116.699219 0)"/>
      <use xlink:href="#ArialMT-75" transform="translate(166.699219 0)"/>
      <use xlink:href="#ArialMT-72" transform="translate(222.314453 0)"/>
      <use xlink:href="#ArialMT-61" transform="translate(255.615234 0)"/>
      <use xlink:href="#ArialMT-63" transform="translate(311.230469 0)"/>
      <use xlink:href="#ArialMT-79" transform="translate(361.230469 0)"/>
     </g>
    </g>
   </g>
   <g id="matplotlib.axis_4">
    <g id="ytick_9">
     <g id="line2d_21">
      <path d="M 466.349072 426.722595 
L 782.898516 426.722595 
" clip-path="url(#p1c5f5aea72)" style="fill: none; stroke: #cccccc; stroke-opacity: 0.3; stroke-linecap: round"/>
     </g>
     <g id="text_21">
      <!-- 1.5 -->
      <g style="fill: #262626" transform="translate(433.914072 432.62779) scale(0.165 -0.165)">
       <use xlink:href="#ArialMT-31"/>
       <use xlink:href="#ArialMT-2e" transform="translate(55.615234 0)"/>
       <use xlink:href="#ArialMT-35" transform="translate(83.398438 0)"/>
      </g>
     </g>
    </g>
    <g id="ytick_10">
     <g id="line2d_22">
      <path d="M 466.349072 362.536693 
L 782.898516 362.536693 
" clip-path="url(#p1c5f5aea72)" style="fill: none; stroke: #cccccc; stroke-opacity: 0.3; stroke-linecap: round"/>
     </g>
     <g id="text_22">
      <!-- 2.0 -->
      <g style="fill: #262626" transform="translate(433.914072 368.441888) scale(0.165 -0.165)">
       <use xlink:href="#ArialMT-32"/>
       <use xlink:href="#ArialMT-2e" transform="translate(55.615234 0)"/>
       <use xlink:href="#ArialMT-30" transform="translate(83.398438 0)"/>
      </g>
     </g>
    </g>
    <g id="ytick_11">
     <g id="line2d_23">
      <path d="M 466.349072 298.350791 
L 782.898516 298.350791 
" clip-path="url(#p1c5f5aea72)" style="fill: none; stroke: #cccccc; stroke-opacity: 0.3; stroke-linecap: round"/>
     </g>
     <g id="text_23">
      <!-- 2.5 -->
      <g style="fill: #262626" transform="translate(433.914072 304.255987) scale(0.165 -0.165)">
       <use xlink:href="#ArialMT-32"/>
       <use xlink:href="#ArialMT-2e" transform="translate(55.615234 0)"/>
       <use xlink:href="#ArialMT-35" transform="translate(83.398438 0)"/>
      </g>
     </g>
    </g>
    <g id="ytick_12">
     <g id="line2d_24">
      <path d="M 466.349072 234.16489 
L 782.898516 234.16489 
" clip-path="url(#p1c5f5aea72)" style="fill: none; stroke: #cccccc; stroke-opacity: 0.3; stroke-linecap: round"/>
     </g>
     <g id="text_24">
      <!-- 3.0 -->
      <g style="fill: #262626" transform="translate(433.914072 240.070085) scale(0.165 -0.165)">
       <defs>
        <path id="ArialMT-33" d="M 269 1209 
L 831 1284 
Q 928 806 1161 595 
Q 1394 384 1728 384 
Q 2125 384 2398 659 
Q 2672 934 2672 1341 
Q 2672 1728 2419 1979 
Q 2166 2231 1775 2231 
Q 1616 2231 1378 2169 
L 1441 2663 
Q 1497 2656 1531 2656 
Q 1891 2656 2178 2843 
Q 2466 3031 2466 3422 
Q 2466 3731 2256 3934 
Q 2047 4138 1716 4138 
Q 1388 4138 1169 3931 
Q 950 3725 888 3313 
L 325 3413 
Q 428 3978 793 4289 
Q 1159 4600 1703 4600 
Q 2078 4600 2393 4439 
Q 2709 4278 2876 4000 
Q 3044 3722 3044 3409 
Q 3044 3113 2884 2869 
Q 2725 2625 2413 2481 
Q 2819 2388 3044 2092 
Q 3269 1797 3269 1353 
Q 3269 753 2831 336 
Q 2394 -81 1725 -81 
Q 1122 -81 723 278 
Q 325 638 269 1209 
z
" transform="scale(0.015625)"/>
       </defs>
       <use xlink:href="#ArialMT-33"/>
       <use xlink:href="#ArialMT-2e" transform="translate(55.615234 0)"/>
       <use xlink:href="#ArialMT-30" transform="translate(83.398438 0)"/>
      </g>
     </g>
    </g>
    <g id="ytick_13">
     <g id="line2d_25">
      <path d="M 466.349072 169.978988 
L 782.898516 169.978988 
" clip-path="url(#p1c5f5aea72)" style="fill: none; stroke: #cccccc; stroke-opacity: 0.3; stroke-linecap: round"/>
     </g>
     <g id="text_25">
      <!-- 3.5 -->
      <g style="fill: #262626" transform="translate(433.914072 175.884183) scale(0.165 -0.165)">
       <use xlink:href="#ArialMT-33"/>
       <use xlink:href="#ArialMT-2e" transform="translate(55.615234 0)"/>
       <use xlink:href="#ArialMT-35" transform="translate(83.398438 0)"/>
      </g>
     </g>
    </g>
    <g id="ytick_14">
     <g id="line2d_26">
      <path d="M 466.349072 105.793086 
L 782.898516 105.793086 
" clip-path="url(#p1c5f5aea72)" style="fill: none; stroke: #cccccc; stroke-opacity: 0.3; stroke-linecap: round"/>
     </g>
     <g id="text_26">
      <!-- 4.0 -->
      <g style="fill: #262626" transform="translate(433.914072 111.698281) scale(0.165 -0.165)">
       <use xlink:href="#ArialMT-34"/>
       <use xlink:href="#ArialMT-2e" transform="translate(55.615234 0)"/>
       <use xlink:href="#ArialMT-30" transform="translate(83.398438 0)"/>
      </g>
     </g>
    </g>
    <g id="ytick_15">
     <g id="line2d_27">
      <path d="M 466.349072 41.607184 
L 782.898516 41.607184 
" clip-path="url(#p1c5f5aea72)" style="fill: none; stroke: #cccccc; stroke-opacity: 0.3; stroke-linecap: round"/>
     </g>
     <g id="text_27">
      <!-- 4.5 -->
      <g style="fill: #262626" transform="translate(433.914072 47.51238) scale(0.165 -0.165)">
       <use xlink:href="#ArialMT-34"/>
       <use xlink:href="#ArialMT-2e" transform="translate(55.615234 0)"/>
       <use xlink:href="#ArialMT-35" transform="translate(83.398438 0)"/>
      </g>
     </g>
    </g>
    <g id="text_28">
     <!-- Total Parameters -->
     <g style="fill: #262626" transform="translate(426.336572 326.326219) rotate(-90) scale(0.18 -0.18)">
      <defs>
       <path id="ArialMT-74" d="M 1650 503 
L 1731 6 
Q 1494 -44 1306 -44 
Q 1000 -44 831 53 
Q 663 150 594 308 
Q 525 466 525 972 
L 525 2881 
L 113 2881 
L 113 3319 
L 525 3319 
L 525 4141 
L 1084 4478 
L 1084 3319 
L 1650 3319 
L 1650 2881 
L 1084 2881 
L 1084 941 
Q 1084 700 1114 631 
Q 1144 563 1211 522 
Q 1278 481 1403 481 
Q 1497 481 1650 503 
z
" transform="scale(0.015625)"/>
       <path id="ArialMT-50" d="M 494 0 
L 494 4581 
L 2222 4581 
Q 2678 4581 2919 4538 
Q 3256 4481 3484 4323 
Q 3713 4166 3852 3881 
Q 3991 3597 3991 3256 
Q 3991 2672 3619 2267 
Q 3247 1863 2275 1863 
L 1100 1863 
L 1100 0 
L 494 0 
z
M 1100 2403 
L 2284 2403 
Q 2872 2403 3119 2622 
Q 3366 2841 3366 3238 
Q 3366 3525 3220 3729 
Q 3075 3934 2838 4000 
Q 2684 4041 2272 4041 
L 1100 4041 
L 1100 2403 
z
" transform="scale(0.015625)"/>
      </defs>
      <use xlink:href="#ArialMT-54"/>
      <use xlink:href="#ArialMT-6f" transform="translate(49.958984 0)"/>
      <use xlink:href="#ArialMT-74" transform="translate(105.574219 0)"/>
      <use xlink:href="#ArialMT-61" transform="translate(133.357422 0)"/>
      <use xlink:href="#ArialMT-6c" transform="translate(188.972656 0)"/>
      <use xlink:href="#ArialMT-20" transform="translate(211.189453 0)"/>
      <use xlink:href="#ArialMT-50" transform="translate(238.972656 0)"/>
      <use xlink:href="#ArialMT-61" transform="translate(305.671875 0)"/>
      <use xlink:href="#ArialMT-72" transform="translate(361.287109 0)"/>
      <use xlink:href="#ArialMT-61" transform="translate(394.587891 0)"/>
      <use xlink:href="#ArialMT-6d" transform="translate(450.203125 0)"/>
      <use xlink:href="#ArialMT-65" transform="translate(533.503906 0)"/>
      <use xlink:href="#ArialMT-74" transform="translate(589.119141 0)"/>
      <use xlink:href="#ArialMT-65" transform="translate(616.902344 0)"/>
      <use xlink:href="#ArialMT-72" transform="translate(672.517578 0)"/>
      <use xlink:href="#ArialMT-73" transform="translate(705.818359 0)"/>
     </g>
    </g>
    <g id="text_29">
     <!-- 1e7 -->
     <g style="fill: #262626" transform="translate(466.349072 23.303437) scale(0.165 -0.165)">
      <use xlink:href="#ArialMT-31"/>
      <use xlink:href="#ArialMT-65" transform="translate(55.615234 0)"/>
      <use xlink:href="#ArialMT-37" transform="translate(111.230469 0)"/>
     </g>
    </g>
   </g>
   <g id="line2d_28">
    <path d="M 535.815146 469.219926 
L 739.337912 291.200071 
L 751.525758 47.394699 
" clip-path="url(#p1c5f5aea72)" style="fill: none; stroke-dasharray: 9.25,4; stroke-dashoffset: 0; stroke: #f77189; stroke-width: 2.5"/>
   </g>
   <g id="line2d_29">
    <path d="M 656.667871 469.219926 
L 758.196402 291.200071 
L 768.509905 47.394699 
" clip-path="url(#p1c5f5aea72)" style="fill: none; stroke: #f77189; stroke-width: 2.5; stroke-linecap: round"/>
   </g>
   <g id="line2d_30">
    <path d="M 480.737684 469.219926 
L 680.362499 291.200071 
L 704.995683 47.394699 
" clip-path="url(#p1c5f5aea72)" style="fill: none; stroke-dasharray: 9.25,4; stroke-dashoffset: 0; stroke: #36ada4; stroke-width: 2.5"/>
   </g>
   <g id="line2d_31">
    <path d="M 610.507158 469.219926 
L 697.80631 291.200071 
L 721.275038 47.394699 
" clip-path="url(#p1c5f5aea72)" style="fill: none; stroke: #36ada4; stroke-width: 2.5; stroke-linecap: round"/>
   </g>
   <g id="patch_8">
    <path d="M 466.349072 490.311187 
L 466.349072 26.303437 
" style="fill: none; stroke: #cccccc; stroke-width: 1.25; stroke-linejoin: miter; stroke-linecap: square"/>
   </g>
   <g id="patch_9">
    <path d="M 782.898516 490.311187 
L 782.898516 26.303437 
" style="fill: none; stroke: #cccccc; stroke-width: 1.25; stroke-linejoin: miter; stroke-linecap: square"/>
   </g>
   <g id="patch_10">
    <path d="M 466.349072 490.311187 
L 782.898516 490.311187 
" style="fill: none; stroke: #cccccc; stroke-width: 1.25; stroke-linejoin: miter; stroke-linecap: square"/>
   </g>
   <g id="patch_11">
    <path d="M 466.349072 26.303437 
L 782.898516 26.303437 
" style="fill: none; stroke: #cccccc; stroke-width: 1.25; stroke-linejoin: miter; stroke-linecap: square"/>
   </g>
   <g id="text_30">
    <!-- Model Size vs Accuracy -->
    <g style="fill: #262626" transform="translate(522.922388 20.303437) scale(0.18 -0.18)">
     <defs>
      <path id="Arial-BoldMT-4d" d="M 453 0 
L 453 4581 
L 1838 4581 
L 2669 1456 
L 3491 4581 
L 4878 4581 
L 4878 0 
L 4019 0 
L 4019 3606 
L 3109 0 
L 2219 0 
L 1313 3606 
L 1313 0 
L 453 0 
z
" transform="scale(0.015625)"/>
      <path id="Arial-BoldMT-6f" d="M 256 1706 
Q 256 2144 472 2553 
Q 688 2963 1083 3178 
Q 1478 3394 1966 3394 
Q 2719 3394 3200 2905 
Q 3681 2416 3681 1669 
Q 3681 916 3195 420 
Q 2709 -75 1972 -75 
Q 1516 -75 1102 131 
Q 688 338 472 736 
Q 256 1134 256 1706 
z
M 1156 1659 
Q 1156 1166 1390 903 
Q 1625 641 1969 641 
Q 2313 641 2545 903 
Q 2778 1166 2778 1666 
Q 2778 2153 2545 2415 
Q 2313 2678 1969 2678 
Q 1625 2678 1390 2415 
Q 1156 2153 1156 1659 
z
" transform="scale(0.015625)"/>
      <path id="Arial-BoldMT-64" d="M 3503 0 
L 2688 0 
L 2688 488 
Q 2484 203 2207 64 
Q 1931 -75 1650 -75 
Q 1078 -75 670 386 
Q 263 847 263 1672 
Q 263 2516 659 2955 
Q 1056 3394 1663 3394 
Q 2219 3394 2625 2931 
L 2625 4581 
L 3503 4581 
L 3503 0 
z
M 1159 1731 
Q 1159 1200 1306 963 
Q 1519 619 1900 619 
Q 2203 619 2415 876 
Q 2628 1134 2628 1647 
Q 2628 2219 2422 2470 
Q 2216 2722 1894 2722 
Q 1581 2722 1370 2473 
Q 1159 2225 1159 1731 
z
" transform="scale(0.015625)"/>
      <path id="Arial-BoldMT-6c" d="M 459 0 
L 459 4581 
L 1338 4581 
L 1338 0 
L 459 0 
z
" transform="scale(0.015625)"/>
      <path id="Arial-BoldMT-53" d="M 231 1491 
L 1131 1578 
Q 1213 1125 1461 912 
Q 1709 700 2131 700 
Q 2578 700 2804 889 
Q 3031 1078 3031 1331 
Q 3031 1494 2936 1608 
Q 2841 1722 2603 1806 
Q 2441 1863 1863 2006 
Q 1119 2191 819 2459 
Q 397 2838 397 3381 
Q 397 3731 595 4036 
Q 794 4341 1167 4500 
Q 1541 4659 2069 4659 
Q 2931 4659 3367 4281 
Q 3803 3903 3825 3272 
L 2900 3231 
Q 2841 3584 2645 3739 
Q 2450 3894 2059 3894 
Q 1656 3894 1428 3728 
Q 1281 3622 1281 3444 
Q 1281 3281 1419 3166 
Q 1594 3019 2269 2859 
Q 2944 2700 3267 2529 
Q 3591 2359 3773 2064 
Q 3956 1769 3956 1334 
Q 3956 941 3737 597 
Q 3519 253 3119 86 
Q 2719 -81 2122 -81 
Q 1253 -81 787 320 
Q 322 722 231 1491 
z
" transform="scale(0.015625)"/>
      <path id="Arial-BoldMT-7a" d="M 106 0 
L 106 684 
L 1350 2113 
Q 1656 2463 1803 2609 
Q 1650 2600 1400 2597 
L 228 2591 
L 228 3319 
L 2972 3319 
L 2972 2697 
L 1703 1234 
L 1256 750 
Q 1622 772 1709 772 
L 3069 772 
L 3069 0 
L 106 0 
z
" transform="scale(0.015625)"/>
     </defs>
     <use xlink:href="#Arial-BoldMT-4d"/>
     <use xlink:href="#Arial-BoldMT-6f" transform="translate(83.300781 0)"/>
     <use xlink:href="#Arial-BoldMT-64" transform="translate(144.384766 0)"/>
     <use xlink:href="#Arial-BoldMT-65" transform="translate(205.46875 0)"/>
     <use xlink:href="#Arial-BoldMT-6c" transform="translate(261.083984 0)"/>
     <use xlink:href="#Arial-BoldMT-20" transform="translate(288.867188 0)"/>
     <use xlink:href="#Arial-BoldMT-53" transform="translate(316.650391 0)"/>
     <use xlink:href="#Arial-BoldMT-69" transform="translate(383.349609 0)"/>
     <use xlink:href="#Arial-BoldMT-7a" transform="translate(411.132812 0)"/>
     <use xlink:href="#Arial-BoldMT-65" transform="translate(461.132812 0)"/>
     <use xlink:href="#Arial-BoldMT-20" transform="translate(516.748047 0)"/>
     <use xlink:href="#Arial-BoldMT-76" transform="translate(544.53125 0)"/>
     <use xlink:href="#Arial-BoldMT-73" transform="translate(600.146484 0)"/>
     <use xlink:href="#Arial-BoldMT-20" transform="translate(655.761719 0)"/>
     <use xlink:href="#Arial-BoldMT-41" transform="translate(679.794922 0)"/>
     <use xlink:href="#Arial-BoldMT-63" transform="translate(752.011719 0)"/>
     <use xlink:href="#Arial-BoldMT-63" transform="translate(807.626953 0)"/>
     <use xlink:href="#Arial-BoldMT-75" transform="translate(863.242188 0)"/>
     <use xlink:href="#Arial-BoldMT-72" transform="translate(924.326172 0)"/>
     <use xlink:href="#Arial-BoldMT-61" transform="translate(963.242188 0)"/>
     <use xlink:href="#Arial-BoldMT-63" transform="translate(1018.857422 0)"/>
     <use xlink:href="#Arial-BoldMT-79" transform="translate(1074.472656 0)"/>
    </g>
   </g>
   <g id="PathCollection_13">
    <g clip-path="url(#p1c5f5aea72)">
     <use xlink:href="#m22d67be037" x="535.815146" y="469.219926" style="fill: #f77189; stroke: #f77189"/>
    </g>
   </g>
   <g id="PathCollection_14">
    <g clip-path="url(#p1c5f5aea72)">
     <use xlink:href="#m869ee174a1" x="739.337912" y="291.200071" style="fill: #f77189; stroke: #f77189"/>
    </g>
   </g>
   <g id="PathCollection_15">
    <g clip-path="url(#p1c5f5aea72)">
     <use xlink:href="#mb7b7da2adb" x="751.525758" y="47.394699" style="fill: #f77189; stroke: #f77189"/>
    </g>
   </g>
   <g id="PathCollection_16">
    <g clip-path="url(#p1c5f5aea72)">
     <use xlink:href="#m22d67be037" x="656.667871" y="469.219926" style="fill: #f77189; stroke: #f77189"/>
    </g>
   </g>
   <g id="PathCollection_17">
    <g clip-path="url(#p1c5f5aea72)">
     <use xlink:href="#m869ee174a1" x="758.196402" y="291.200071" style="fill: #f77189; stroke: #f77189"/>
    </g>
   </g>
   <g id="PathCollection_18">
    <g clip-path="url(#p1c5f5aea72)">
     <use xlink:href="#mb7b7da2adb" x="768.509905" y="47.394699" style="fill: #f77189; stroke: #f77189"/>
    </g>
   </g>
   <g id="PathCollection_19">
    <g clip-path="url(#p1c5f5aea72)">
     <use xlink:href="#m25c7c08c21" x="480.737684" y="469.219926" style="fill: #36ada4; stroke: #36ada4"/>
    </g>
   </g>
   <g id="PathCollection_20">
    <g clip-path="url(#p1c5f5aea72)">
     <use xlink:href="#m128081a823" x="680.362499" y="291.200071" style="fill: #36ada4; stroke: #36ada4"/>
    </g>
   </g>
   <g id="PathCollection_21">
    <g clip-path="url(#p1c5f5aea72)">
     <use xlink:href="#md4992a78a5" x="704.995683" y="47.394699" style="fill: #36ada4; stroke: #36ada4"/>
    </g>
   </g>
   <g id="PathCollection_22">
    <g clip-path="url(#p1c5f5aea72)">
     <use xlink:href="#m25c7c08c21" x="610.507158" y="469.219926" style="fill: #36ada4; stroke: #36ada4"/>
    </g>
   </g>
   <g id="PathCollection_23">
    <g clip-path="url(#p1c5f5aea72)">
     <use xlink:href="#m128081a823" x="697.80631" y="291.200071" style="fill: #36ada4; stroke: #36ada4"/>
    </g>
   </g>
   <g id="PathCollection_24">
    <g clip-path="url(#p1c5f5aea72)">
     <use xlink:href="#md4992a78a5" x="721.275038" y="47.394699" style="fill: #36ada4; stroke: #36ada4"/>
    </g>
   </g>
  </g>
  <g id="legend_1">
   <g id="patch_12">
    <path d="M 836.698516 362.153906 
L 945.120391 362.153906 
Q 947.120391 362.153906 947.120391 360.153906 
L 947.120391 191.292969 
Q 947.120391 189.292969 945.120391 189.292969 
L 836.698516 189.292969 
Q 834.698516 189.292969 834.698516 191.292969 
L 834.698516 360.153906 
Q 834.698516 362.153906 836.698516 362.153906 
z
" style="fill: #ffffff; opacity: 0.8; stroke: #cccccc; stroke-linejoin: miter"/>
   </g>
   <g id="line2d_32">
    <path d="M 838.698516 196.950781 
L 848.698516 196.950781 
L 858.698516 196.950781 
" style="fill: none"/>
   </g>
   <g id="text_31">
    <!-- Datasets: -->
    <g style="fill: #262626" transform="translate(866.698516 200.450781) scale(0.1 -0.1)">
     <defs>
      <path id="ArialMT-44" d="M 494 0 
L 494 4581 
L 2072 4581 
Q 2606 4581 2888 4516 
Q 3281 4425 3559 4188 
Q 3922 3881 4101 3404 
Q 4281 2928 4281 2316 
Q 4281 1794 4159 1391 
Q 4038 988 3847 723 
Q 3656 459 3429 307 
Q 3203 156 2883 78 
Q 2563 0 2147 0 
L 494 0 
z
M 1100 541 
L 2078 541 
Q 2531 541 2789 625 
Q 3047 709 3200 863 
Q 3416 1078 3536 1442 
Q 3656 1806 3656 2325 
Q 3656 3044 3420 3430 
Q 3184 3816 2847 3947 
Q 2603 4041 2063 4041 
L 1100 4041 
L 1100 541 
z
" transform="scale(0.015625)"/>
      <path id="ArialMT-3a" d="M 578 2678 
L 578 3319 
L 1219 3319 
L 1219 2678 
L 578 2678 
z
M 578 0 
L 578 641 
L 1219 641 
L 1219 0 
L 578 0 
z
" transform="scale(0.015625)"/>
     </defs>
     <use xlink:href="#ArialMT-44"/>
     <use xlink:href="#ArialMT-61" transform="translate(72.216797 0)"/>
     <use xlink:href="#ArialMT-74" transform="translate(127.832031 0)"/>
     <use xlink:href="#ArialMT-61" transform="translate(155.615234 0)"/>
     <use xlink:href="#ArialMT-73" transform="translate(211.230469 0)"/>
     <use xlink:href="#ArialMT-65" transform="translate(261.230469 0)"/>
     <use xlink:href="#ArialMT-74" transform="translate(316.845703 0)"/>
     <use xlink:href="#ArialMT-73" transform="translate(344.628906 0)"/>
     <use xlink:href="#ArialMT-3a" transform="translate(394.628906 0)"/>
    </g>
   </g>
   <g id="line2d_33">
    <path d="M 838.698516 211.096094 
L 848.698516 211.096094 
L 858.698516 211.096094 
" style="fill: none; stroke: #f77189; stroke-width: 2.5; stroke-linecap: round"/>
   </g>
   <g id="text_32">
    <!--   full -->
    <g style="fill: #262626" transform="translate(866.698516 214.596094) scale(0.1 -0.1)">
     <defs>
      <path id="ArialMT-66" d="M 556 0 
L 556 2881 
L 59 2881 
L 59 3319 
L 556 3319 
L 556 3672 
Q 556 4006 616 4169 
Q 697 4388 901 4523 
Q 1106 4659 1475 4659 
Q 1713 4659 2000 4603 
L 1916 4113 
Q 1741 4144 1584 4144 
Q 1328 4144 1222 4034 
Q 1116 3925 1116 3625 
L 1116 3319 
L 1763 3319 
L 1763 2881 
L 1116 2881 
L 1116 0 
L 556 0 
z
" transform="scale(0.015625)"/>
     </defs>
     <use xlink:href="#ArialMT-20"/>
     <use xlink:href="#ArialMT-20" transform="translate(27.783203 0)"/>
     <use xlink:href="#ArialMT-66" transform="translate(55.566406 0)"/>
     <use xlink:href="#ArialMT-75" transform="translate(83.349609 0)"/>
     <use xlink:href="#ArialMT-6c" transform="translate(138.964844 0)"/>
     <use xlink:href="#ArialMT-6c" transform="translate(161.181641 0)"/>
    </g>
   </g>
   <g id="line2d_34">
    <path d="M 838.698516 225.241406 
L 848.698516 225.241406 
L 858.698516 225.241406 
" style="fill: none; stroke: #36ada4; stroke-width: 2.5; stroke-linecap: round"/>
   </g>
   <g id="text_33">
    <!--   bbox -->
    <g style="fill: #262626" transform="translate(866.698516 228.741406) scale(0.1 -0.1)">
     <defs>
      <path id="ArialMT-62" d="M 941 0 
L 419 0 
L 419 4581 
L 981 4581 
L 981 2947 
Q 1338 3394 1891 3394 
Q 2197 3394 2470 3270 
Q 2744 3147 2920 2923 
Q 3097 2700 3197 2384 
Q 3297 2069 3297 1709 
Q 3297 856 2875 390 
Q 2453 -75 1863 -75 
Q 1275 -75 941 416 
L 941 0 
z
M 934 1684 
Q 934 1088 1097 822 
Q 1363 388 1816 388 
Q 2184 388 2453 708 
Q 2722 1028 2722 1663 
Q 2722 2313 2464 2622 
Q 2206 2931 1841 2931 
Q 1472 2931 1203 2611 
Q 934 2291 934 1684 
z
" transform="scale(0.015625)"/>
      <path id="ArialMT-78" d="M 47 0 
L 1259 1725 
L 138 3319 
L 841 3319 
L 1350 2541 
Q 1494 2319 1581 2169 
Q 1719 2375 1834 2534 
L 2394 3319 
L 3066 3319 
L 1919 1756 
L 3153 0 
L 2463 0 
L 1781 1031 
L 1600 1309 
L 728 0 
L 47 0 
z
" transform="scale(0.015625)"/>
     </defs>
     <use xlink:href="#ArialMT-20"/>
     <use xlink:href="#ArialMT-20" transform="translate(27.783203 0)"/>
     <use xlink:href="#ArialMT-62" transform="translate(55.566406 0)"/>
     <use xlink:href="#ArialMT-62" transform="translate(111.181641 0)"/>
     <use xlink:href="#ArialMT-6f" transform="translate(166.796875 0)"/>
     <use xlink:href="#ArialMT-78" transform="translate(222.412109 0)"/>
    </g>
   </g>
   <g id="line2d_35">
    <path d="M 838.698516 239.386719 
L 848.698516 239.386719 
L 858.698516 239.386719 
" style="fill: none"/>
   </g>
   <g id="line2d_36">
    <path d="M 838.698516 253.532031 
L 848.698516 253.532031 
L 858.698516 253.532031 
" style="fill: none"/>
   </g>
   <g id="text_34">
    <!-- Masking: -->
    <g style="fill: #262626" transform="translate(866.698516 257.032031) scale(0.1 -0.1)">
     <defs>
      <path id="ArialMT-4d" d="M 475 0 
L 475 4581 
L 1388 4581 
L 2472 1338 
Q 2622 884 2691 659 
Q 2769 909 2934 1394 
L 4031 4581 
L 4847 4581 
L 4847 0 
L 4263 0 
L 4263 3834 
L 2931 0 
L 2384 0 
L 1059 3900 
L 1059 0 
L 475 0 
z
" transform="scale(0.015625)"/>
      <path id="ArialMT-6e" d="M 422 0 
L 422 3319 
L 928 3319 
L 928 2847 
Q 1294 3394 1984 3394 
Q 2284 3394 2536 3286 
Q 2788 3178 2913 3003 
Q 3038 2828 3088 2588 
Q 3119 2431 3119 2041 
L 3119 0 
L 2556 0 
L 2556 2019 
Q 2556 2363 2490 2533 
Q 2425 2703 2258 2804 
Q 2091 2906 1866 2906 
Q 1506 2906 1245 2678 
Q 984 2450 984 1813 
L 984 0 
L 422 0 
z
" transform="scale(0.015625)"/>
     </defs>
     <use xlink:href="#ArialMT-4d"/>
     <use xlink:href="#ArialMT-61" transform="translate(83.300781 0)"/>
     <use xlink:href="#ArialMT-73" transform="translate(138.916016 0)"/>
     <use xlink:href="#ArialMT-6b" transform="translate(188.916016 0)"/>
     <use xlink:href="#ArialMT-69" transform="translate(238.916016 0)"/>
     <use xlink:href="#ArialMT-6e" transform="translate(261.132812 0)"/>
     <use xlink:href="#ArialMT-67" transform="translate(316.748047 0)"/>
     <use xlink:href="#ArialMT-3a" transform="translate(372.363281 0)"/>
    </g>
   </g>
   <g id="line2d_37">
    <path d="M 838.698516 267.794531 
L 848.698516 267.794531 
L 858.698516 267.794531 
" style="fill: none; stroke: #000000; stroke-width: 2.5; stroke-linecap: round"/>
   </g>
   <g id="text_35">
    <!--   do_mask=False -->
    <g style="fill: #262626" transform="translate(866.698516 271.294531) scale(0.1 -0.1)">
     <defs>
      <path id="ArialMT-64" d="M 2575 0 
L 2575 419 
Q 2259 -75 1647 -75 
Q 1250 -75 917 144 
Q 584 363 401 755 
Q 219 1147 219 1656 
Q 219 2153 384 2558 
Q 550 2963 881 3178 
Q 1213 3394 1622 3394 
Q 1922 3394 2156 3267 
Q 2391 3141 2538 2938 
L 2538 4581 
L 3097 4581 
L 3097 0 
L 2575 0 
z
M 797 1656 
Q 797 1019 1065 703 
Q 1334 388 1700 388 
Q 2069 388 2326 689 
Q 2584 991 2584 1609 
Q 2584 2291 2321 2609 
Q 2059 2928 1675 2928 
Q 1300 2928 1048 2622 
Q 797 2316 797 1656 
z
" transform="scale(0.015625)"/>
      <path id="ArialMT-5f" d="M -97 -1272 
L -97 -866 
L 3631 -866 
L 3631 -1272 
L -97 -1272 
z
" transform="scale(0.015625)"/>
      <path id="ArialMT-3d" d="M 3381 2694 
L 356 2694 
L 356 3219 
L 3381 3219 
L 3381 2694 
z
M 3381 1303 
L 356 1303 
L 356 1828 
L 3381 1828 
L 3381 1303 
z
" transform="scale(0.015625)"/>
      <path id="ArialMT-46" d="M 525 0 
L 525 4581 
L 3616 4581 
L 3616 4041 
L 1131 4041 
L 1131 2622 
L 3281 2622 
L 3281 2081 
L 1131 2081 
L 1131 0 
L 525 0 
z
" transform="scale(0.015625)"/>
     </defs>
     <use xlink:href="#ArialMT-20"/>
     <use xlink:href="#ArialMT-20" transform="translate(27.783203 0)"/>
     <use xlink:href="#ArialMT-64" transform="translate(55.566406 0)"/>
     <use xlink:href="#ArialMT-6f" transform="translate(111.181641 0)"/>
     <use xlink:href="#ArialMT-5f" transform="translate(166.796875 0)"/>
     <use xlink:href="#ArialMT-6d" transform="translate(222.412109 0)"/>
     <use xlink:href="#ArialMT-61" transform="translate(305.712891 0)"/>
     <use xlink:href="#ArialMT-73" transform="translate(361.328125 0)"/>
     <use xlink:href="#ArialMT-6b" transform="translate(411.328125 0)"/>
     <use xlink:href="#ArialMT-3d" transform="translate(461.328125 0)"/>
     <use xlink:href="#ArialMT-46" transform="translate(519.726562 0)"/>
     <use xlink:href="#ArialMT-61" transform="translate(580.810547 0)"/>
     <use xlink:href="#ArialMT-6c" transform="translate(636.425781 0)"/>
     <use xlink:href="#ArialMT-73" transform="translate(658.642578 0)"/>
     <use xlink:href="#ArialMT-65" transform="translate(708.642578 0)"/>
    </g>
   </g>
   <g id="line2d_38">
    <path d="M 838.698516 281.939844 
L 848.698516 281.939844 
L 858.698516 281.939844 
" style="fill: none; stroke-dasharray: 9.25,4; stroke-dashoffset: 0; stroke: #000000; stroke-width: 2.5"/>
   </g>
   <g id="text_36">
    <!--   do_mask=True -->
    <g style="fill: #262626" transform="translate(866.698516 285.439844) scale(0.1 -0.1)">
     <use xlink:href="#ArialMT-20"/>
     <use xlink:href="#ArialMT-20" transform="translate(27.783203 0)"/>
     <use xlink:href="#ArialMT-64" transform="translate(55.566406 0)"/>
     <use xlink:href="#ArialMT-6f" transform="translate(111.181641 0)"/>
     <use xlink:href="#ArialMT-5f" transform="translate(166.796875 0)"/>
     <use xlink:href="#ArialMT-6d" transform="translate(222.412109 0)"/>
     <use xlink:href="#ArialMT-61" transform="translate(305.712891 0)"/>
     <use xlink:href="#ArialMT-73" transform="translate(361.328125 0)"/>
     <use xlink:href="#ArialMT-6b" transform="translate(411.328125 0)"/>
     <use xlink:href="#ArialMT-3d" transform="translate(461.328125 0)"/>
     <use xlink:href="#ArialMT-54" transform="translate(519.726562 0)"/>
     <use xlink:href="#ArialMT-72" transform="translate(577.060547 0)"/>
     <use xlink:href="#ArialMT-75" transform="translate(610.361328 0)"/>
     <use xlink:href="#ArialMT-65" transform="translate(665.976562 0)"/>
    </g>
   </g>
   <g id="line2d_39">
    <path d="M 838.698516 296.085156 
L 848.698516 296.085156 
L 858.698516 296.085156 
" style="fill: none"/>
   </g>
   <g id="line2d_40">
    <path d="M 838.698516 310.230469 
L 848.698516 310.230469 
L 858.698516 310.230469 
" style="fill: none"/>
   </g>
   <g id="text_37">
    <!-- Models: -->
    <g style="fill: #262626" transform="translate(866.698516 313.730469) scale(0.1 -0.1)">
     <use xlink:href="#ArialMT-4d"/>
     <use xlink:href="#ArialMT-6f" transform="translate(83.300781 0)"/>
     <use xlink:href="#ArialMT-64" transform="translate(138.916016 0)"/>
     <use xlink:href="#ArialMT-65" transform="translate(194.53125 0)"/>
     <use xlink:href="#ArialMT-6c" transform="translate(250.146484 0)"/>
     <use xlink:href="#ArialMT-73" transform="translate(272.363281 0)"/>
     <use xlink:href="#ArialMT-3a" transform="translate(322.363281 0)"/>
    </g>
   </g>
   <g id="line2d_41">
    <defs>
     <path id="mcd7aeb5c8d" d="M 0 4 
C 1.060812 4 2.078319 3.578535 2.828427 2.828427 
C 3.578535 2.078319 4 1.060812 4 0 
C 4 -1.060812 3.578535 -2.078319 2.828427 -2.828427 
C 2.078319 -3.578535 1.060812 -4 0 -4 
C -1.060812 -4 -2.078319 -3.578535 -2.828427 -2.828427 
C -3.578535 -2.078319 -4 -1.060812 -4 0 
C -4 1.060812 -3.578535 2.078319 -2.828427 2.828427 
C -2.078319 3.578535 -1.060812 4 0 4 
z
" style="stroke: #000000"/>
    </defs>
    <g>
     <use xlink:href="#mcd7aeb5c8d" x="848.698516" y="324.375781" style="stroke: #000000"/>
    </g>
   </g>
   <g id="text_38">
    <!--   resnet18 -->
    <g style="fill: #262626" transform="translate(866.698516 327.875781) scale(0.1 -0.1)">
     <use xlink:href="#ArialMT-20"/>
     <use xlink:href="#ArialMT-20" transform="translate(27.783203 0)"/>
     <use xlink:href="#ArialMT-72" transform="translate(55.566406 0)"/>
     <use xlink:href="#ArialMT-65" transform="translate(88.867188 0)"/>
     <use xlink:href="#ArialMT-73" transform="translate(144.482422 0)"/>
     <use xlink:href="#ArialMT-6e" transform="translate(194.482422 0)"/>
     <use xlink:href="#ArialMT-65" transform="translate(250.097656 0)"/>
     <use xlink:href="#ArialMT-74" transform="translate(305.712891 0)"/>
     <use xlink:href="#ArialMT-31" transform="translate(333.496094 0)"/>
     <use xlink:href="#ArialMT-38" transform="translate(389.111328 0)"/>
    </g>
   </g>
   <g id="line2d_42">
    <defs>
     <path id="m4f26323404" d="M -4 4 
L 4 4 
L 4 -4 
L -4 -4 
z
" style="stroke: #000000; stroke-linejoin: miter"/>
    </defs>
    <g>
     <use xlink:href="#m4f26323404" x="848.698516" y="338.521094" style="stroke: #000000; stroke-linejoin: miter"/>
    </g>
   </g>
   <g id="text_39">
    <!--   resnet50 -->
    <g style="fill: #262626" transform="translate(866.698516 342.021094) scale(0.1 -0.1)">
     <use xlink:href="#ArialMT-20"/>
     <use xlink:href="#ArialMT-20" transform="translate(27.783203 0)"/>
     <use xlink:href="#ArialMT-72" transform="translate(55.566406 0)"/>
     <use xlink:href="#ArialMT-65" transform="translate(88.867188 0)"/>
     <use xlink:href="#ArialMT-73" transform="translate(144.482422 0)"/>
     <use xlink:href="#ArialMT-6e" transform="translate(194.482422 0)"/>
     <use xlink:href="#ArialMT-65" transform="translate(250.097656 0)"/>
     <use xlink:href="#ArialMT-74" transform="translate(305.712891 0)"/>
     <use xlink:href="#ArialMT-35" transform="translate(333.496094 0)"/>
     <use xlink:href="#ArialMT-30" transform="translate(389.111328 0)"/>
    </g>
   </g>
   <g id="line2d_43">
    <defs>
     <path id="m034a1f618a" d="M 0 -4 
L -4 4 
L 4 4 
z
" style="stroke: #000000; stroke-linejoin: miter"/>
    </defs>
    <g>
     <use xlink:href="#m034a1f618a" x="848.698516" y="352.666406" style="stroke: #000000; stroke-linejoin: miter"/>
    </g>
   </g>
   <g id="text_40">
    <!--   resnet101 -->
    <g style="fill: #262626" transform="translate(866.698516 356.166406) scale(0.1 -0.1)">
     <use xlink:href="#ArialMT-20"/>
     <use xlink:href="#ArialMT-20" transform="translate(27.783203 0)"/>
     <use xlink:href="#ArialMT-72" transform="translate(55.566406 0)"/>
     <use xlink:href="#ArialMT-65" transform="translate(88.867188 0)"/>
     <use xlink:href="#ArialMT-73" transform="translate(144.482422 0)"/>
     <use xlink:href="#ArialMT-6e" transform="translate(194.482422 0)"/>
     <use xlink:href="#ArialMT-65" transform="translate(250.097656 0)"/>
     <use xlink:href="#ArialMT-74" transform="translate(305.712891 0)"/>
     <use xlink:href="#ArialMT-31" transform="translate(333.496094 0)"/>
     <use xlink:href="#ArialMT-30" transform="translate(389.111328 0)"/>
     <use xlink:href="#ArialMT-31" transform="translate(444.726562 0)"/>
    </g>
   </g>
  </g>
 </g>
 <defs>
  <clipPath id="p5463c8e54c">
   <rect x="88.053516" y="26.303437" width="316.549443" height="464.00775"/>
  </clipPath>
  <clipPath id="p1c5f5aea72">
   <rect x="466.349072" y="26.303437" width="316.549443" height="464.00775"/>
  </clipPath>
 </defs>
</svg>
