<?xml version="1.0" encoding="utf-8" standalone="no"?>
<!DOCTYPE svg PUBLIC "-//W3C//DTD SVG 1.1//EN"
  "http://www.w3.org/Graphics/SVG/1.1/DTD/svg11.dtd">
<svg xmlns:xlink="http://www.w3.org/1999/xlink" width="525.400422pt" height="436.275564pt" viewBox="0 0 525.400422 436.275564" xmlns="http://www.w3.org/2000/svg" version="1.1">
 <metadata>
  <rdf:RDF xmlns:dc="http://purl.org/dc/elements/1.1/" xmlns:cc="http://creativecommons.org/ns#" xmlns:rdf="http://www.w3.org/1999/02/22-rdf-syntax-ns#">
   <cc:Work>
    <dc:type rdf:resource="http://purl.org/dc/dcmitype/StillImage"/>
    <dc:date>2025-12-05T09:57:42.218805</dc:date>
    <dc:format>image/svg+xml</dc:format>
    <dc:creator>
     <cc:Agent>
      <dc:title>Matplotlib v3.10.7, https://matplotlib.org/</dc:title>
     </cc:Agent>
    </dc:creator>
   </cc:Work>
  </rdf:RDF>
 </metadata>
 <defs>
  <style type="text/css">*{stroke-linejoin: round; stroke-linecap: butt}</style>
 </defs>
 <g id="figure_1">
  <g id="patch_1">
   <path d="M 0 436.275564 
L 525.400422 436.275564 
L 525.400422 -0 
L 0 -0 
z
" style="fill: #ffffff"/>
  </g>
  <g id="axes_1">
   <g id="patch_2">
    <path d="M 414.54783 218.137782 
C 414.54783 193.595232 409.713483 169.291326 400.321455 146.616966 
C 390.929428 123.942606 377.162371 103.33875 359.808167 85.984546 
C 342.453963 68.630342 321.850107 54.863285 299.175747 45.471258 
C 276.501387 36.07923 252.197481 31.244883 227.654931 31.244883 
C 203.11238 31.244883 178.808475 36.07923 156.134114 45.471258 
C 133.459754 54.863285 112.855898 68.630342 95.501694 85.984546 
C 78.14749 103.33875 64.380434 123.942606 54.988406 146.616966 
C 45.596379 169.291326 40.762031 193.595232 40.762031 218.137782 
C 40.762031 242.680333 45.596379 266.984238 54.988406 289.658598 
C 64.380434 312.332959 78.14749 332.936815 95.501694 350.291019 
C 112.855898 367.645223 133.459754 381.412279 156.134114 390.804307 
C 178.808475 400.196334 203.11238 405.030682 227.654931 405.030682 
C 252.197481 405.030682 276.501387 400.196334 299.175747 390.804307 
C 321.850107 381.412279 342.453963 367.645223 359.808167 350.291019 
C 377.162371 332.936815 390.929428 312.332959 400.321455 289.658598 
C 409.713483 266.984238 414.54783 242.680333 414.54783 218.137782 
M 227.654931 218.137782 
C 227.654931 218.137782 227.654931 218.137782 227.654931 218.137782 
C 227.654931 218.137782 227.654931 218.137782 227.654931 218.137782 
C 227.654931 218.137782 227.654931 218.137782 227.654931 218.137782 
C 227.654931 218.137782 227.654931 218.137782 227.654931 218.137782 
C 227.654931 218.137782 227.654931 218.137782 227.654931 218.137782 
C 227.654931 218.137782 227.654931 218.137782 227.654931 218.137782 
C 227.654931 218.137782 227.654931 218.137782 227.654931 218.137782 
C 227.654931 218.137782 227.654931 218.137782 227.654931 218.137782 
C 227.654931 218.137782 227.654931 218.137782 227.654931 218.137782 
C 227.654931 218.137782 227.654931 218.137782 227.654931 218.137782 
C 227.654931 218.137782 227.654931 218.137782 227.654931 218.137782 
C 227.654931 218.137782 227.654931 218.137782 227.654931 218.137782 
C 227.654931 218.137782 227.654931 218.137782 227.654931 218.137782 
C 227.654931 218.137782 227.654931 218.137782 227.654931 218.137782 
C 227.654931 218.137782 227.654931 218.137782 227.654931 218.137782 
C 227.654931 218.137782 227.654931 218.137782 227.654931 218.137782 
z
" style="fill: #ffffff"/>
   </g>
   <g id="matplotlib.axis_1">
    <g id="xtick_1">
     <g id="line2d_1">
      <path d="M 227.654931 218.137782 
L 227.654931 31.244883 
" clip-path="url(#p750ceeb36e)" style="fill: none; stroke: #cccccc; stroke-linecap: round"/>
     </g>
     <g id="text_1">
      <!-- 0° -->
      <g style="fill: #262626" transform="translate(219.768446 19.010391) scale(0.165 -0.165)">
       <defs>
        <path id="ArialMT-30" d="M 266 2259 
Q 266 3072 433 3567 
Q 600 4063 929 4331 
Q 1259 4600 1759 4600 
Q 2128 4600 2406 4451 
Q 2684 4303 2865 4023 
Q 3047 3744 3150 3342 
Q 3253 2941 3253 2259 
Q 3253 1453 3087 958 
Q 2922 463 2592 192 
Q 2263 -78 1759 -78 
Q 1097 -78 719 397 
Q 266 969 266 2259 
z
M 844 2259 
Q 844 1131 1108 757 
Q 1372 384 1759 384 
Q 2147 384 2411 759 
Q 2675 1134 2675 2259 
Q 2675 3391 2411 3762 
Q 2147 4134 1753 4134 
Q 1366 4134 1134 3806 
Q 844 3388 844 2259 
z
" transform="scale(0.015625)"/>
        <path id="ArialMT-b0" d="M 400 3794 
Q 400 4153 654 4406 
Q 909 4659 1266 4659 
Q 1628 4659 1881 4406 
Q 2134 4153 2134 3794 
Q 2134 3434 1879 3179 
Q 1625 2925 1266 2925 
Q 909 2925 654 3178 
Q 400 3431 400 3794 
z
M 741 3794 
Q 741 3575 895 3420 
Q 1050 3266 1269 3266 
Q 1484 3266 1639 3420 
Q 1794 3575 1794 3794 
Q 1794 4013 1639 4167 
Q 1484 4322 1269 4322 
Q 1050 4322 895 4167 
Q 741 4013 741 3794 
z
" transform="scale(0.015625)"/>
       </defs>
       <use xlink:href="#ArialMT-30"/>
       <use xlink:href="#ArialMT-b0" transform="translate(55.615234 0)"/>
      </g>
     </g>
    </g>
    <g id="xtick_2">
     <g id="line2d_2">
      <path d="M 227.654931 218.137782 
L 321.10138 56.283784 
" clip-path="url(#p750ceeb36e)" style="fill: none; stroke: #cccccc; stroke-linecap: round"/>
     </g>
     <g id="text_2">
      <!-- 30° -->
      <g style="fill: #262626" transform="translate(316.877122 46.259872) scale(0.165 -0.165)">
       <defs>
        <path id="ArialMT-33" d="M 269 1209 
L 831 1284 
Q 928 806 1161 595 
Q 1394 384 1728 384 
Q 2125 384 2398 659 
Q 2672 934 2672 1341 
Q 2672 1728 2419 1979 
Q 2166 2231 1775 2231 
Q 1616 2231 1378 2169 
L 1441 2663 
Q 1497 2656 1531 2656 
Q 1891 2656 2178 2843 
Q 2466 3031 2466 3422 
Q 2466 3731 2256 3934 
Q 2047 4138 1716 4138 
Q 1388 4138 1169 3931 
Q 950 3725 888 3313 
L 325 3413 
Q 428 3978 793 4289 
Q 1159 4600 1703 4600 
Q 2078 4600 2393 4439 
Q 2709 4278 2876 4000 
Q 3044 3722 3044 3409 
Q 3044 3113 2884 2869 
Q 2725 2625 2413 2481 
Q 2819 2388 3044 2092 
Q 3269 1797 3269 1353 
Q 3269 753 2831 336 
Q 2394 -81 1725 -81 
Q 1122 -81 723 278 
Q 325 638 269 1209 
z
" transform="scale(0.015625)"/>
       </defs>
       <use xlink:href="#ArialMT-33"/>
       <use xlink:href="#ArialMT-30" transform="translate(55.615234 0)"/>
       <use xlink:href="#ArialMT-b0" transform="translate(111.230469 0)"/>
      </g>
     </g>
    </g>
    <g id="xtick_3">
     <g id="line2d_3">
      <path d="M 227.654931 218.137782 
L 389.508929 124.691332 
" clip-path="url(#p750ceeb36e)" style="fill: none; stroke: #cccccc; stroke-linecap: round"/>
     </g>
     <g id="text_3">
      <!-- 60° -->
      <g style="fill: #262626" transform="translate(391.324091 120.70684) scale(0.165 -0.165)">
       <defs>
        <path id="ArialMT-36" d="M 3184 3459 
L 2625 3416 
Q 2550 3747 2413 3897 
Q 2184 4138 1850 4138 
Q 1581 4138 1378 3988 
Q 1113 3794 959 3422 
Q 806 3050 800 2363 
Q 1003 2672 1297 2822 
Q 1591 2972 1913 2972 
Q 2475 2972 2870 2558 
Q 3266 2144 3266 1488 
Q 3266 1056 3080 686 
Q 2894 316 2569 119 
Q 2244 -78 1831 -78 
Q 1128 -78 684 439 
Q 241 956 241 2144 
Q 241 3472 731 4075 
Q 1159 4600 1884 4600 
Q 2425 4600 2770 4297 
Q 3116 3994 3184 3459 
z
M 888 1484 
Q 888 1194 1011 928 
Q 1134 663 1356 523 
Q 1578 384 1822 384 
Q 2178 384 2434 671 
Q 2691 959 2691 1453 
Q 2691 1928 2437 2201 
Q 2184 2475 1800 2475 
Q 1419 2475 1153 2201 
Q 888 1928 888 1484 
z
" transform="scale(0.015625)"/>
       </defs>
       <use xlink:href="#ArialMT-36"/>
       <use xlink:href="#ArialMT-30" transform="translate(55.615234 0)"/>
       <use xlink:href="#ArialMT-b0" transform="translate(111.230469 0)"/>
      </g>
     </g>
    </g>
    <g id="xtick_4">
     <g id="line2d_4">
      <path d="M 227.654931 218.137782 
L 414.54783 218.137782 
" clip-path="url(#p750ceeb36e)" style="fill: none; stroke: #cccccc; stroke-linecap: round"/>
     </g>
     <g id="text_4">
      <!-- 90° -->
      <g style="fill: #262626" transform="translate(418.573572 222.40329) scale(0.165 -0.165)">
       <defs>
        <path id="ArialMT-39" d="M 350 1059 
L 891 1109 
Q 959 728 1153 556 
Q 1347 384 1650 384 
Q 1909 384 2104 503 
Q 2300 622 2425 820 
Q 2550 1019 2634 1356 
Q 2719 1694 2719 2044 
Q 2719 2081 2716 2156 
Q 2547 1888 2255 1720 
Q 1963 1553 1622 1553 
Q 1053 1553 659 1965 
Q 266 2378 266 3053 
Q 266 3750 677 4175 
Q 1088 4600 1706 4600 
Q 2153 4600 2523 4359 
Q 2894 4119 3086 3673 
Q 3278 3228 3278 2384 
Q 3278 1506 3087 986 
Q 2897 466 2520 194 
Q 2144 -78 1638 -78 
Q 1100 -78 759 220 
Q 419 519 350 1059 
z
M 2653 3081 
Q 2653 3566 2395 3850 
Q 2138 4134 1775 4134 
Q 1400 4134 1122 3828 
Q 844 3522 844 3034 
Q 844 2597 1108 2323 
Q 1372 2050 1759 2050 
Q 2150 2050 2401 2323 
Q 2653 2597 2653 3081 
z
" transform="scale(0.015625)"/>
       </defs>
       <use xlink:href="#ArialMT-39"/>
       <use xlink:href="#ArialMT-30" transform="translate(55.615234 0)"/>
       <use xlink:href="#ArialMT-b0" transform="translate(111.230469 0)"/>
      </g>
     </g>
    </g>
    <g id="xtick_5">
     <g id="line2d_5">
      <path d="M 227.654931 218.137782 
L 389.508929 311.584232 
" clip-path="url(#p750ceeb36e)" style="fill: none; stroke: #cccccc; stroke-linecap: round"/>
     </g>
     <g id="text_5">
      <!-- 120° -->
      <g style="fill: #262626" transform="translate(386.736317 324.09974) scale(0.165 -0.165)">
       <defs>
        <path id="ArialMT-31" d="M 2384 0 
L 1822 0 
L 1822 3584 
Q 1619 3391 1289 3197 
Q 959 3003 697 2906 
L 697 3450 
Q 1169 3672 1522 3987 
Q 1875 4303 2022 4600 
L 2384 4600 
L 2384 0 
z
" transform="scale(0.015625)"/>
        <path id="ArialMT-32" d="M 3222 541 
L 3222 0 
L 194 0 
Q 188 203 259 391 
Q 375 700 629 1000 
Q 884 1300 1366 1694 
Q 2113 2306 2375 2664 
Q 2638 3022 2638 3341 
Q 2638 3675 2398 3904 
Q 2159 4134 1775 4134 
Q 1369 4134 1125 3890 
Q 881 3647 878 3216 
L 300 3275 
Q 359 3922 746 4261 
Q 1134 4600 1788 4600 
Q 2447 4600 2831 4234 
Q 3216 3869 3216 3328 
Q 3216 3053 3103 2787 
Q 2991 2522 2730 2228 
Q 2469 1934 1863 1422 
Q 1356 997 1212 845 
Q 1069 694 975 541 
L 3222 541 
z
" transform="scale(0.015625)"/>
       </defs>
       <use xlink:href="#ArialMT-31"/>
       <use xlink:href="#ArialMT-32" transform="translate(55.615234 0)"/>
       <use xlink:href="#ArialMT-30" transform="translate(111.230469 0)"/>
       <use xlink:href="#ArialMT-b0" transform="translate(166.845703 0)"/>
      </g>
     </g>
    </g>
    <g id="xtick_6">
     <g id="line2d_6">
      <path d="M 227.654931 218.137782 
L 321.10138 379.991781 
" clip-path="url(#p750ceeb36e)" style="fill: none; stroke: #cccccc; stroke-linecap: round"/>
     </g>
     <g id="text_6">
      <!-- 150° -->
      <g style="fill: #262626" transform="translate(312.289349 398.546708) scale(0.165 -0.165)">
       <defs>
        <path id="ArialMT-35" d="M 266 1200 
L 856 1250 
Q 922 819 1161 601 
Q 1400 384 1738 384 
Q 2144 384 2425 690 
Q 2706 997 2706 1503 
Q 2706 1984 2436 2262 
Q 2166 2541 1728 2541 
Q 1456 2541 1237 2417 
Q 1019 2294 894 2097 
L 366 2166 
L 809 4519 
L 3088 4519 
L 3088 3981 
L 1259 3981 
L 1013 2750 
Q 1425 3038 1878 3038 
Q 2478 3038 2890 2622 
Q 3303 2206 3303 1553 
Q 3303 931 2941 478 
Q 2500 -78 1738 -78 
Q 1113 -78 717 272 
Q 322 622 266 1200 
z
" transform="scale(0.015625)"/>
       </defs>
       <use xlink:href="#ArialMT-31"/>
       <use xlink:href="#ArialMT-35" transform="translate(55.615234 0)"/>
       <use xlink:href="#ArialMT-30" transform="translate(111.230469 0)"/>
       <use xlink:href="#ArialMT-b0" transform="translate(166.845703 0)"/>
      </g>
     </g>
    </g>
    <g id="xtick_7">
     <g id="line2d_7">
      <path d="M 227.654931 218.137782 
L 227.654931 405.030682 
" clip-path="url(#p750ceeb36e)" style="fill: none; stroke: #cccccc; stroke-linecap: round"/>
     </g>
     <g id="text_7">
      <!-- 180° -->
      <g style="fill: #262626" transform="translate(210.592899 425.796189) scale(0.165 -0.165)">
       <defs>
        <path id="ArialMT-38" d="M 1131 2484 
Q 781 2613 612 2850 
Q 444 3088 444 3419 
Q 444 3919 803 4259 
Q 1163 4600 1759 4600 
Q 2359 4600 2725 4251 
Q 3091 3903 3091 3403 
Q 3091 3084 2923 2848 
Q 2756 2613 2416 2484 
Q 2838 2347 3058 2040 
Q 3278 1734 3278 1309 
Q 3278 722 2862 322 
Q 2447 -78 1769 -78 
Q 1091 -78 675 323 
Q 259 725 259 1325 
Q 259 1772 486 2073 
Q 713 2375 1131 2484 
z
M 1019 3438 
Q 1019 3113 1228 2906 
Q 1438 2700 1772 2700 
Q 2097 2700 2305 2904 
Q 2513 3109 2513 3406 
Q 2513 3716 2298 3927 
Q 2084 4138 1766 4138 
Q 1444 4138 1231 3931 
Q 1019 3725 1019 3438 
z
M 838 1322 
Q 838 1081 952 856 
Q 1066 631 1291 507 
Q 1516 384 1775 384 
Q 2178 384 2440 643 
Q 2703 903 2703 1303 
Q 2703 1709 2433 1975 
Q 2163 2241 1756 2241 
Q 1359 2241 1098 1978 
Q 838 1716 838 1322 
z
" transform="scale(0.015625)"/>
       </defs>
       <use xlink:href="#ArialMT-31"/>
       <use xlink:href="#ArialMT-38" transform="translate(55.615234 0)"/>
       <use xlink:href="#ArialMT-30" transform="translate(111.230469 0)"/>
       <use xlink:href="#ArialMT-b0" transform="translate(166.845703 0)"/>
      </g>
     </g>
    </g>
    <g id="xtick_8">
     <g id="line2d_8">
      <path d="M 227.654931 218.137782 
L 134.208481 379.991781 
" clip-path="url(#p750ceeb36e)" style="fill: none; stroke: #cccccc; stroke-linecap: round"/>
     </g>
    </g>
    <g id="xtick_9">
     <g id="line2d_9">
      <path d="M 227.654931 218.137782 
L 65.800932 311.584232 
" clip-path="url(#p750ceeb36e)" style="fill: none; stroke: #cccccc; stroke-linecap: round"/>
     </g>
     <g id="text_8">
      <!-- 240° -->
      <g style="fill: #262626" transform="translate(34.449482 324.09974) scale(0.165 -0.165)">
       <defs>
        <path id="ArialMT-34" d="M 2069 0 
L 2069 1097 
L 81 1097 
L 81 1613 
L 2172 4581 
L 2631 4581 
L 2631 1613 
L 3250 1613 
L 3250 1097 
L 2631 1097 
L 2631 0 
L 2069 0 
z
M 2069 1613 
L 2069 3678 
L 634 1613 
L 2069 1613 
z
" transform="scale(0.015625)"/>
       </defs>
       <use xlink:href="#ArialMT-32"/>
       <use xlink:href="#ArialMT-34" transform="translate(55.615234 0)"/>
       <use xlink:href="#ArialMT-30" transform="translate(111.230469 0)"/>
       <use xlink:href="#ArialMT-b0" transform="translate(166.845703 0)"/>
      </g>
     </g>
    </g>
    <g id="xtick_10">
     <g id="line2d_10">
      <path d="M 227.654931 218.137782 
L 40.762031 218.137782 
" clip-path="url(#p750ceeb36e)" style="fill: none; stroke: #cccccc; stroke-linecap: round"/>
     </g>
     <g id="text_9">
      <!-- 270° -->
      <g style="fill: #262626" transform="translate(7.2 222.40329) scale(0.165 -0.165)">
       <defs>
        <path id="ArialMT-37" d="M 303 3981 
L 303 4522 
L 3269 4522 
L 3269 4084 
Q 2831 3619 2401 2847 
Q 1972 2075 1738 1259 
Q 1569 684 1522 0 
L 944 0 
Q 953 541 1156 1306 
Q 1359 2072 1739 2783 
Q 2119 3494 2547 3981 
L 303 3981 
z
" transform="scale(0.015625)"/>
       </defs>
       <use xlink:href="#ArialMT-32"/>
       <use xlink:href="#ArialMT-37" transform="translate(55.615234 0)"/>
       <use xlink:href="#ArialMT-30" transform="translate(111.230469 0)"/>
       <use xlink:href="#ArialMT-b0" transform="translate(166.845703 0)"/>
      </g>
     </g>
    </g>
    <g id="xtick_11">
     <g id="line2d_11">
      <path d="M 227.654931 218.137782 
L 65.800932 124.691332 
" clip-path="url(#p750ceeb36e)" style="fill: none; stroke: #cccccc; stroke-linecap: round"/>
     </g>
     <g id="text_10">
      <!-- 300° -->
      <g style="fill: #262626" transform="translate(34.449482 120.70684) scale(0.165 -0.165)">
       <use xlink:href="#ArialMT-33"/>
       <use xlink:href="#ArialMT-30" transform="translate(55.615234 0)"/>
       <use xlink:href="#ArialMT-30" transform="translate(111.230469 0)"/>
       <use xlink:href="#ArialMT-b0" transform="translate(166.845703 0)"/>
      </g>
     </g>
    </g>
    <g id="xtick_12">
     <g id="line2d_12">
      <path d="M 227.654931 218.137782 
L 134.208481 56.283784 
" clip-path="url(#p750ceeb36e)" style="fill: none; stroke: #cccccc; stroke-linecap: round"/>
     </g>
     <g id="text_11">
      <!-- 330° -->
      <g style="fill: #262626" transform="translate(108.89645 46.259872) scale(0.165 -0.165)">
       <use xlink:href="#ArialMT-33"/>
       <use xlink:href="#ArialMT-33" transform="translate(55.615234 0)"/>
       <use xlink:href="#ArialMT-30" transform="translate(111.230469 0)"/>
       <use xlink:href="#ArialMT-b0" transform="translate(166.845703 0)"/>
      </g>
     </g>
    </g>
    <g id="xtick_13">
     <g id="line2d_13">
      <path d="M 227.654931 218.137782 
L 227.654931 31.244883 
" clip-path="url(#p750ceeb36e)" style="fill: none; stroke: #cccccc; stroke-linecap: round"/>
     </g>
     <g id="text_12">
      <!-- 0° -->
      <g style="fill: #262626" transform="translate(219.768446 19.010391) scale(0.165 -0.165)">
       <use xlink:href="#ArialMT-30"/>
       <use xlink:href="#ArialMT-b0" transform="translate(55.615234 0)"/>
      </g>
     </g>
    </g>
   </g>
   <g id="matplotlib.axis_2">
    <g id="ytick_1">
     <g id="line2d_14">
      <path d="M 227.654931 182.539135 
C 232.329702 182.539135 236.959017 183.459963 241.277943 185.24892 
C 245.596869 187.037878 249.521413 189.660174 252.826976 192.965737 
C 256.132538 196.2713 258.754835 200.195844 260.543792 204.51477 
C 262.33275 208.833695 263.253578 213.463011 263.253578 218.137782 
C 263.253578 222.812554 262.33275 227.441869 260.543792 231.760795 
C 258.754835 236.079721 256.132538 240.004265 252.826976 243.309827 
C 249.521413 246.61539 245.596869 249.237686 241.277943 251.026644 
C 236.959017 252.815602 232.329702 253.73643 227.654931 253.73643 
C 222.980159 253.73643 218.350844 252.815602 214.031918 251.026644 
C 209.712992 249.237686 205.788448 246.61539 202.482886 243.309827 
C 199.177323 240.004265 196.555026 236.079721 194.766069 231.760795 
C 192.977111 227.441869 192.056283 222.812554 192.056283 218.137782 
C 192.056283 213.463011 192.977111 208.833695 194.766069 204.51477 
C 196.555026 200.195844 199.177323 196.2713 202.482886 192.965737 
C 205.788448 189.660174 209.712992 187.037878 214.031918 185.24892 
C 218.350844 183.459963 222.980159 182.539135 227.654931 182.539135 
" clip-path="url(#p750ceeb36e)" style="fill: none; stroke: #cccccc; stroke-linecap: round"/>
     </g>
     <g id="text_13">
      <!-- 0.2 -->
      <g style="fill: #262626" transform="translate(252.826976 189.686362) scale(0.165 -0.165)">
       <defs>
        <path id="ArialMT-2e" d="M 581 0 
L 581 641 
L 1222 641 
L 1222 0 
L 581 0 
z
" transform="scale(0.015625)"/>
       </defs>
       <use xlink:href="#ArialMT-30"/>
       <use xlink:href="#ArialMT-2e" transform="translate(55.615234 0)"/>
       <use xlink:href="#ArialMT-32" transform="translate(83.398438 0)"/>
      </g>
     </g>
    </g>
    <g id="ytick_2">
     <g id="line2d_15">
      <path d="M 227.654931 146.940487 
C 237.004474 146.940487 246.263104 148.782143 254.900956 152.360059 
C 263.538807 155.937974 271.387895 161.182567 277.999021 167.793692 
C 284.610146 174.404817 289.854739 182.253905 293.432654 190.891757 
C 297.010569 199.529608 298.852226 208.788239 298.852226 218.137782 
C 298.852226 227.487325 297.010569 236.745956 293.432654 245.383807 
C 289.854739 254.021659 284.610146 261.870747 277.999021 268.481872 
C 271.387895 275.092998 263.538807 280.337591 254.900956 283.915506 
C 246.263104 287.493421 237.004474 289.335077 227.654931 289.335077 
C 218.305388 289.335077 209.046757 287.493421 200.408905 283.915506 
C 191.771054 280.337591 183.921966 275.092998 177.310841 268.481872 
C 170.699715 261.870747 165.455122 254.021659 161.877207 245.383807 
C 158.299292 236.745956 156.457636 227.487325 156.457636 218.137782 
C 156.457636 208.788239 158.299292 199.529608 161.877207 190.891757 
C 165.455122 182.253905 170.699715 174.404817 177.310841 167.793692 
C 183.921966 161.182567 191.771054 155.937974 200.408905 152.360059 
C 209.046757 148.782143 218.305388 146.940487 227.654931 146.940487 
" clip-path="url(#p750ceeb36e)" style="fill: none; stroke: #cccccc; stroke-linecap: round"/>
     </g>
     <g id="text_14">
      <!-- 0.4 -->
      <g style="fill: #262626" transform="translate(277.999021 164.514317) scale(0.165 -0.165)">
       <use xlink:href="#ArialMT-30"/>
       <use xlink:href="#ArialMT-2e" transform="translate(55.615234 0)"/>
       <use xlink:href="#ArialMT-34" transform="translate(83.398438 0)"/>
      </g>
     </g>
    </g>
    <g id="ytick_3">
     <g id="line2d_16">
      <path d="M 227.654931 111.34184 
C 241.679245 111.34184 255.567191 114.104324 268.523968 119.471197 
C 281.480746 124.83807 293.254378 132.704959 303.171066 142.621647 
C 313.087754 152.538335 320.954643 164.311967 326.321516 177.268744 
C 331.688389 190.225522 334.450873 204.113468 334.450873 218.137782 
C 334.450873 232.162097 331.688389 246.050043 326.321516 259.00682 
C 320.954643 271.963597 313.087754 283.737229 303.171066 293.653917 
C 293.254378 303.570605 281.480746 311.437495 268.523968 316.804368 
C 255.567191 322.17124 241.679245 324.933725 227.654931 324.933725 
C 213.630616 324.933725 199.74267 322.17124 186.785893 316.804368 
C 173.829115 311.437495 162.055483 303.570605 152.138795 293.653917 
C 142.222107 283.737229 134.355218 271.963597 128.988345 259.00682 
C 123.621472 246.050043 120.858988 232.162097 120.858988 218.137782 
C 120.858988 204.113468 123.621472 190.225522 128.988345 177.268744 
C 134.355218 164.311967 142.222107 152.538335 152.138795 142.621647 
C 162.055483 132.704959 173.829115 124.83807 186.785893 119.471197 
C 199.74267 114.104324 213.630616 111.34184 227.654931 111.34184 
" clip-path="url(#p750ceeb36e)" style="fill: none; stroke: #cccccc; stroke-linecap: round"/>
     </g>
     <g id="text_15">
      <!-- 0.6 -->
      <g style="fill: #262626" transform="translate(303.171066 139.342272) scale(0.165 -0.165)">
       <use xlink:href="#ArialMT-30"/>
       <use xlink:href="#ArialMT-2e" transform="translate(55.615234 0)"/>
       <use xlink:href="#ArialMT-36" transform="translate(83.398438 0)"/>
      </g>
     </g>
    </g>
    <g id="ytick_4">
     <g id="line2d_17">
      <path d="M 227.654931 75.743192 
C 246.354017 75.743192 264.871278 79.426504 282.146981 86.582335 
C 299.422684 93.738165 315.12086 104.227351 328.343111 117.449602 
C 341.565361 130.671853 352.054547 146.370029 359.210378 163.645732 
C 366.366208 180.921435 370.049521 199.438696 370.049521 218.137782 
C 370.049521 236.836868 366.366208 255.35413 359.210378 272.629833 
C 352.054547 289.905536 341.565361 305.603712 328.343111 318.825962 
C 315.12086 332.048213 299.422684 342.537399 282.146981 349.693229 
C 264.871278 356.84906 246.354017 360.532372 227.654931 360.532372 
C 208.955844 360.532372 190.438583 356.84906 173.16288 349.693229 
C 155.887177 342.537399 140.189001 332.048213 126.96675 318.825962 
C 113.7445 305.603712 103.255314 289.905536 96.099483 272.629833 
C 88.943653 255.35413 85.260341 236.836868 85.260341 218.137782 
C 85.260341 199.438696 88.943653 180.921435 96.099483 163.645732 
C 103.255314 146.370029 113.7445 130.671853 126.96675 117.449602 
C 140.189001 104.227351 155.887177 93.738165 173.16288 86.582335 
C 190.438583 79.426504 208.955844 75.743192 227.654931 75.743192 
" clip-path="url(#p750ceeb36e)" style="fill: none; stroke: #cccccc; stroke-linecap: round"/>
     </g>
     <g id="text_16">
      <!-- 0.8 -->
      <g style="fill: #262626" transform="translate(328.343111 114.170227) scale(0.165 -0.165)">
       <use xlink:href="#ArialMT-30"/>
       <use xlink:href="#ArialMT-2e" transform="translate(55.615234 0)"/>
       <use xlink:href="#ArialMT-38" transform="translate(83.398438 0)"/>
      </g>
     </g>
    </g>
    <g id="ytick_5">
     <g id="line2d_18">
      <path d="M 227.654931 40.144545 
C 251.028788 40.144545 274.175365 44.748685 295.769994 53.693473 
C 317.364622 62.638261 336.987343 75.749744 353.515156 92.277557 
C 370.042969 108.80537 383.154452 128.42809 392.09924 150.022719 
C 401.044028 171.617348 405.648168 194.763924 405.648168 218.137782 
C 405.648168 241.51164 401.044028 264.658216 392.09924 286.252845 
C 383.154452 307.847474 370.042969 327.470194 353.515156 343.998007 
C 336.987343 360.525821 317.364622 373.637303 295.769994 382.582091 
C 274.175365 391.526879 251.028788 396.13102 227.654931 396.13102 
C 204.281073 396.13102 181.134496 391.526879 159.539868 382.582091 
C 137.945239 373.637303 118.322519 360.525821 101.794705 343.998007 
C 85.266892 327.470194 72.15541 307.847474 63.210622 286.252845 
C 54.265833 264.658216 49.661693 241.51164 49.661693 218.137782 
C 49.661693 194.763924 54.265833 171.617348 63.210622 150.022719 
C 72.15541 128.42809 85.266892 108.80537 101.794705 92.277557 
C 118.322519 75.749744 137.945239 62.638261 159.539868 53.693473 
C 181.134496 44.748685 204.281073 40.144545 227.654931 40.144545 
" clip-path="url(#p750ceeb36e)" style="fill: none; stroke: #cccccc; stroke-linecap: round"/>
     </g>
     <g id="text_17">
      <!-- 1.0 -->
      <g style="fill: #262626" transform="translate(353.515156 88.998182) scale(0.165 -0.165)">
       <use xlink:href="#ArialMT-31"/>
       <use xlink:href="#ArialMT-2e" transform="translate(55.615234 0)"/>
       <use xlink:href="#ArialMT-30" transform="translate(83.398438 0)"/>
      </g>
     </g>
    </g>
   </g>
   <g id="patch_3">
    <path d="M 227.654931 96.306644 
L 243.286638 99.403176 
L 257.400761 107.124832 
L 269.451168 117.232739 
L 279.595724 128.173689 
L 287.74287 139.829655 
L 293.805226 151.987487 
L 298.612846 163.689859 
L 301.481367 175.514069 
L 303.345772 186.785609 
L 304.777742 197.472787 
L 304.879671 207.970952 
L 303.271687 218.137782 
L 300.676189 227.751213 
L 297.284817 236.795054 
L 292.696761 245.07899 
L 287.514668 252.697817 
L 282.071779 259.893298 
L 276.035051 266.517903 
L 269.317553 272.433569 
L 261.802273 277.282715 
L 254.134086 282.064119 
L 245.782573 285.791063 
L 236.993236 289.069257 
L 227.654931 290.175584 
L 218.316625 289.069257 
L 209.527289 285.791063 
L 201.175775 282.064119 
L 193.507588 277.282715 
L 185.992308 272.433569 
L 179.27481 266.517903 
L 173.238082 259.893298 
L 167.795194 252.697817 
L 162.613101 245.07899 
L 158.025045 236.795054 
L 154.633672 227.751213 
L 152.038174 218.137782 
L 150.43019 207.970952 
L 150.532119 197.472787 
L 151.964089 186.785609 
L 153.828494 175.514069 
L 156.697015 163.689859 
L 161.504635 151.987487 
L 167.566991 139.829655 
L 175.714137 128.173689 
L 185.858693 117.232739 
L 197.9091 107.124832 
L 212.023223 99.403176 
z
" clip-path="url(#p750ceeb36e)" style="fill: #008000; opacity: 0.05; stroke: #008000; stroke-linejoin: miter"/>
   </g>
   <g id="patch_4">
    <path d="M 227.654931 60.755119 
L 248.168041 62.32524 
L 268.206321 66.797933 
L 287.29666 74.149909 
L 305.32303 83.612688 
L 321.727155 95.540473 
L 336.34746 109.445253 
L 349.137889 124.92063 
L 359.849515 141.815203 
L 368.067647 159.976931 
L 374.123283 178.891706 
L 377.503206 198.409883 
L 377.972301 218.137782 
L 376.874262 237.78288 
L 372.760757 257.018771 
L 366.030688 275.454898 
L 357.125283 292.887525 
L 345.750328 308.755568 
L 332.290129 322.772981 
L 317.079338 334.677939 
L 300.452859 344.227493 
L 282.839063 351.364062 
L 264.798457 356.759311 
L 246.322581 359.932664 
L 227.654931 360.601328 
L 208.98728 359.932664 
L 190.511404 356.759311 
L 172.470799 351.364062 
L 154.857002 344.227493 
L 138.230523 334.677939 
L 123.019732 322.772981 
L 109.559533 308.755568 
L 98.184578 292.887525 
L 89.279173 275.454898 
L 82.549105 257.018771 
L 78.435599 237.78288 
L 77.33756 218.137782 
L 77.806656 198.409883 
L 81.186579 178.891706 
L 87.242214 159.976931 
L 95.460347 141.815203 
L 106.171972 124.92063 
L 118.962402 109.445253 
L 133.582707 95.540473 
L 149.986831 83.612688 
L 168.013201 74.149909 
L 187.10354 66.797933 
L 207.14182 62.32524 
z
" clip-path="url(#p750ceeb36e)" style="fill: #0000ff; opacity: 0.05; stroke: #0000ff; stroke-linejoin: miter"/>
   </g>
   <g id="patch_5">
    <path d="M 227.654931 59.67581 
L 248.328972 61.10285 
L 268.540932 65.549147 
L 287.844909 72.826319 
L 306.146719 82.186016 
L 322.883254 94.033814 
L 337.788022 108.004691 
L 350.831539 123.621046 
L 361.801503 140.688222 
L 370.458505 158.986605 
L 376.646422 178.215633 
L 380.084979 198.069986 
L 381.189962 218.137782 
L 379.659436 238.149555 
L 375.577198 257.773434 
L 368.696007 276.558909 
L 359.667848 294.355476 
L 348.12914 310.580894 
L 334.542797 325.025648 
L 318.9594 337.128084 
L 301.981761 346.875629 
L 284.162524 354.559179 
L 265.630758 359.8655 
L 246.777357 363.387032 
L 227.654931 364.478102 
L 208.532504 363.387032 
L 189.679103 359.8655 
L 171.147338 354.559179 
L 153.3281 346.875629 
L 136.350461 337.128084 
L 120.767065 325.025648 
L 107.180722 310.580894 
L 95.642013 294.355476 
L 86.613855 276.558909 
L 79.732663 257.773434 
L 75.650425 238.149555 
L 74.119899 218.137782 
L 75.224882 198.069986 
L 78.66344 178.215633 
L 84.851356 158.986605 
L 93.508358 140.688222 
L 104.478322 123.621046 
L 117.52184 108.004691 
L 132.426607 94.033814 
L 149.163142 82.186016 
L 167.464952 72.826319 
L 186.768929 65.549147 
L 206.98089 61.10285 
z
" clip-path="url(#p750ceeb36e)" style="fill: #ffa500; opacity: 0.05; stroke: #ffa500; stroke-linejoin: miter"/>
   </g>
   <g id="line2d_19">
    <path d="M 227.654931 96.306644 
L 243.286638 99.403176 
L 257.400761 107.124832 
L 269.451168 117.232739 
L 279.595724 128.173689 
L 287.74287 139.829655 
L 293.805226 151.987487 
L 298.612846 163.689859 
L 301.481367 175.514069 
L 303.345772 186.785609 
L 304.777742 197.472787 
L 304.879671 207.970952 
L 303.271687 218.137782 
L 300.676189 227.751213 
L 297.284817 236.795054 
L 292.696761 245.07899 
L 287.514668 252.697817 
L 282.071779 259.893298 
L 276.035051 266.517903 
L 269.317553 272.433569 
L 261.802273 277.282715 
L 254.134086 282.064119 
L 245.782573 285.791063 
L 236.993236 289.069257 
L 227.654931 290.175584 
L 218.316625 289.069257 
L 209.527289 285.791063 
L 201.175775 282.064119 
L 193.507588 277.282715 
L 185.992308 272.433569 
L 179.27481 266.517903 
L 173.238082 259.893298 
L 167.795194 252.697817 
L 162.613101 245.07899 
L 158.025045 236.795054 
L 154.633672 227.751213 
L 152.038174 218.137782 
L 150.43019 207.970952 
L 150.532119 197.472787 
L 151.964089 186.785609 
L 153.828494 175.514069 
L 156.697015 163.689859 
L 161.504635 151.987487 
L 167.566991 139.829655 
L 175.714137 128.173689 
L 185.858693 117.232739 
L 197.9091 107.124832 
L 212.023223 99.403176 
L 227.654931 96.306644 
" clip-path="url(#p750ceeb36e)" style="fill: none; stroke: #008000; stroke-width: 2; stroke-linecap: round"/>
    <defs>
     <path id="mc3f2fb138d" d="M 0 4 
C 1.060812 4 2.078319 3.578535 2.828427 2.828427 
C 3.578535 2.078319 4 1.060812 4 0 
C 4 -1.060812 3.578535 -2.078319 2.828427 -2.828427 
C 2.078319 -3.578535 1.060812 -4 0 -4 
C -1.060812 -4 -2.078319 -3.578535 -2.828427 -2.828427 
C -3.578535 -2.078319 -4 -1.060812 -4 0 
C -4 1.060812 -3.578535 2.078319 -2.828427 2.828427 
C -2.078319 3.578535 -1.060812 4 0 4 
z
" style="stroke: #008000"/>
    </defs>
    <g clip-path="url(#p750ceeb36e)">
     <use xlink:href="#mc3f2fb138d" x="227.654931" y="96.306644" style="fill: #008000; stroke: #008000"/>
     <use xlink:href="#mc3f2fb138d" x="243.286638" y="99.403176" style="fill: #008000; stroke: #008000"/>
     <use xlink:href="#mc3f2fb138d" x="257.400761" y="107.124832" style="fill: #008000; stroke: #008000"/>
     <use xlink:href="#mc3f2fb138d" x="269.451168" y="117.232739" style="fill: #008000; stroke: #008000"/>
     <use xlink:href="#mc3f2fb138d" x="279.595724" y="128.173689" style="fill: #008000; stroke: #008000"/>
     <use xlink:href="#mc3f2fb138d" x="287.74287" y="139.829655" style="fill: #008000; stroke: #008000"/>
     <use xlink:href="#mc3f2fb138d" x="293.805226" y="151.987487" style="fill: #008000; stroke: #008000"/>
     <use xlink:href="#mc3f2fb138d" x="298.612846" y="163.689859" style="fill: #008000; stroke: #008000"/>
     <use xlink:href="#mc3f2fb138d" x="301.481367" y="175.514069" style="fill: #008000; stroke: #008000"/>
     <use xlink:href="#mc3f2fb138d" x="303.345772" y="186.785609" style="fill: #008000; stroke: #008000"/>
     <use xlink:href="#mc3f2fb138d" x="304.777742" y="197.472787" style="fill: #008000; stroke: #008000"/>
     <use xlink:href="#mc3f2fb138d" x="304.879671" y="207.970952" style="fill: #008000; stroke: #008000"/>
     <use xlink:href="#mc3f2fb138d" x="303.271687" y="218.137782" style="fill: #008000; stroke: #008000"/>
     <use xlink:href="#mc3f2fb138d" x="300.676189" y="227.751213" style="fill: #008000; stroke: #008000"/>
     <use xlink:href="#mc3f2fb138d" x="297.284817" y="236.795054" style="fill: #008000; stroke: #008000"/>
     <use xlink:href="#mc3f2fb138d" x="292.696761" y="245.07899" style="fill: #008000; stroke: #008000"/>
     <use xlink:href="#mc3f2fb138d" x="287.514668" y="252.697817" style="fill: #008000; stroke: #008000"/>
     <use xlink:href="#mc3f2fb138d" x="282.071779" y="259.893298" style="fill: #008000; stroke: #008000"/>
     <use xlink:href="#mc3f2fb138d" x="276.035051" y="266.517903" style="fill: #008000; stroke: #008000"/>
     <use xlink:href="#mc3f2fb138d" x="269.317553" y="272.433569" style="fill: #008000; stroke: #008000"/>
     <use xlink:href="#mc3f2fb138d" x="261.802273" y="277.282715" style="fill: #008000; stroke: #008000"/>
     <use xlink:href="#mc3f2fb138d" x="254.134086" y="282.064119" style="fill: #008000; stroke: #008000"/>
     <use xlink:href="#mc3f2fb138d" x="245.782573" y="285.791063" style="fill: #008000; stroke: #008000"/>
     <use xlink:href="#mc3f2fb138d" x="236.993236" y="289.069257" style="fill: #008000; stroke: #008000"/>
     <use xlink:href="#mc3f2fb138d" x="227.654931" y="290.175584" style="fill: #008000; stroke: #008000"/>
     <use xlink:href="#mc3f2fb138d" x="218.316625" y="289.069257" style="fill: #008000; stroke: #008000"/>
     <use xlink:href="#mc3f2fb138d" x="209.527289" y="285.791063" style="fill: #008000; stroke: #008000"/>
     <use xlink:href="#mc3f2fb138d" x="201.175775" y="282.064119" style="fill: #008000; stroke: #008000"/>
     <use xlink:href="#mc3f2fb138d" x="193.507588" y="277.282715" style="fill: #008000; stroke: #008000"/>
     <use xlink:href="#mc3f2fb138d" x="185.992308" y="272.433569" style="fill: #008000; stroke: #008000"/>
     <use xlink:href="#mc3f2fb138d" x="179.27481" y="266.517903" style="fill: #008000; stroke: #008000"/>
     <use xlink:href="#mc3f2fb138d" x="173.238082" y="259.893298" style="fill: #008000; stroke: #008000"/>
     <use xlink:href="#mc3f2fb138d" x="167.795194" y="252.697817" style="fill: #008000; stroke: #008000"/>
     <use xlink:href="#mc3f2fb138d" x="162.613101" y="245.07899" style="fill: #008000; stroke: #008000"/>
     <use xlink:href="#mc3f2fb138d" x="158.025045" y="236.795054" style="fill: #008000; stroke: #008000"/>
     <use xlink:href="#mc3f2fb138d" x="154.633672" y="227.751213" style="fill: #008000; stroke: #008000"/>
     <use xlink:href="#mc3f2fb138d" x="152.038174" y="218.137782" style="fill: #008000; stroke: #008000"/>
     <use xlink:href="#mc3f2fb138d" x="150.43019" y="207.970952" style="fill: #008000; stroke: #008000"/>
     <use xlink:href="#mc3f2fb138d" x="150.532119" y="197.472787" style="fill: #008000; stroke: #008000"/>
     <use xlink:href="#mc3f2fb138d" x="151.964089" y="186.785609" style="fill: #008000; stroke: #008000"/>
     <use xlink:href="#mc3f2fb138d" x="153.828494" y="175.514069" style="fill: #008000; stroke: #008000"/>
     <use xlink:href="#mc3f2fb138d" x="156.697015" y="163.689859" style="fill: #008000; stroke: #008000"/>
     <use xlink:href="#mc3f2fb138d" x="161.504635" y="151.987487" style="fill: #008000; stroke: #008000"/>
     <use xlink:href="#mc3f2fb138d" x="167.566991" y="139.829655" style="fill: #008000; stroke: #008000"/>
     <use xlink:href="#mc3f2fb138d" x="175.714137" y="128.173689" style="fill: #008000; stroke: #008000"/>
     <use xlink:href="#mc3f2fb138d" x="185.858693" y="117.232739" style="fill: #008000; stroke: #008000"/>
     <use xlink:href="#mc3f2fb138d" x="197.9091" y="107.124832" style="fill: #008000; stroke: #008000"/>
     <use xlink:href="#mc3f2fb138d" x="212.023223" y="99.403176" style="fill: #008000; stroke: #008000"/>
     <use xlink:href="#mc3f2fb138d" x="227.654931" y="96.306644" style="fill: #008000; stroke: #008000"/>
    </g>
   </g>
   <g id="line2d_20">
    <path d="M 227.654931 96.306644 
L 243.557085 97.348927 
L 259.187149 100.45794 
L 274.277689 105.580488 
L 288.5705 112.628922 
L 301.821028 121.482642 
L 313.802554 131.990159 
L 324.310071 143.971685 
L 333.163791 157.222213 
L 340.212225 171.515024 
L 345.334773 186.605563 
L 348.443786 202.235628 
L 349.486068 218.137782 
L 348.443786 234.039937 
L 345.334773 249.670001 
L 340.212225 264.76054 
L 333.163791 279.053351 
L 324.310071 292.30388 
L 313.802554 304.285406 
L 301.821028 314.792922 
L 288.5705 323.646642 
L 274.277689 330.695077 
L 259.187149 335.817625 
L 243.557085 338.926638 
L 227.654931 339.96892 
L 211.752776 338.926638 
L 196.122712 335.817625 
L 181.032173 330.695077 
L 166.739362 323.646642 
L 153.488833 314.792922 
L 141.507307 304.285406 
L 130.999791 292.30388 
L 122.14607 279.053351 
L 115.097636 264.76054 
L 109.975088 249.670001 
L 106.866075 234.039937 
L 105.823793 218.137782 
L 106.866075 202.235628 
L 109.975088 186.605563 
L 115.097636 171.515024 
L 122.14607 157.222213 
L 130.999791 143.971685 
L 141.507307 131.990159 
L 153.488833 121.482642 
L 166.739362 112.628922 
L 181.032173 105.580488 
L 196.122712 100.45794 
L 211.752776 97.348927 
L 227.654931 96.306644 
" clip-path="url(#p750ceeb36e)" style="fill: none; stroke: #008000; stroke-opacity: 0.3; stroke-width: 1.5; stroke-linecap: round"/>
   </g>
   <g id="line2d_21">
    <path d="M 227.654931 60.755119 
L 248.168041 62.32524 
L 268.206321 66.797933 
L 287.29666 74.149909 
L 305.32303 83.612688 
L 321.727155 95.540473 
L 336.34746 109.445253 
L 349.137889 124.92063 
L 359.849515 141.815203 
L 368.067647 159.976931 
L 374.123283 178.891706 
L 377.503206 198.409883 
L 377.972301 218.137782 
L 376.874262 237.78288 
L 372.760757 257.018771 
L 366.030688 275.454898 
L 357.125283 292.887525 
L 345.750328 308.755568 
L 332.290129 322.772981 
L 317.079338 334.677939 
L 300.452859 344.227493 
L 282.839063 351.364062 
L 264.798457 356.759311 
L 246.322581 359.932664 
L 227.654931 360.601328 
L 208.98728 359.932664 
L 190.511404 356.759311 
L 172.470799 351.364062 
L 154.857002 344.227493 
L 138.230523 334.677939 
L 123.019732 322.772981 
L 109.559533 308.755568 
L 98.184578 292.887525 
L 89.279173 275.454898 
L 82.549105 257.018771 
L 78.435599 237.78288 
L 77.33756 218.137782 
L 77.806656 198.409883 
L 81.186579 178.891706 
L 87.242214 159.976931 
L 95.460347 141.815203 
L 106.171972 124.92063 
L 118.962402 109.445253 
L 133.582707 95.540473 
L 149.986831 83.612688 
L 168.013201 74.149909 
L 187.10354 66.797933 
L 207.14182 62.32524 
L 227.654931 60.755119 
" clip-path="url(#p750ceeb36e)" style="fill: none; stroke: #0000ff; stroke-width: 2; stroke-linecap: round"/>
    <defs>
     <path id="m7282313cdc" d="M 0 4 
C 1.060812 4 2.078319 3.578535 2.828427 2.828427 
C 3.578535 2.078319 4 1.060812 4 0 
C 4 -1.060812 3.578535 -2.078319 2.828427 -2.828427 
C 2.078319 -3.578535 1.060812 -4 0 -4 
C -1.060812 -4 -2.078319 -3.578535 -2.828427 -2.828427 
C -3.578535 -2.078319 -4 -1.060812 -4 0 
C -4 1.060812 -3.578535 2.078319 -2.828427 2.828427 
C -2.078319 3.578535 -1.060812 4 0 4 
z
" style="stroke: #0000ff"/>
    </defs>
    <g clip-path="url(#p750ceeb36e)">
     <use xlink:href="#m7282313cdc" x="227.654931" y="60.755119" style="fill: #0000ff; stroke: #0000ff"/>
     <use xlink:href="#m7282313cdc" x="248.168041" y="62.32524" style="fill: #0000ff; stroke: #0000ff"/>
     <use xlink:href="#m7282313cdc" x="268.206321" y="66.797933" style="fill: #0000ff; stroke: #0000ff"/>
     <use xlink:href="#m7282313cdc" x="287.29666" y="74.149909" style="fill: #0000ff; stroke: #0000ff"/>
     <use xlink:href="#m7282313cdc" x="305.32303" y="83.612688" style="fill: #0000ff; stroke: #0000ff"/>
     <use xlink:href="#m7282313cdc" x="321.727155" y="95.540473" style="fill: #0000ff; stroke: #0000ff"/>
     <use xlink:href="#m7282313cdc" x="336.34746" y="109.445253" style="fill: #0000ff; stroke: #0000ff"/>
     <use xlink:href="#m7282313cdc" x="349.137889" y="124.92063" style="fill: #0000ff; stroke: #0000ff"/>
     <use xlink:href="#m7282313cdc" x="359.849515" y="141.815203" style="fill: #0000ff; stroke: #0000ff"/>
     <use xlink:href="#m7282313cdc" x="368.067647" y="159.976931" style="fill: #0000ff; stroke: #0000ff"/>
     <use xlink:href="#m7282313cdc" x="374.123283" y="178.891706" style="fill: #0000ff; stroke: #0000ff"/>
     <use xlink:href="#m7282313cdc" x="377.503206" y="198.409883" style="fill: #0000ff; stroke: #0000ff"/>
     <use xlink:href="#m7282313cdc" x="377.972301" y="218.137782" style="fill: #0000ff; stroke: #0000ff"/>
     <use xlink:href="#m7282313cdc" x="376.874262" y="237.78288" style="fill: #0000ff; stroke: #0000ff"/>
     <use xlink:href="#m7282313cdc" x="372.760757" y="257.018771" style="fill: #0000ff; stroke: #0000ff"/>
     <use xlink:href="#m7282313cdc" x="366.030688" y="275.454898" style="fill: #0000ff; stroke: #0000ff"/>
     <use xlink:href="#m7282313cdc" x="357.125283" y="292.887525" style="fill: #0000ff; stroke: #0000ff"/>
     <use xlink:href="#m7282313cdc" x="345.750328" y="308.755568" style="fill: #0000ff; stroke: #0000ff"/>
     <use xlink:href="#m7282313cdc" x="332.290129" y="322.772981" style="fill: #0000ff; stroke: #0000ff"/>
     <use xlink:href="#m7282313cdc" x="317.079338" y="334.677939" style="fill: #0000ff; stroke: #0000ff"/>
     <use xlink:href="#m7282313cdc" x="300.452859" y="344.227493" style="fill: #0000ff; stroke: #0000ff"/>
     <use xlink:href="#m7282313cdc" x="282.839063" y="351.364062" style="fill: #0000ff; stroke: #0000ff"/>
     <use xlink:href="#m7282313cdc" x="264.798457" y="356.759311" style="fill: #0000ff; stroke: #0000ff"/>
     <use xlink:href="#m7282313cdc" x="246.322581" y="359.932664" style="fill: #0000ff; stroke: #0000ff"/>
     <use xlink:href="#m7282313cdc" x="227.654931" y="360.601328" style="fill: #0000ff; stroke: #0000ff"/>
     <use xlink:href="#m7282313cdc" x="208.98728" y="359.932664" style="fill: #0000ff; stroke: #0000ff"/>
     <use xlink:href="#m7282313cdc" x="190.511404" y="356.759311" style="fill: #0000ff; stroke: #0000ff"/>
     <use xlink:href="#m7282313cdc" x="172.470799" y="351.364062" style="fill: #0000ff; stroke: #0000ff"/>
     <use xlink:href="#m7282313cdc" x="154.857002" y="344.227493" style="fill: #0000ff; stroke: #0000ff"/>
     <use xlink:href="#m7282313cdc" x="138.230523" y="334.677939" style="fill: #0000ff; stroke: #0000ff"/>
     <use xlink:href="#m7282313cdc" x="123.019732" y="322.772981" style="fill: #0000ff; stroke: #0000ff"/>
     <use xlink:href="#m7282313cdc" x="109.559533" y="308.755568" style="fill: #0000ff; stroke: #0000ff"/>
     <use xlink:href="#m7282313cdc" x="98.184578" y="292.887525" style="fill: #0000ff; stroke: #0000ff"/>
     <use xlink:href="#m7282313cdc" x="89.279173" y="275.454898" style="fill: #0000ff; stroke: #0000ff"/>
     <use xlink:href="#m7282313cdc" x="82.549105" y="257.018771" style="fill: #0000ff; stroke: #0000ff"/>
     <use xlink:href="#m7282313cdc" x="78.435599" y="237.78288" style="fill: #0000ff; stroke: #0000ff"/>
     <use xlink:href="#m7282313cdc" x="77.33756" y="218.137782" style="fill: #0000ff; stroke: #0000ff"/>
     <use xlink:href="#m7282313cdc" x="77.806656" y="198.409883" style="fill: #0000ff; stroke: #0000ff"/>
     <use xlink:href="#m7282313cdc" x="81.186579" y="178.891706" style="fill: #0000ff; stroke: #0000ff"/>
     <use xlink:href="#m7282313cdc" x="87.242214" y="159.976931" style="fill: #0000ff; stroke: #0000ff"/>
     <use xlink:href="#m7282313cdc" x="95.460347" y="141.815203" style="fill: #0000ff; stroke: #0000ff"/>
     <use xlink:href="#m7282313cdc" x="106.171972" y="124.92063" style="fill: #0000ff; stroke: #0000ff"/>
     <use xlink:href="#m7282313cdc" x="118.962402" y="109.445253" style="fill: #0000ff; stroke: #0000ff"/>
     <use xlink:href="#m7282313cdc" x="133.582707" y="95.540473" style="fill: #0000ff; stroke: #0000ff"/>
     <use xlink:href="#m7282313cdc" x="149.986831" y="83.612688" style="fill: #0000ff; stroke: #0000ff"/>
     <use xlink:href="#m7282313cdc" x="168.013201" y="74.149909" style="fill: #0000ff; stroke: #0000ff"/>
     <use xlink:href="#m7282313cdc" x="187.10354" y="66.797933" style="fill: #0000ff; stroke: #0000ff"/>
     <use xlink:href="#m7282313cdc" x="207.14182" y="62.32524" style="fill: #0000ff; stroke: #0000ff"/>
     <use xlink:href="#m7282313cdc" x="227.654931" y="60.755119" style="fill: #0000ff; stroke: #0000ff"/>
    </g>
   </g>
   <g id="line2d_22">
    <path d="M 227.654931 60.755119 
L 248.19749 62.101549 
L 268.388561 66.117803 
L 287.882668 72.735161 
L 306.346262 81.840398 
L 323.463426 93.277721 
L 338.941279 106.851434 
L 352.514992 122.329287 
L 363.952315 139.446451 
L 373.057552 157.910044 
L 379.67491 177.404152 
L 383.691163 197.595222 
L 385.037594 218.137782 
L 383.691163 238.680342 
L 379.67491 258.871413 
L 373.057552 278.36552 
L 363.952315 296.829114 
L 352.514992 313.946277 
L 338.941279 329.424131 
L 323.463426 342.997844 
L 306.346262 354.435167 
L 287.882668 363.540404 
L 268.388561 370.157761 
L 248.19749 374.174015 
L 227.654931 375.520446 
L 207.112371 374.174015 
L 186.9213 370.157761 
L 167.427193 363.540404 
L 148.963599 354.435167 
L 131.846436 342.997844 
L 116.368582 329.424131 
L 102.794869 313.946277 
L 91.357546 296.829114 
L 82.252309 278.36552 
L 75.634951 258.871413 
L 71.618698 238.680342 
L 70.272267 218.137782 
L 71.618698 197.595222 
L 75.634951 177.404152 
L 82.252309 157.910044 
L 91.357546 139.446451 
L 102.794869 122.329287 
L 116.368582 106.851434 
L 131.846436 93.277721 
L 148.963599 81.840398 
L 167.427193 72.735161 
L 186.9213 66.117803 
L 207.112371 62.101549 
L 227.654931 60.755119 
" clip-path="url(#p750ceeb36e)" style="fill: none; stroke: #0000ff; stroke-opacity: 0.3; stroke-width: 1.5; stroke-linecap: round"/>
   </g>
   <g id="line2d_23">
    <path d="M 227.654931 59.67581 
L 248.328972 61.10285 
L 268.540932 65.549147 
L 287.844909 72.826319 
L 306.146719 82.186016 
L 322.883254 94.033814 
L 337.788022 108.004691 
L 350.831539 123.621046 
L 361.801503 140.688222 
L 370.458505 158.986605 
L 376.646422 178.215633 
L 380.084979 198.069986 
L 381.189962 218.137782 
L 379.659436 238.149555 
L 375.577198 257.773434 
L 368.696007 276.558909 
L 359.667848 294.355476 
L 348.12914 310.580894 
L 334.542797 325.025648 
L 318.9594 337.128084 
L 301.981761 346.875629 
L 284.162524 354.559179 
L 265.630758 359.8655 
L 246.777357 363.387032 
L 227.654931 364.478102 
L 208.532504 363.387032 
L 189.679103 359.8655 
L 171.147338 354.559179 
L 153.3281 346.875629 
L 136.350461 337.128084 
L 120.767065 325.025648 
L 107.180722 310.580894 
L 95.642013 294.355476 
L 86.613855 276.558909 
L 79.732663 257.773434 
L 75.650425 238.149555 
L 74.119899 218.137782 
L 75.224882 198.069986 
L 78.66344 178.215633 
L 84.851356 158.986605 
L 93.508358 140.688222 
L 104.478322 123.621046 
L 117.52184 108.004691 
L 132.426607 94.033814 
L 149.163142 82.186016 
L 167.464952 72.826319 
L 186.768929 65.549147 
L 206.98089 61.10285 
L 227.654931 59.67581 
" clip-path="url(#p750ceeb36e)" style="fill: none; stroke: #ffa500; stroke-width: 2; stroke-linecap: round"/>
    <defs>
     <path id="m86c27c6adf" d="M 0 4 
C 1.060812 4 2.078319 3.578535 2.828427 2.828427 
C 3.578535 2.078319 4 1.060812 4 0 
C 4 -1.060812 3.578535 -2.078319 2.828427 -2.828427 
C 2.078319 -3.578535 1.060812 -4 0 -4 
C -1.060812 -4 -2.078319 -3.578535 -2.828427 -2.828427 
C -3.578535 -2.078319 -4 -1.060812 -4 0 
C -4 1.060812 -3.578535 2.078319 -2.828427 2.828427 
C -2.078319 3.578535 -1.060812 4 0 4 
z
" style="stroke: #ffa500"/>
    </defs>
    <g clip-path="url(#p750ceeb36e)">
     <use xlink:href="#m86c27c6adf" x="227.654931" y="59.67581" style="fill: #ffa500; stroke: #ffa500"/>
     <use xlink:href="#m86c27c6adf" x="248.328972" y="61.10285" style="fill: #ffa500; stroke: #ffa500"/>
     <use xlink:href="#m86c27c6adf" x="268.540932" y="65.549147" style="fill: #ffa500; stroke: #ffa500"/>
     <use xlink:href="#m86c27c6adf" x="287.844909" y="72.826319" style="fill: #ffa500; stroke: #ffa500"/>
     <use xlink:href="#m86c27c6adf" x="306.146719" y="82.186016" style="fill: #ffa500; stroke: #ffa500"/>
     <use xlink:href="#m86c27c6adf" x="322.883254" y="94.033814" style="fill: #ffa500; stroke: #ffa500"/>
     <use xlink:href="#m86c27c6adf" x="337.788022" y="108.004691" style="fill: #ffa500; stroke: #ffa500"/>
     <use xlink:href="#m86c27c6adf" x="350.831539" y="123.621046" style="fill: #ffa500; stroke: #ffa500"/>
     <use xlink:href="#m86c27c6adf" x="361.801503" y="140.688222" style="fill: #ffa500; stroke: #ffa500"/>
     <use xlink:href="#m86c27c6adf" x="370.458505" y="158.986605" style="fill: #ffa500; stroke: #ffa500"/>
     <use xlink:href="#m86c27c6adf" x="376.646422" y="178.215633" style="fill: #ffa500; stroke: #ffa500"/>
     <use xlink:href="#m86c27c6adf" x="380.084979" y="198.069986" style="fill: #ffa500; stroke: #ffa500"/>
     <use xlink:href="#m86c27c6adf" x="381.189962" y="218.137782" style="fill: #ffa500; stroke: #ffa500"/>
     <use xlink:href="#m86c27c6adf" x="379.659436" y="238.149555" style="fill: #ffa500; stroke: #ffa500"/>
     <use xlink:href="#m86c27c6adf" x="375.577198" y="257.773434" style="fill: #ffa500; stroke: #ffa500"/>
     <use xlink:href="#m86c27c6adf" x="368.696007" y="276.558909" style="fill: #ffa500; stroke: #ffa500"/>
     <use xlink:href="#m86c27c6adf" x="359.667848" y="294.355476" style="fill: #ffa500; stroke: #ffa500"/>
     <use xlink:href="#m86c27c6adf" x="348.12914" y="310.580894" style="fill: #ffa500; stroke: #ffa500"/>
     <use xlink:href="#m86c27c6adf" x="334.542797" y="325.025648" style="fill: #ffa500; stroke: #ffa500"/>
     <use xlink:href="#m86c27c6adf" x="318.9594" y="337.128084" style="fill: #ffa500; stroke: #ffa500"/>
     <use xlink:href="#m86c27c6adf" x="301.981761" y="346.875629" style="fill: #ffa500; stroke: #ffa500"/>
     <use xlink:href="#m86c27c6adf" x="284.162524" y="354.559179" style="fill: #ffa500; stroke: #ffa500"/>
     <use xlink:href="#m86c27c6adf" x="265.630758" y="359.8655" style="fill: #ffa500; stroke: #ffa500"/>
     <use xlink:href="#m86c27c6adf" x="246.777357" y="363.387032" style="fill: #ffa500; stroke: #ffa500"/>
     <use xlink:href="#m86c27c6adf" x="227.654931" y="364.478102" style="fill: #ffa500; stroke: #ffa500"/>
     <use xlink:href="#m86c27c6adf" x="208.532504" y="363.387032" style="fill: #ffa500; stroke: #ffa500"/>
     <use xlink:href="#m86c27c6adf" x="189.679103" y="359.8655" style="fill: #ffa500; stroke: #ffa500"/>
     <use xlink:href="#m86c27c6adf" x="171.147338" y="354.559179" style="fill: #ffa500; stroke: #ffa500"/>
     <use xlink:href="#m86c27c6adf" x="153.3281" y="346.875629" style="fill: #ffa500; stroke: #ffa500"/>
     <use xlink:href="#m86c27c6adf" x="136.350461" y="337.128084" style="fill: #ffa500; stroke: #ffa500"/>
     <use xlink:href="#m86c27c6adf" x="120.767065" y="325.025648" style="fill: #ffa500; stroke: #ffa500"/>
     <use xlink:href="#m86c27c6adf" x="107.180722" y="310.580894" style="fill: #ffa500; stroke: #ffa500"/>
     <use xlink:href="#m86c27c6adf" x="95.642013" y="294.355476" style="fill: #ffa500; stroke: #ffa500"/>
     <use xlink:href="#m86c27c6adf" x="86.613855" y="276.558909" style="fill: #ffa500; stroke: #ffa500"/>
     <use xlink:href="#m86c27c6adf" x="79.732663" y="257.773434" style="fill: #ffa500; stroke: #ffa500"/>
     <use xlink:href="#m86c27c6adf" x="75.650425" y="238.149555" style="fill: #ffa500; stroke: #ffa500"/>
     <use xlink:href="#m86c27c6adf" x="74.119899" y="218.137782" style="fill: #ffa500; stroke: #ffa500"/>
     <use xlink:href="#m86c27c6adf" x="75.224882" y="198.069986" style="fill: #ffa500; stroke: #ffa500"/>
     <use xlink:href="#m86c27c6adf" x="78.66344" y="178.215633" style="fill: #ffa500; stroke: #ffa500"/>
     <use xlink:href="#m86c27c6adf" x="84.851356" y="158.986605" style="fill: #ffa500; stroke: #ffa500"/>
     <use xlink:href="#m86c27c6adf" x="93.508358" y="140.688222" style="fill: #ffa500; stroke: #ffa500"/>
     <use xlink:href="#m86c27c6adf" x="104.478322" y="123.621046" style="fill: #ffa500; stroke: #ffa500"/>
     <use xlink:href="#m86c27c6adf" x="117.52184" y="108.004691" style="fill: #ffa500; stroke: #ffa500"/>
     <use xlink:href="#m86c27c6adf" x="132.426607" y="94.033814" style="fill: #ffa500; stroke: #ffa500"/>
     <use xlink:href="#m86c27c6adf" x="149.163142" y="82.186016" style="fill: #ffa500; stroke: #ffa500"/>
     <use xlink:href="#m86c27c6adf" x="167.464952" y="72.826319" style="fill: #ffa500; stroke: #ffa500"/>
     <use xlink:href="#m86c27c6adf" x="186.768929" y="65.549147" style="fill: #ffa500; stroke: #ffa500"/>
     <use xlink:href="#m86c27c6adf" x="206.98089" y="61.10285" style="fill: #ffa500; stroke: #ffa500"/>
     <use xlink:href="#m86c27c6adf" x="227.654931" y="59.67581" style="fill: #ffa500; stroke: #ffa500"/>
    </g>
   </g>
   <g id="line2d_24">
    <path d="M 227.654931 59.67581 
L 248.338368 61.031474 
L 268.667907 65.075271 
L 288.295702 71.738009 
L 306.885917 80.905689 
L 324.120467 92.421447 
L 339.704466 106.088247 
L 353.371266 121.672245 
L 364.887024 138.906796 
L 374.054703 157.497011 
L 380.717442 177.124806 
L 384.761239 197.454344 
L 386.116903 218.137782 
L 384.761239 238.82122 
L 380.717442 259.150759 
L 374.054703 278.778554 
L 364.887024 297.368768 
L 353.371266 314.603319 
L 339.704466 330.187317 
L 324.120467 343.854117 
L 306.885917 355.369876 
L 288.295702 364.537555 
L 268.667907 371.200294 
L 248.338368 375.24409 
L 227.654931 376.599754 
L 206.971493 375.24409 
L 186.641954 371.200294 
L 167.014159 364.537555 
L 148.423944 355.369876 
L 131.189394 343.854117 
L 115.605395 330.187317 
L 101.938596 314.603319 
L 90.422837 297.368768 
L 81.255158 278.778554 
L 74.592419 259.150759 
L 70.548622 238.82122 
L 69.192958 218.137782 
L 70.548622 197.454344 
L 74.592419 177.124806 
L 81.255158 157.497011 
L 90.422837 138.906796 
L 101.938596 121.672245 
L 115.605395 106.088247 
L 131.189394 92.421447 
L 148.423944 80.905689 
L 167.014159 71.738009 
L 186.641954 65.075271 
L 206.971493 61.031474 
L 227.654931 59.67581 
" clip-path="url(#p750ceeb36e)" style="fill: none; stroke: #ffa500; stroke-opacity: 0.3; stroke-width: 1.5; stroke-linecap: round"/>
   </g>
   <g id="line2d_25"/>
   <g id="line2d_26"/>
   <g id="line2d_27"/>
   <g id="line2d_28"/>
   <g id="patch_6">
    <path d="M 227.654931 31.244883 
C 203.11238 31.244883 178.808475 36.07923 156.134114 45.471258 
C 133.459754 54.863285 112.855898 68.630342 95.501694 85.984546 
C 78.14749 103.33875 64.380434 123.942606 54.988406 146.616966 
C 45.596379 169.291326 40.762031 193.595232 40.762031 218.137782 
C 40.762031 242.680333 45.596379 266.984238 54.988406 289.658598 
C 64.380434 312.332959 78.14749 332.936815 95.501694 350.291019 
C 112.855898 367.645223 133.459754 381.412279 156.134114 390.804307 
C 178.808475 400.196334 203.11238 405.030682 227.654931 405.030682 
C 252.197481 405.030682 276.501387 400.196334 299.175747 390.804307 
C 321.850107 381.412279 342.453963 367.645223 359.808167 350.291019 
C 377.162371 332.936815 390.929428 312.332959 400.321455 289.658598 
C 409.713483 266.984238 414.54783 242.680333 414.54783 218.137782 
C 414.54783 193.595232 409.713483 169.291326 400.321455 146.616966 
C 390.929428 123.942606 377.162371 103.33875 359.808167 85.984546 
C 342.453963 68.630342 321.850107 54.863285 299.175747 45.471258 
C 276.501387 36.07923 252.197481 31.244883 227.654931 31.244883 
" style="fill: none; stroke: #cccccc; stroke-width: 1.25; stroke-linejoin: miter; stroke-linecap: square"/>
   </g>
   <g id="legend_1">
    <g id="text_18">
     <!-- Models -->
     <g style="fill: #262626" transform="translate(422.798899 339.318294) scale(0.18 -0.18)">
      <defs>
       <path id="ArialMT-4d" d="M 475 0 
L 475 4581 
L 1388 4581 
L 2472 1338 
Q 2622 884 2691 659 
Q 2769 909 2934 1394 
L 4031 4581 
L 4847 4581 
L 4847 0 
L 4263 0 
L 4263 3834 
L 2931 0 
L 2384 0 
L 1059 3900 
L 1059 0 
L 475 0 
z
" transform="scale(0.015625)"/>
       <path id="ArialMT-6f" d="M 213 1659 
Q 213 2581 725 3025 
Q 1153 3394 1769 3394 
Q 2453 3394 2887 2945 
Q 3322 2497 3322 1706 
Q 3322 1066 3130 698 
Q 2938 331 2570 128 
Q 2203 -75 1769 -75 
Q 1072 -75 642 372 
Q 213 819 213 1659 
z
M 791 1659 
Q 791 1022 1069 705 
Q 1347 388 1769 388 
Q 2188 388 2466 706 
Q 2744 1025 2744 1678 
Q 2744 2294 2464 2611 
Q 2184 2928 1769 2928 
Q 1347 2928 1069 2612 
Q 791 2297 791 1659 
z
" transform="scale(0.015625)"/>
       <path id="ArialMT-64" d="M 2575 0 
L 2575 419 
Q 2259 -75 1647 -75 
Q 1250 -75 917 144 
Q 584 363 401 755 
Q 219 1147 219 1656 
Q 219 2153 384 2558 
Q 550 2963 881 3178 
Q 1213 3394 1622 3394 
Q 1922 3394 2156 3267 
Q 2391 3141 2538 2938 
L 2538 4581 
L 3097 4581 
L 3097 0 
L 2575 0 
z
M 797 1656 
Q 797 1019 1065 703 
Q 1334 388 1700 388 
Q 2069 388 2326 689 
Q 2584 991 2584 1609 
Q 2584 2291 2321 2609 
Q 2059 2928 1675 2928 
Q 1300 2928 1048 2622 
Q 797 2316 797 1656 
z
" transform="scale(0.015625)"/>
       <path id="ArialMT-65" d="M 2694 1069 
L 3275 997 
Q 3138 488 2766 206 
Q 2394 -75 1816 -75 
Q 1088 -75 661 373 
Q 234 822 234 1631 
Q 234 2469 665 2931 
Q 1097 3394 1784 3394 
Q 2450 3394 2872 2941 
Q 3294 2488 3294 1666 
Q 3294 1616 3291 1516 
L 816 1516 
Q 847 969 1125 678 
Q 1403 388 1819 388 
Q 2128 388 2347 550 
Q 2566 713 2694 1069 
z
M 847 1978 
L 2700 1978 
Q 2663 2397 2488 2606 
Q 2219 2931 1791 2931 
Q 1403 2931 1139 2672 
Q 875 2413 847 1978 
z
" transform="scale(0.015625)"/>
       <path id="ArialMT-6c" d="M 409 0 
L 409 4581 
L 972 4581 
L 972 0 
L 409 0 
z
" transform="scale(0.015625)"/>
       <path id="ArialMT-73" d="M 197 991 
L 753 1078 
Q 800 744 1014 566 
Q 1228 388 1613 388 
Q 2000 388 2187 545 
Q 2375 703 2375 916 
Q 2375 1106 2209 1216 
Q 2094 1291 1634 1406 
Q 1016 1563 777 1677 
Q 538 1791 414 1992 
Q 291 2194 291 2438 
Q 291 2659 392 2848 
Q 494 3038 669 3163 
Q 800 3259 1026 3326 
Q 1253 3394 1513 3394 
Q 1903 3394 2198 3281 
Q 2494 3169 2634 2976 
Q 2775 2784 2828 2463 
L 2278 2388 
Q 2241 2644 2061 2787 
Q 1881 2931 1553 2931 
Q 1166 2931 1000 2803 
Q 834 2675 834 2503 
Q 834 2394 903 2306 
Q 972 2216 1119 2156 
Q 1203 2125 1616 2013 
Q 2213 1853 2448 1751 
Q 2684 1650 2818 1456 
Q 2953 1263 2953 975 
Q 2953 694 2789 445 
Q 2625 197 2315 61 
Q 2006 -75 1616 -75 
Q 969 -75 630 194 
Q 291 463 197 991 
z
" transform="scale(0.015625)"/>
      </defs>
      <use xlink:href="#ArialMT-4d"/>
      <use xlink:href="#ArialMT-6f" transform="translate(83.300781 0)"/>
      <use xlink:href="#ArialMT-64" transform="translate(138.916016 0)"/>
      <use xlink:href="#ArialMT-65" transform="translate(194.53125 0)"/>
      <use xlink:href="#ArialMT-6c" transform="translate(250.146484 0)"/>
      <use xlink:href="#ArialMT-73" transform="translate(272.363281 0)"/>
     </g>
    </g>
    <g id="line2d_29">
     <path d="M 392.01925 357.181185 
L 408.51925 357.181185 
L 425.01925 357.181185 
" style="fill: none; stroke: #008000; stroke-width: 2; stroke-linecap: round"/>
    </g>
    <g id="text_19">
     <!-- resnet18 -->
     <g style="fill: #262626" transform="translate(438.21925 362.956185) scale(0.165 -0.165)">
      <defs>
       <path id="ArialMT-72" d="M 416 0 
L 416 3319 
L 922 3319 
L 922 2816 
Q 1116 3169 1280 3281 
Q 1444 3394 1641 3394 
Q 1925 3394 2219 3213 
L 2025 2691 
Q 1819 2813 1613 2813 
Q 1428 2813 1281 2702 
Q 1134 2591 1072 2394 
Q 978 2094 978 1738 
L 978 0 
L 416 0 
z
" transform="scale(0.015625)"/>
       <path id="ArialMT-6e" d="M 422 0 
L 422 3319 
L 928 3319 
L 928 2847 
Q 1294 3394 1984 3394 
Q 2284 3394 2536 3286 
Q 2788 3178 2913 3003 
Q 3038 2828 3088 2588 
Q 3119 2431 3119 2041 
L 3119 0 
L 2556 0 
L 2556 2019 
Q 2556 2363 2490 2533 
Q 2425 2703 2258 2804 
Q 2091 2906 1866 2906 
Q 1506 2906 1245 2678 
Q 984 2450 984 1813 
L 984 0 
L 422 0 
z
" transform="scale(0.015625)"/>
       <path id="ArialMT-74" d="M 1650 503 
L 1731 6 
Q 1494 -44 1306 -44 
Q 1000 -44 831 53 
Q 663 150 594 308 
Q 525 466 525 972 
L 525 2881 
L 113 2881 
L 113 3319 
L 525 3319 
L 525 4141 
L 1084 4478 
L 1084 3319 
L 1650 3319 
L 1650 2881 
L 1084 2881 
L 1084 941 
Q 1084 700 1114 631 
Q 1144 563 1211 522 
Q 1278 481 1403 481 
Q 1497 481 1650 503 
z
" transform="scale(0.015625)"/>
      </defs>
      <use xlink:href="#ArialMT-72"/>
      <use xlink:href="#ArialMT-65" transform="translate(33.300781 0)"/>
      <use xlink:href="#ArialMT-73" transform="translate(88.916016 0)"/>
      <use xlink:href="#ArialMT-6e" transform="translate(138.916016 0)"/>
      <use xlink:href="#ArialMT-65" transform="translate(194.53125 0)"/>
      <use xlink:href="#ArialMT-74" transform="translate(250.146484 0)"/>
      <use xlink:href="#ArialMT-31" transform="translate(277.929688 0)"/>
      <use xlink:href="#ArialMT-38" transform="translate(333.544922 0)"/>
     </g>
    </g>
    <g id="line2d_30">
     <path d="M 392.01925 380.520951 
L 408.51925 380.520951 
L 425.01925 380.520951 
" style="fill: none; stroke: #0000ff; stroke-width: 2; stroke-linecap: round"/>
    </g>
    <g id="text_20">
     <!-- resnet50 -->
     <g style="fill: #262626" transform="translate(438.21925 386.295951) scale(0.165 -0.165)">
      <use xlink:href="#ArialMT-72"/>
      <use xlink:href="#ArialMT-65" transform="translate(33.300781 0)"/>
      <use xlink:href="#ArialMT-73" transform="translate(88.916016 0)"/>
      <use xlink:href="#ArialMT-6e" transform="translate(138.916016 0)"/>
      <use xlink:href="#ArialMT-65" transform="translate(194.53125 0)"/>
      <use xlink:href="#ArialMT-74" transform="translate(250.146484 0)"/>
      <use xlink:href="#ArialMT-35" transform="translate(277.929688 0)"/>
      <use xlink:href="#ArialMT-30" transform="translate(333.544922 0)"/>
     </g>
    </g>
    <g id="line2d_31">
     <path d="M 392.01925 403.860716 
L 408.51925 403.860716 
L 425.01925 403.860716 
" style="fill: none; stroke: #ffa500; stroke-width: 2; stroke-linecap: round"/>
    </g>
    <g id="text_21">
     <!-- resnet101 -->
     <g style="fill: #262626" transform="translate(438.21925 409.635716) scale(0.165 -0.165)">
      <use xlink:href="#ArialMT-72"/>
      <use xlink:href="#ArialMT-65" transform="translate(33.300781 0)"/>
      <use xlink:href="#ArialMT-73" transform="translate(88.916016 0)"/>
      <use xlink:href="#ArialMT-6e" transform="translate(138.916016 0)"/>
      <use xlink:href="#ArialMT-65" transform="translate(194.53125 0)"/>
      <use xlink:href="#ArialMT-74" transform="translate(250.146484 0)"/>
      <use xlink:href="#ArialMT-31" transform="translate(277.929688 0)"/>
      <use xlink:href="#ArialMT-30" transform="translate(333.544922 0)"/>
      <use xlink:href="#ArialMT-31" transform="translate(389.160156 0)"/>
     </g>
    </g>
   </g>
  </g>
 </g>
 <defs>
  <clipPath id="p750ceeb36e">
   <path d="M 414.54783 218.137782 
C 414.54783 193.595232 409.713483 169.291326 400.321455 146.616966 
C 390.929428 123.942606 377.162371 103.33875 359.808167 85.984546 
C 342.453963 68.630342 321.850107 54.863285 299.175747 45.471258 
C 276.501387 36.07923 252.197481 31.244883 227.654931 31.244883 
C 203.11238 31.244883 178.808475 36.07923 156.134114 45.471258 
C 133.459754 54.863285 112.855898 68.630342 95.501694 85.984546 
C 78.14749 103.33875 64.380434 123.942606 54.988406 146.616966 
C 45.596379 169.291326 40.762031 193.595232 40.762031 218.137782 
C 40.762031 242.680333 45.596379 266.984238 54.988406 289.658598 
C 64.380434 312.332959 78.14749 332.936815 95.501694 350.291019 
C 112.855898 367.645223 133.459754 381.412279 156.134114 390.804307 
C 178.808475 400.196334 203.11238 405.030682 227.654931 405.030682 
C 252.197481 405.030682 276.501387 400.196334 299.175747 390.804307 
C 321.850107 381.412279 342.453963 367.645223 359.808167 350.291019 
C 377.162371 332.936815 390.929428 312.332959 400.321455 289.658598 
C 409.713483 266.984238 414.54783 242.680333 414.54783 218.137782 
M 227.654931 218.137782 
C 227.654931 218.137782 227.654931 218.137782 227.654931 218.137782 
C 227.654931 218.137782 227.654931 218.137782 227.654931 218.137782 
C 227.654931 218.137782 227.654931 218.137782 227.654931 218.137782 
C 227.654931 218.137782 227.654931 218.137782 227.654931 218.137782 
C 227.654931 218.137782 227.654931 218.137782 227.654931 218.137782 
C 227.654931 218.137782 227.654931 218.137782 227.654931 218.137782 
C 227.654931 218.137782 227.654931 218.137782 227.654931 218.137782 
C 227.654931 218.137782 227.654931 218.137782 227.654931 218.137782 
C 227.654931 218.137782 227.654931 218.137782 227.654931 218.137782 
C 227.654931 218.137782 227.654931 218.137782 227.654931 218.137782 
C 227.654931 218.137782 227.654931 218.137782 227.654931 218.137782 
C 227.654931 218.137782 227.654931 218.137782 227.654931 218.137782 
C 227.654931 218.137782 227.654931 218.137782 227.654931 218.137782 
C 227.654931 218.137782 227.654931 218.137782 227.654931 218.137782 
C 227.654931 218.137782 227.654931 218.137782 227.654931 218.137782 
C 227.654931 218.137782 227.654931 218.137782 227.654931 218.137782 
z
"/>
  </clipPath>
 </defs>
</svg>
