<?xml version="1.0" encoding="utf-8" standalone="no"?>
<!DOCTYPE svg PUBLIC "-//W3C//DTD SVG 1.1//EN"
  "http://www.w3.org/Graphics/SVG/1.1/DTD/svg11.dtd">
<svg xmlns:xlink="http://www.w3.org/1999/xlink" width="525.400422pt" height="436.275564pt" viewBox="0 0 525.400422 436.275564" xmlns="http://www.w3.org/2000/svg" version="1.1">
 <metadata>
  <rdf:RDF xmlns:dc="http://purl.org/dc/elements/1.1/" xmlns:cc="http://creativecommons.org/ns#" xmlns:rdf="http://www.w3.org/1999/02/22-rdf-syntax-ns#">
   <cc:Work>
    <dc:type rdf:resource="http://purl.org/dc/dcmitype/StillImage"/>
    <dc:date>2025-11-27T19:13:31.636753</dc:date>
    <dc:format>image/svg+xml</dc:format>
    <dc:creator>
     <cc:Agent>
      <dc:title>Matplotlib v3.10.7, https://matplotlib.org/</dc:title>
     </cc:Agent>
    </dc:creator>
   </cc:Work>
  </rdf:RDF>
 </metadata>
 <defs>
  <style type="text/css">*{stroke-linejoin: round; stroke-linecap: butt}</style>
 </defs>
 <g id="figure_1">
  <g id="patch_1">
   <path d="M 0 436.275564 
L 525.400422 436.275564 
L 525.400422 -0 
L 0 -0 
z
" style="fill: #ffffff"/>
  </g>
  <g id="axes_1">
   <g id="patch_2">
    <path d="M 414.54783 218.137782 
C 414.54783 193.595232 409.713483 169.291326 400.321455 146.616966 
C 390.929428 123.942606 377.162371 103.33875 359.808167 85.984546 
C 342.453963 68.630342 321.850107 54.863285 299.175747 45.471258 
C 276.501387 36.07923 252.197481 31.244883 227.654931 31.244883 
C 203.11238 31.244883 178.808475 36.07923 156.134114 45.471258 
C 133.459754 54.863285 112.855898 68.630342 95.501694 85.984546 
C 78.14749 103.33875 64.380434 123.942606 54.988406 146.616966 
C 45.596379 169.291326 40.762031 193.595232 40.762031 218.137782 
C 40.762031 242.680333 45.596379 266.984238 54.988406 289.658598 
C 64.380434 312.332959 78.14749 332.936815 95.501694 350.291019 
C 112.855898 367.645223 133.459754 381.412279 156.134114 390.804307 
C 178.808475 400.196334 203.11238 405.030682 227.654931 405.030682 
C 252.197481 405.030682 276.501387 400.196334 299.175747 390.804307 
C 321.850107 381.412279 342.453963 367.645223 359.808167 350.291019 
C 377.162371 332.936815 390.929428 312.332959 400.321455 289.658598 
C 409.713483 266.984238 414.54783 242.680333 414.54783 218.137782 
M 227.654931 218.137782 
C 227.654931 218.137782 227.654931 218.137782 227.654931 218.137782 
C 227.654931 218.137782 227.654931 218.137782 227.654931 218.137782 
C 227.654931 218.137782 227.654931 218.137782 227.654931 218.137782 
C 227.654931 218.137782 227.654931 218.137782 227.654931 218.137782 
C 227.654931 218.137782 227.654931 218.137782 227.654931 218.137782 
C 227.654931 218.137782 227.654931 218.137782 227.654931 218.137782 
C 227.654931 218.137782 227.654931 218.137782 227.654931 218.137782 
C 227.654931 218.137782 227.654931 218.137782 227.654931 218.137782 
C 227.654931 218.137782 227.654931 218.137782 227.654931 218.137782 
C 227.654931 218.137782 227.654931 218.137782 227.654931 218.137782 
C 227.654931 218.137782 227.654931 218.137782 227.654931 218.137782 
C 227.654931 218.137782 227.654931 218.137782 227.654931 218.137782 
C 227.654931 218.137782 227.654931 218.137782 227.654931 218.137782 
C 227.654931 218.137782 227.654931 218.137782 227.654931 218.137782 
C 227.654931 218.137782 227.654931 218.137782 227.654931 218.137782 
C 227.654931 218.137782 227.654931 218.137782 227.654931 218.137782 
z
" style="fill: #ffffff"/>
   </g>
   <g id="matplotlib.axis_1">
    <g id="xtick_1">
     <g id="line2d_1">
      <path d="M 227.654931 218.137782 
L 227.654931 31.244883 
" clip-path="url(#pbaa649a55a)" style="fill: none; stroke: #cccccc; stroke-linecap: round"/>
     </g>
     <g id="text_1">
      <!-- 0° -->
      <g style="fill: #262626" transform="translate(219.768446 19.010391) scale(0.165 -0.165)">
       <defs>
        <path id="ArialMT-30" d="M 266 2259 
Q 266 3072 433 3567 
Q 600 4063 929 4331 
Q 1259 4600 1759 4600 
Q 2128 4600 2406 4451 
Q 2684 4303 2865 4023 
Q 3047 3744 3150 3342 
Q 3253 2941 3253 2259 
Q 3253 1453 3087 958 
Q 2922 463 2592 192 
Q 2263 -78 1759 -78 
Q 1097 -78 719 397 
Q 266 969 266 2259 
z
M 844 2259 
Q 844 1131 1108 757 
Q 1372 384 1759 384 
Q 2147 384 2411 759 
Q 2675 1134 2675 2259 
Q 2675 3391 2411 3762 
Q 2147 4134 1753 4134 
Q 1366 4134 1134 3806 
Q 844 3388 844 2259 
z
" transform="scale(0.015625)"/>
        <path id="ArialMT-b0" d="M 400 3794 
Q 400 4153 654 4406 
Q 909 4659 1266 4659 
Q 1628 4659 1881 4406 
Q 2134 4153 2134 3794 
Q 2134 3434 1879 3179 
Q 1625 2925 1266 2925 
Q 909 2925 654 3178 
Q 400 3431 400 3794 
z
M 741 3794 
Q 741 3575 895 3420 
Q 1050 3266 1269 3266 
Q 1484 3266 1639 3420 
Q 1794 3575 1794 3794 
Q 1794 4013 1639 4167 
Q 1484 4322 1269 4322 
Q 1050 4322 895 4167 
Q 741 4013 741 3794 
z
" transform="scale(0.015625)"/>
       </defs>
       <use xlink:href="#ArialMT-30"/>
       <use xlink:href="#ArialMT-b0" transform="translate(55.615234 0)"/>
      </g>
     </g>
    </g>
    <g id="xtick_2">
     <g id="line2d_2">
      <path d="M 227.654931 218.137782 
L 321.10138 56.283784 
" clip-path="url(#pbaa649a55a)" style="fill: none; stroke: #cccccc; stroke-linecap: round"/>
     </g>
     <g id="text_2">
      <!-- 30° -->
      <g style="fill: #262626" transform="translate(316.877122 46.259872) scale(0.165 -0.165)">
       <defs>
        <path id="ArialMT-33" d="M 269 1209 
L 831 1284 
Q 928 806 1161 595 
Q 1394 384 1728 384 
Q 2125 384 2398 659 
Q 2672 934 2672 1341 
Q 2672 1728 2419 1979 
Q 2166 2231 1775 2231 
Q 1616 2231 1378 2169 
L 1441 2663 
Q 1497 2656 1531 2656 
Q 1891 2656 2178 2843 
Q 2466 3031 2466 3422 
Q 2466 3731 2256 3934 
Q 2047 4138 1716 4138 
Q 1388 4138 1169 3931 
Q 950 3725 888 3313 
L 325 3413 
Q 428 3978 793 4289 
Q 1159 4600 1703 4600 
Q 2078 4600 2393 4439 
Q 2709 4278 2876 4000 
Q 3044 3722 3044 3409 
Q 3044 3113 2884 2869 
Q 2725 2625 2413 2481 
Q 2819 2388 3044 2092 
Q 3269 1797 3269 1353 
Q 3269 753 2831 336 
Q 2394 -81 1725 -81 
Q 1122 -81 723 278 
Q 325 638 269 1209 
z
" transform="scale(0.015625)"/>
       </defs>
       <use xlink:href="#ArialMT-33"/>
       <use xlink:href="#ArialMT-30" transform="translate(55.615234 0)"/>
       <use xlink:href="#ArialMT-b0" transform="translate(111.230469 0)"/>
      </g>
     </g>
    </g>
    <g id="xtick_3">
     <g id="line2d_3">
      <path d="M 227.654931 218.137782 
L 389.508929 124.691332 
" clip-path="url(#pbaa649a55a)" style="fill: none; stroke: #cccccc; stroke-linecap: round"/>
     </g>
     <g id="text_3">
      <!-- 60° -->
      <g style="fill: #262626" transform="translate(391.324091 120.70684) scale(0.165 -0.165)">
       <defs>
        <path id="ArialMT-36" d="M 3184 3459 
L 2625 3416 
Q 2550 3747 2413 3897 
Q 2184 4138 1850 4138 
Q 1581 4138 1378 3988 
Q 1113 3794 959 3422 
Q 806 3050 800 2363 
Q 1003 2672 1297 2822 
Q 1591 2972 1913 2972 
Q 2475 2972 2870 2558 
Q 3266 2144 3266 1488 
Q 3266 1056 3080 686 
Q 2894 316 2569 119 
Q 2244 -78 1831 -78 
Q 1128 -78 684 439 
Q 241 956 241 2144 
Q 241 3472 731 4075 
Q 1159 4600 1884 4600 
Q 2425 4600 2770 4297 
Q 3116 3994 3184 3459 
z
M 888 1484 
Q 888 1194 1011 928 
Q 1134 663 1356 523 
Q 1578 384 1822 384 
Q 2178 384 2434 671 
Q 2691 959 2691 1453 
Q 2691 1928 2437 2201 
Q 2184 2475 1800 2475 
Q 1419 2475 1153 2201 
Q 888 1928 888 1484 
z
" transform="scale(0.015625)"/>
       </defs>
       <use xlink:href="#ArialMT-36"/>
       <use xlink:href="#ArialMT-30" transform="translate(55.615234 0)"/>
       <use xlink:href="#ArialMT-b0" transform="translate(111.230469 0)"/>
      </g>
     </g>
    </g>
    <g id="xtick_4">
     <g id="line2d_4">
      <path d="M 227.654931 218.137782 
L 414.54783 218.137782 
" clip-path="url(#pbaa649a55a)" style="fill: none; stroke: #cccccc; stroke-linecap: round"/>
     </g>
     <g id="text_4">
      <!-- 90° -->
      <g style="fill: #262626" transform="translate(418.573572 222.40329) scale(0.165 -0.165)">
       <defs>
        <path id="ArialMT-39" d="M 350 1059 
L 891 1109 
Q 959 728 1153 556 
Q 1347 384 1650 384 
Q 1909 384 2104 503 
Q 2300 622 2425 820 
Q 2550 1019 2634 1356 
Q 2719 1694 2719 2044 
Q 2719 2081 2716 2156 
Q 2547 1888 2255 1720 
Q 1963 1553 1622 1553 
Q 1053 1553 659 1965 
Q 266 2378 266 3053 
Q 266 3750 677 4175 
Q 1088 4600 1706 4600 
Q 2153 4600 2523 4359 
Q 2894 4119 3086 3673 
Q 3278 3228 3278 2384 
Q 3278 1506 3087 986 
Q 2897 466 2520 194 
Q 2144 -78 1638 -78 
Q 1100 -78 759 220 
Q 419 519 350 1059 
z
M 2653 3081 
Q 2653 3566 2395 3850 
Q 2138 4134 1775 4134 
Q 1400 4134 1122 3828 
Q 844 3522 844 3034 
Q 844 2597 1108 2323 
Q 1372 2050 1759 2050 
Q 2150 2050 2401 2323 
Q 2653 2597 2653 3081 
z
" transform="scale(0.015625)"/>
       </defs>
       <use xlink:href="#ArialMT-39"/>
       <use xlink:href="#ArialMT-30" transform="translate(55.615234 0)"/>
       <use xlink:href="#ArialMT-b0" transform="translate(111.230469 0)"/>
      </g>
     </g>
    </g>
    <g id="xtick_5">
     <g id="line2d_5">
      <path d="M 227.654931 218.137782 
L 389.508929 311.584232 
" clip-path="url(#pbaa649a55a)" style="fill: none; stroke: #cccccc; stroke-linecap: round"/>
     </g>
     <g id="text_5">
      <!-- 120° -->
      <g style="fill: #262626" transform="translate(386.736317 324.09974) scale(0.165 -0.165)">
       <defs>
        <path id="ArialMT-31" d="M 2384 0 
L 1822 0 
L 1822 3584 
Q 1619 3391 1289 3197 
Q 959 3003 697 2906 
L 697 3450 
Q 1169 3672 1522 3987 
Q 1875 4303 2022 4600 
L 2384 4600 
L 2384 0 
z
" transform="scale(0.015625)"/>
        <path id="ArialMT-32" d="M 3222 541 
L 3222 0 
L 194 0 
Q 188 203 259 391 
Q 375 700 629 1000 
Q 884 1300 1366 1694 
Q 2113 2306 2375 2664 
Q 2638 3022 2638 3341 
Q 2638 3675 2398 3904 
Q 2159 4134 1775 4134 
Q 1369 4134 1125 3890 
Q 881 3647 878 3216 
L 300 3275 
Q 359 3922 746 4261 
Q 1134 4600 1788 4600 
Q 2447 4600 2831 4234 
Q 3216 3869 3216 3328 
Q 3216 3053 3103 2787 
Q 2991 2522 2730 2228 
Q 2469 1934 1863 1422 
Q 1356 997 1212 845 
Q 1069 694 975 541 
L 3222 541 
z
" transform="scale(0.015625)"/>
       </defs>
       <use xlink:href="#ArialMT-31"/>
       <use xlink:href="#ArialMT-32" transform="translate(55.615234 0)"/>
       <use xlink:href="#ArialMT-30" transform="translate(111.230469 0)"/>
       <use xlink:href="#ArialMT-b0" transform="translate(166.845703 0)"/>
      </g>
     </g>
    </g>
    <g id="xtick_6">
     <g id="line2d_6">
      <path d="M 227.654931 218.137782 
L 321.10138 379.991781 
" clip-path="url(#pbaa649a55a)" style="fill: none; stroke: #cccccc; stroke-linecap: round"/>
     </g>
     <g id="text_6">
      <!-- 150° -->
      <g style="fill: #262626" transform="translate(312.289349 398.546708) scale(0.165 -0.165)">
       <defs>
        <path id="ArialMT-35" d="M 266 1200 
L 856 1250 
Q 922 819 1161 601 
Q 1400 384 1738 384 
Q 2144 384 2425 690 
Q 2706 997 2706 1503 
Q 2706 1984 2436 2262 
Q 2166 2541 1728 2541 
Q 1456 2541 1237 2417 
Q 1019 2294 894 2097 
L 366 2166 
L 809 4519 
L 3088 4519 
L 3088 3981 
L 1259 3981 
L 1013 2750 
Q 1425 3038 1878 3038 
Q 2478 3038 2890 2622 
Q 3303 2206 3303 1553 
Q 3303 931 2941 478 
Q 2500 -78 1738 -78 
Q 1113 -78 717 272 
Q 322 622 266 1200 
z
" transform="scale(0.015625)"/>
       </defs>
       <use xlink:href="#ArialMT-31"/>
       <use xlink:href="#ArialMT-35" transform="translate(55.615234 0)"/>
       <use xlink:href="#ArialMT-30" transform="translate(111.230469 0)"/>
       <use xlink:href="#ArialMT-b0" transform="translate(166.845703 0)"/>
      </g>
     </g>
    </g>
    <g id="xtick_7">
     <g id="line2d_7">
      <path d="M 227.654931 218.137782 
L 227.654931 405.030682 
" clip-path="url(#pbaa649a55a)" style="fill: none; stroke: #cccccc; stroke-linecap: round"/>
     </g>
     <g id="text_7">
      <!-- 180° -->
      <g style="fill: #262626" transform="translate(210.592899 425.796189) scale(0.165 -0.165)">
       <defs>
        <path id="ArialMT-38" d="M 1131 2484 
Q 781 2613 612 2850 
Q 444 3088 444 3419 
Q 444 3919 803 4259 
Q 1163 4600 1759 4600 
Q 2359 4600 2725 4251 
Q 3091 3903 3091 3403 
Q 3091 3084 2923 2848 
Q 2756 2613 2416 2484 
Q 2838 2347 3058 2040 
Q 3278 1734 3278 1309 
Q 3278 722 2862 322 
Q 2447 -78 1769 -78 
Q 1091 -78 675 323 
Q 259 725 259 1325 
Q 259 1772 486 2073 
Q 713 2375 1131 2484 
z
M 1019 3438 
Q 1019 3113 1228 2906 
Q 1438 2700 1772 2700 
Q 2097 2700 2305 2904 
Q 2513 3109 2513 3406 
Q 2513 3716 2298 3927 
Q 2084 4138 1766 4138 
Q 1444 4138 1231 3931 
Q 1019 3725 1019 3438 
z
M 838 1322 
Q 838 1081 952 856 
Q 1066 631 1291 507 
Q 1516 384 1775 384 
Q 2178 384 2440 643 
Q 2703 903 2703 1303 
Q 2703 1709 2433 1975 
Q 2163 2241 1756 2241 
Q 1359 2241 1098 1978 
Q 838 1716 838 1322 
z
" transform="scale(0.015625)"/>
       </defs>
       <use xlink:href="#ArialMT-31"/>
       <use xlink:href="#ArialMT-38" transform="translate(55.615234 0)"/>
       <use xlink:href="#ArialMT-30" transform="translate(111.230469 0)"/>
       <use xlink:href="#ArialMT-b0" transform="translate(166.845703 0)"/>
      </g>
     </g>
    </g>
    <g id="xtick_8">
     <g id="line2d_8">
      <path d="M 227.654931 218.137782 
L 134.208481 379.991781 
" clip-path="url(#pbaa649a55a)" style="fill: none; stroke: #cccccc; stroke-linecap: round"/>
     </g>
    </g>
    <g id="xtick_9">
     <g id="line2d_9">
      <path d="M 227.654931 218.137782 
L 65.800932 311.584232 
" clip-path="url(#pbaa649a55a)" style="fill: none; stroke: #cccccc; stroke-linecap: round"/>
     </g>
     <g id="text_8">
      <!-- 240° -->
      <g style="fill: #262626" transform="translate(34.449482 324.09974) scale(0.165 -0.165)">
       <defs>
        <path id="ArialMT-34" d="M 2069 0 
L 2069 1097 
L 81 1097 
L 81 1613 
L 2172 4581 
L 2631 4581 
L 2631 1613 
L 3250 1613 
L 3250 1097 
L 2631 1097 
L 2631 0 
L 2069 0 
z
M 2069 1613 
L 2069 3678 
L 634 1613 
L 2069 1613 
z
" transform="scale(0.015625)"/>
       </defs>
       <use xlink:href="#ArialMT-32"/>
       <use xlink:href="#ArialMT-34" transform="translate(55.615234 0)"/>
       <use xlink:href="#ArialMT-30" transform="translate(111.230469 0)"/>
       <use xlink:href="#ArialMT-b0" transform="translate(166.845703 0)"/>
      </g>
     </g>
    </g>
    <g id="xtick_10">
     <g id="line2d_10">
      <path d="M 227.654931 218.137782 
L 40.762031 218.137782 
" clip-path="url(#pbaa649a55a)" style="fill: none; stroke: #cccccc; stroke-linecap: round"/>
     </g>
     <g id="text_9">
      <!-- 270° -->
      <g style="fill: #262626" transform="translate(7.2 222.40329) scale(0.165 -0.165)">
       <defs>
        <path id="ArialMT-37" d="M 303 3981 
L 303 4522 
L 3269 4522 
L 3269 4084 
Q 2831 3619 2401 2847 
Q 1972 2075 1738 1259 
Q 1569 684 1522 0 
L 944 0 
Q 953 541 1156 1306 
Q 1359 2072 1739 2783 
Q 2119 3494 2547 3981 
L 303 3981 
z
" transform="scale(0.015625)"/>
       </defs>
       <use xlink:href="#ArialMT-32"/>
       <use xlink:href="#ArialMT-37" transform="translate(55.615234 0)"/>
       <use xlink:href="#ArialMT-30" transform="translate(111.230469 0)"/>
       <use xlink:href="#ArialMT-b0" transform="translate(166.845703 0)"/>
      </g>
     </g>
    </g>
    <g id="xtick_11">
     <g id="line2d_11">
      <path d="M 227.654931 218.137782 
L 65.800932 124.691332 
" clip-path="url(#pbaa649a55a)" style="fill: none; stroke: #cccccc; stroke-linecap: round"/>
     </g>
     <g id="text_10">
      <!-- 300° -->
      <g style="fill: #262626" transform="translate(34.449482 120.70684) scale(0.165 -0.165)">
       <use xlink:href="#ArialMT-33"/>
       <use xlink:href="#ArialMT-30" transform="translate(55.615234 0)"/>
       <use xlink:href="#ArialMT-30" transform="translate(111.230469 0)"/>
       <use xlink:href="#ArialMT-b0" transform="translate(166.845703 0)"/>
      </g>
     </g>
    </g>
    <g id="xtick_12">
     <g id="line2d_12">
      <path d="M 227.654931 218.137782 
L 134.208481 56.283784 
" clip-path="url(#pbaa649a55a)" style="fill: none; stroke: #cccccc; stroke-linecap: round"/>
     </g>
     <g id="text_11">
      <!-- 330° -->
      <g style="fill: #262626" transform="translate(108.89645 46.259872) scale(0.165 -0.165)">
       <use xlink:href="#ArialMT-33"/>
       <use xlink:href="#ArialMT-33" transform="translate(55.615234 0)"/>
       <use xlink:href="#ArialMT-30" transform="translate(111.230469 0)"/>
       <use xlink:href="#ArialMT-b0" transform="translate(166.845703 0)"/>
      </g>
     </g>
    </g>
    <g id="xtick_13">
     <g id="line2d_13">
      <path d="M 227.654931 218.137782 
L 227.654931 31.244883 
" clip-path="url(#pbaa649a55a)" style="fill: none; stroke: #cccccc; stroke-linecap: round"/>
     </g>
     <g id="text_12">
      <!-- 0° -->
      <g style="fill: #262626" transform="translate(219.768446 19.010391) scale(0.165 -0.165)">
       <use xlink:href="#ArialMT-30"/>
       <use xlink:href="#ArialMT-b0" transform="translate(55.615234 0)"/>
      </g>
     </g>
    </g>
   </g>
   <g id="matplotlib.axis_2">
    <g id="ytick_1">
     <g id="line2d_14">
      <path d="M 227.654931 182.539135 
C 232.329702 182.539135 236.959017 183.459963 241.277943 185.24892 
C 245.596869 187.037878 249.521413 189.660174 252.826976 192.965737 
C 256.132538 196.2713 258.754835 200.195844 260.543792 204.51477 
C 262.33275 208.833695 263.253578 213.463011 263.253578 218.137782 
C 263.253578 222.812554 262.33275 227.441869 260.543792 231.760795 
C 258.754835 236.079721 256.132538 240.004265 252.826976 243.309827 
C 249.521413 246.61539 245.596869 249.237686 241.277943 251.026644 
C 236.959017 252.815602 232.329702 253.73643 227.654931 253.73643 
C 222.980159 253.73643 218.350844 252.815602 214.031918 251.026644 
C 209.712992 249.237686 205.788448 246.61539 202.482886 243.309827 
C 199.177323 240.004265 196.555026 236.079721 194.766069 231.760795 
C 192.977111 227.441869 192.056283 222.812554 192.056283 218.137782 
C 192.056283 213.463011 192.977111 208.833695 194.766069 204.51477 
C 196.555026 200.195844 199.177323 196.2713 202.482886 192.965737 
C 205.788448 189.660174 209.712992 187.037878 214.031918 185.24892 
C 218.350844 183.459963 222.980159 182.539135 227.654931 182.539135 
" clip-path="url(#pbaa649a55a)" style="fill: none; stroke: #cccccc; stroke-linecap: round"/>
     </g>
     <g id="text_13">
      <!-- 0.2 -->
      <g style="fill: #262626" transform="translate(252.826976 189.686362) scale(0.165 -0.165)">
       <defs>
        <path id="ArialMT-2e" d="M 581 0 
L 581 641 
L 1222 641 
L 1222 0 
L 581 0 
z
" transform="scale(0.015625)"/>
       </defs>
       <use xlink:href="#ArialMT-30"/>
       <use xlink:href="#ArialMT-2e" transform="translate(55.615234 0)"/>
       <use xlink:href="#ArialMT-32" transform="translate(83.398438 0)"/>
      </g>
     </g>
    </g>
    <g id="ytick_2">
     <g id="line2d_15">
      <path d="M 227.654931 146.940487 
C 237.004474 146.940487 246.263104 148.782143 254.900956 152.360059 
C 263.538807 155.937974 271.387895 161.182567 277.999021 167.793692 
C 284.610146 174.404817 289.854739 182.253905 293.432654 190.891757 
C 297.010569 199.529608 298.852226 208.788239 298.852226 218.137782 
C 298.852226 227.487325 297.010569 236.745956 293.432654 245.383807 
C 289.854739 254.021659 284.610146 261.870747 277.999021 268.481872 
C 271.387895 275.092998 263.538807 280.337591 254.900956 283.915506 
C 246.263104 287.493421 237.004474 289.335077 227.654931 289.335077 
C 218.305388 289.335077 209.046757 287.493421 200.408905 283.915506 
C 191.771054 280.337591 183.921966 275.092998 177.310841 268.481872 
C 170.699715 261.870747 165.455122 254.021659 161.877207 245.383807 
C 158.299292 236.745956 156.457636 227.487325 156.457636 218.137782 
C 156.457636 208.788239 158.299292 199.529608 161.877207 190.891757 
C 165.455122 182.253905 170.699715 174.404817 177.310841 167.793692 
C 183.921966 161.182567 191.771054 155.937974 200.408905 152.360059 
C 209.046757 148.782143 218.305388 146.940487 227.654931 146.940487 
" clip-path="url(#pbaa649a55a)" style="fill: none; stroke: #cccccc; stroke-linecap: round"/>
     </g>
     <g id="text_14">
      <!-- 0.4 -->
      <g style="fill: #262626" transform="translate(277.999021 164.514317) scale(0.165 -0.165)">
       <use xlink:href="#ArialMT-30"/>
       <use xlink:href="#ArialMT-2e" transform="translate(55.615234 0)"/>
       <use xlink:href="#ArialMT-34" transform="translate(83.398438 0)"/>
      </g>
     </g>
    </g>
    <g id="ytick_3">
     <g id="line2d_16">
      <path d="M 227.654931 111.34184 
C 241.679245 111.34184 255.567191 114.104324 268.523968 119.471197 
C 281.480746 124.83807 293.254378 132.704959 303.171066 142.621647 
C 313.087754 152.538335 320.954643 164.311967 326.321516 177.268744 
C 331.688389 190.225522 334.450873 204.113468 334.450873 218.137782 
C 334.450873 232.162097 331.688389 246.050043 326.321516 259.00682 
C 320.954643 271.963597 313.087754 283.737229 303.171066 293.653917 
C 293.254378 303.570605 281.480746 311.437495 268.523968 316.804368 
C 255.567191 322.17124 241.679245 324.933725 227.654931 324.933725 
C 213.630616 324.933725 199.74267 322.17124 186.785893 316.804368 
C 173.829115 311.437495 162.055483 303.570605 152.138795 293.653917 
C 142.222107 283.737229 134.355218 271.963597 128.988345 259.00682 
C 123.621472 246.050043 120.858988 232.162097 120.858988 218.137782 
C 120.858988 204.113468 123.621472 190.225522 128.988345 177.268744 
C 134.355218 164.311967 142.222107 152.538335 152.138795 142.621647 
C 162.055483 132.704959 173.829115 124.83807 186.785893 119.471197 
C 199.74267 114.104324 213.630616 111.34184 227.654931 111.34184 
" clip-path="url(#pbaa649a55a)" style="fill: none; stroke: #cccccc; stroke-linecap: round"/>
     </g>
     <g id="text_15">
      <!-- 0.6 -->
      <g style="fill: #262626" transform="translate(303.171066 139.342272) scale(0.165 -0.165)">
       <use xlink:href="#ArialMT-30"/>
       <use xlink:href="#ArialMT-2e" transform="translate(55.615234 0)"/>
       <use xlink:href="#ArialMT-36" transform="translate(83.398438 0)"/>
      </g>
     </g>
    </g>
    <g id="ytick_4">
     <g id="line2d_17">
      <path d="M 227.654931 75.743192 
C 246.354017 75.743192 264.871278 79.426504 282.146981 86.582335 
C 299.422684 93.738165 315.12086 104.227351 328.343111 117.449602 
C 341.565361 130.671853 352.054547 146.370029 359.210378 163.645732 
C 366.366208 180.921435 370.049521 199.438696 370.049521 218.137782 
C 370.049521 236.836868 366.366208 255.35413 359.210378 272.629833 
C 352.054547 289.905536 341.565361 305.603712 328.343111 318.825962 
C 315.12086 332.048213 299.422684 342.537399 282.146981 349.693229 
C 264.871278 356.84906 246.354017 360.532372 227.654931 360.532372 
C 208.955844 360.532372 190.438583 356.84906 173.16288 349.693229 
C 155.887177 342.537399 140.189001 332.048213 126.96675 318.825962 
C 113.7445 305.603712 103.255314 289.905536 96.099483 272.629833 
C 88.943653 255.35413 85.260341 236.836868 85.260341 218.137782 
C 85.260341 199.438696 88.943653 180.921435 96.099483 163.645732 
C 103.255314 146.370029 113.7445 130.671853 126.96675 117.449602 
C 140.189001 104.227351 155.887177 93.738165 173.16288 86.582335 
C 190.438583 79.426504 208.955844 75.743192 227.654931 75.743192 
" clip-path="url(#pbaa649a55a)" style="fill: none; stroke: #cccccc; stroke-linecap: round"/>
     </g>
     <g id="text_16">
      <!-- 0.8 -->
      <g style="fill: #262626" transform="translate(328.343111 114.170227) scale(0.165 -0.165)">
       <use xlink:href="#ArialMT-30"/>
       <use xlink:href="#ArialMT-2e" transform="translate(55.615234 0)"/>
       <use xlink:href="#ArialMT-38" transform="translate(83.398438 0)"/>
      </g>
     </g>
    </g>
    <g id="ytick_5">
     <g id="line2d_18">
      <path d="M 227.654931 40.144545 
C 251.028788 40.144545 274.175365 44.748685 295.769994 53.693473 
C 317.364622 62.638261 336.987343 75.749744 353.515156 92.277557 
C 370.042969 108.80537 383.154452 128.42809 392.09924 150.022719 
C 401.044028 171.617348 405.648168 194.763924 405.648168 218.137782 
C 405.648168 241.51164 401.044028 264.658216 392.09924 286.252845 
C 383.154452 307.847474 370.042969 327.470194 353.515156 343.998007 
C 336.987343 360.525821 317.364622 373.637303 295.769994 382.582091 
C 274.175365 391.526879 251.028788 396.13102 227.654931 396.13102 
C 204.281073 396.13102 181.134496 391.526879 159.539868 382.582091 
C 137.945239 373.637303 118.322519 360.525821 101.794705 343.998007 
C 85.266892 327.470194 72.15541 307.847474 63.210622 286.252845 
C 54.265833 264.658216 49.661693 241.51164 49.661693 218.137782 
C 49.661693 194.763924 54.265833 171.617348 63.210622 150.022719 
C 72.15541 128.42809 85.266892 108.80537 101.794705 92.277557 
C 118.322519 75.749744 137.945239 62.638261 159.539868 53.693473 
C 181.134496 44.748685 204.281073 40.144545 227.654931 40.144545 
" clip-path="url(#pbaa649a55a)" style="fill: none; stroke: #cccccc; stroke-linecap: round"/>
     </g>
     <g id="text_17">
      <!-- 1.0 -->
      <g style="fill: #262626" transform="translate(353.515156 88.998182) scale(0.165 -0.165)">
       <use xlink:href="#ArialMT-31"/>
       <use xlink:href="#ArialMT-2e" transform="translate(55.615234 0)"/>
       <use xlink:href="#ArialMT-30" transform="translate(83.398438 0)"/>
      </g>
     </g>
    </g>
   </g>
   <g id="patch_3">
    <path d="M 227.654931 92.48918 
L 242.567769 104.863526 
L 253.646452 121.136105 
L 264.047758 130.277726 
L 275.859561 134.644913 
L 284.189052 144.461081 
L 293.230403 152.56231 
L 294.67613 166.710607 
L 295.759153 178.817791 
L 293.169015 191.00096 
L 294.455202 200.238704 
L 302.212403 208.322105 
L 309.721202 218.137782 
L 298.608354 227.478978 
L 287.529427 234.181105 
L 282.644281 240.915117 
L 282.536339 249.823578 
L 278.858473 257.427642 
L 275.485128 265.96798 
L 266.662881 268.973933 
L 259.009034 272.444683 
L 250.014939 272.119617 
L 243.11486 275.835023 
L 236.655347 286.502729 
L 227.654931 296.256335 
L 218.654515 286.502729 
L 212.195002 275.835023 
L 205.294923 272.119617 
L 196.300827 272.444683 
L 188.64698 268.973933 
L 179.824733 265.96798 
L 176.451389 257.427642 
L 172.773522 249.823578 
L 172.66558 240.915117 
L 167.780434 234.181105 
L 156.701507 227.478978 
L 145.588659 218.137782 
L 153.097458 208.322105 
L 160.85466 200.238704 
L 162.140846 191.00096 
L 159.550708 178.817791 
L 160.633731 166.710607 
L 162.079458 152.56231 
L 171.120809 144.461081 
L 179.4503 134.644913 
L 191.262104 130.277726 
L 201.66341 121.136105 
L 212.742092 104.863526 
z
" clip-path="url(#pbaa649a55a)" style="fill: #008000; opacity: 0.05; stroke: #008000; stroke-linejoin: miter"/>
   </g>
   <g id="patch_4">
    <path d="M 227.654931 61.396569 
L 247.215496 69.560536 
L 263.728294 83.510156 
L 279.876578 92.063574 
L 297.460284 97.231364 
L 313.58836 106.147157 
L 329.527102 116.265611 
L 336.369468 134.718184 
L 340.067912 153.236117 
L 341.366714 171.036819 
L 348.450903 185.770599 
L 364.213896 200.159453 
L 375.78338 218.137782 
L 362.769563 235.925961 
L 345.022891 249.586432 
L 335.480752 262.8007 
L 332.229555 278.51397 
L 327.486588 294.741307 
L 320.245637 310.728489 
L 302.545693 315.737324 
L 285.432862 318.212096 
L 269.358931 318.820145 
L 256.907954 327.311554 
L 244.425071 345.519647 
L 227.654931 359.301121 
L 210.88479 345.519647 
L 198.401907 327.311554 
L 185.95093 318.820145 
L 169.876999 318.212096 
L 152.764168 315.737324 
L 135.064224 310.728489 
L 127.823273 294.741307 
L 123.080306 278.51397 
L 119.829109 262.8007 
L 110.28697 249.586432 
L 92.540298 235.925961 
L 79.526482 218.137782 
L 91.095965 200.159453 
L 106.858959 185.770599 
L 113.943147 171.036819 
L 115.241949 153.236117 
L 118.940394 134.718184 
L 125.782759 116.265611 
L 141.721501 106.147157 
L 157.849577 97.231364 
L 175.433284 92.063574 
L 191.581567 83.510156 
L 208.094365 69.560536 
z
" clip-path="url(#pbaa649a55a)" style="fill: #0000ff; opacity: 0.05; stroke: #0000ff; stroke-linejoin: miter"/>
   </g>
   <g id="patch_5">
    <path d="M 227.654931 60.012052 
L 247.680994 66.024732 
L 265.820849 75.700636 
L 284.004658 82.097507 
L 302.708159 88.141777 
L 319.181592 98.857915 
L 334.613909 111.178804 
L 345.185008 127.953782 
L 353.948 145.222445 
L 357.586749 164.318261 
L 362.394488 182.034427 
L 372.444632 199.075856 
L 380.258572 218.137782 
L 371.663926 237.096926 
L 360.198131 253.652626 
L 354.095389 270.511135 
L 349.707556 288.604898 
L 340.206809 304.501876 
L 329.405742 319.888594 
L 312.21521 328.338883 
L 295.148173 335.039507 
L 276.580326 336.254136 
L 260.519239 340.789049 
L 245.460397 353.383727 
L 227.654931 363.914135 
L 209.849464 353.383727 
L 194.790623 340.789049 
L 178.729535 336.254136 
L 160.161688 335.039507 
L 143.094652 328.338883 
L 125.904119 319.888594 
L 115.103052 304.501876 
L 105.602306 288.604898 
L 101.214472 270.511135 
L 95.11173 253.652626 
L 83.645936 237.096926 
L 75.051289 218.137782 
L 82.86523 199.075856 
L 92.915373 182.034427 
L 97.723112 164.318261 
L 101.361861 145.222445 
L 110.124854 127.953782 
L 120.695952 111.178804 
L 136.12827 98.857915 
L 152.601702 88.141777 
L 171.305203 82.097507 
L 189.489012 75.700636 
L 207.628868 66.024732 
z
" clip-path="url(#pbaa649a55a)" style="fill: #ffa500; opacity: 0.05; stroke: #ffa500; stroke-linejoin: miter"/>
   </g>
   <g id="line2d_19">
    <path d="M 227.654931 92.48918 
L 242.567769 104.863526 
L 253.646452 121.136105 
L 264.047758 130.277726 
L 275.859561 134.644913 
L 284.189052 144.461081 
L 293.230403 152.56231 
L 294.67613 166.710607 
L 295.759153 178.817791 
L 293.169015 191.00096 
L 294.455202 200.238704 
L 302.212403 208.322105 
L 309.721202 218.137782 
L 298.608354 227.478978 
L 287.529427 234.181105 
L 282.644281 240.915117 
L 282.536339 249.823578 
L 278.858473 257.427642 
L 275.485128 265.96798 
L 266.662881 268.973933 
L 259.009034 272.444683 
L 250.014939 272.119617 
L 243.11486 275.835023 
L 236.655347 286.502729 
L 227.654931 296.256335 
L 218.654515 286.502729 
L 212.195002 275.835023 
L 205.294923 272.119617 
L 196.300827 272.444683 
L 188.64698 268.973933 
L 179.824733 265.96798 
L 176.451389 257.427642 
L 172.773522 249.823578 
L 172.66558 240.915117 
L 167.780434 234.181105 
L 156.701507 227.478978 
L 145.588659 218.137782 
L 153.097458 208.322105 
L 160.85466 200.238704 
L 162.140846 191.00096 
L 159.550708 178.817791 
L 160.633731 166.710607 
L 162.079458 152.56231 
L 171.120809 144.461081 
L 179.4503 134.644913 
L 191.262104 130.277726 
L 201.66341 121.136105 
L 212.742092 104.863526 
L 227.654931 92.48918 
" clip-path="url(#pbaa649a55a)" style="fill: none; stroke: #008000; stroke-width: 2; stroke-linecap: round"/>
    <defs>
     <path id="mc61d2d268f" d="M 0 4 
C 1.060812 4 2.078319 3.578535 2.828427 2.828427 
C 3.578535 2.078319 4 1.060812 4 0 
C 4 -1.060812 3.578535 -2.078319 2.828427 -2.828427 
C 2.078319 -3.578535 1.060812 -4 0 -4 
C -1.060812 -4 -2.078319 -3.578535 -2.828427 -2.828427 
C -3.578535 -2.078319 -4 -1.060812 -4 0 
C -4 1.060812 -3.578535 2.078319 -2.828427 2.828427 
C -2.078319 3.578535 -1.060812 4 0 4 
z
" style="stroke: #008000"/>
    </defs>
    <g clip-path="url(#pbaa649a55a)">
     <use xlink:href="#mc61d2d268f" x="227.654931" y="92.48918" style="fill: #008000; stroke: #008000"/>
     <use xlink:href="#mc61d2d268f" x="242.567769" y="104.863526" style="fill: #008000; stroke: #008000"/>
     <use xlink:href="#mc61d2d268f" x="253.646452" y="121.136105" style="fill: #008000; stroke: #008000"/>
     <use xlink:href="#mc61d2d268f" x="264.047758" y="130.277726" style="fill: #008000; stroke: #008000"/>
     <use xlink:href="#mc61d2d268f" x="275.859561" y="134.644913" style="fill: #008000; stroke: #008000"/>
     <use xlink:href="#mc61d2d268f" x="284.189052" y="144.461081" style="fill: #008000; stroke: #008000"/>
     <use xlink:href="#mc61d2d268f" x="293.230403" y="152.56231" style="fill: #008000; stroke: #008000"/>
     <use xlink:href="#mc61d2d268f" x="294.67613" y="166.710607" style="fill: #008000; stroke: #008000"/>
     <use xlink:href="#mc61d2d268f" x="295.759153" y="178.817791" style="fill: #008000; stroke: #008000"/>
     <use xlink:href="#mc61d2d268f" x="293.169015" y="191.00096" style="fill: #008000; stroke: #008000"/>
     <use xlink:href="#mc61d2d268f" x="294.455202" y="200.238704" style="fill: #008000; stroke: #008000"/>
     <use xlink:href="#mc61d2d268f" x="302.212403" y="208.322105" style="fill: #008000; stroke: #008000"/>
     <use xlink:href="#mc61d2d268f" x="309.721202" y="218.137782" style="fill: #008000; stroke: #008000"/>
     <use xlink:href="#mc61d2d268f" x="298.608354" y="227.478978" style="fill: #008000; stroke: #008000"/>
     <use xlink:href="#mc61d2d268f" x="287.529427" y="234.181105" style="fill: #008000; stroke: #008000"/>
     <use xlink:href="#mc61d2d268f" x="282.644281" y="240.915117" style="fill: #008000; stroke: #008000"/>
     <use xlink:href="#mc61d2d268f" x="282.536339" y="249.823578" style="fill: #008000; stroke: #008000"/>
     <use xlink:href="#mc61d2d268f" x="278.858473" y="257.427642" style="fill: #008000; stroke: #008000"/>
     <use xlink:href="#mc61d2d268f" x="275.485128" y="265.96798" style="fill: #008000; stroke: #008000"/>
     <use xlink:href="#mc61d2d268f" x="266.662881" y="268.973933" style="fill: #008000; stroke: #008000"/>
     <use xlink:href="#mc61d2d268f" x="259.009034" y="272.444683" style="fill: #008000; stroke: #008000"/>
     <use xlink:href="#mc61d2d268f" x="250.014939" y="272.119617" style="fill: #008000; stroke: #008000"/>
     <use xlink:href="#mc61d2d268f" x="243.11486" y="275.835023" style="fill: #008000; stroke: #008000"/>
     <use xlink:href="#mc61d2d268f" x="236.655347" y="286.502729" style="fill: #008000; stroke: #008000"/>
     <use xlink:href="#mc61d2d268f" x="227.654931" y="296.256335" style="fill: #008000; stroke: #008000"/>
     <use xlink:href="#mc61d2d268f" x="218.654515" y="286.502729" style="fill: #008000; stroke: #008000"/>
     <use xlink:href="#mc61d2d268f" x="212.195002" y="275.835023" style="fill: #008000; stroke: #008000"/>
     <use xlink:href="#mc61d2d268f" x="205.294923" y="272.119617" style="fill: #008000; stroke: #008000"/>
     <use xlink:href="#mc61d2d268f" x="196.300827" y="272.444683" style="fill: #008000; stroke: #008000"/>
     <use xlink:href="#mc61d2d268f" x="188.64698" y="268.973933" style="fill: #008000; stroke: #008000"/>
     <use xlink:href="#mc61d2d268f" x="179.824733" y="265.96798" style="fill: #008000; stroke: #008000"/>
     <use xlink:href="#mc61d2d268f" x="176.451389" y="257.427642" style="fill: #008000; stroke: #008000"/>
     <use xlink:href="#mc61d2d268f" x="172.773522" y="249.823578" style="fill: #008000; stroke: #008000"/>
     <use xlink:href="#mc61d2d268f" x="172.66558" y="240.915117" style="fill: #008000; stroke: #008000"/>
     <use xlink:href="#mc61d2d268f" x="167.780434" y="234.181105" style="fill: #008000; stroke: #008000"/>
     <use xlink:href="#mc61d2d268f" x="156.701507" y="227.478978" style="fill: #008000; stroke: #008000"/>
     <use xlink:href="#mc61d2d268f" x="145.588659" y="218.137782" style="fill: #008000; stroke: #008000"/>
     <use xlink:href="#mc61d2d268f" x="153.097458" y="208.322105" style="fill: #008000; stroke: #008000"/>
     <use xlink:href="#mc61d2d268f" x="160.85466" y="200.238704" style="fill: #008000; stroke: #008000"/>
     <use xlink:href="#mc61d2d268f" x="162.140846" y="191.00096" style="fill: #008000; stroke: #008000"/>
     <use xlink:href="#mc61d2d268f" x="159.550708" y="178.817791" style="fill: #008000; stroke: #008000"/>
     <use xlink:href="#mc61d2d268f" x="160.633731" y="166.710607" style="fill: #008000; stroke: #008000"/>
     <use xlink:href="#mc61d2d268f" x="162.079458" y="152.56231" style="fill: #008000; stroke: #008000"/>
     <use xlink:href="#mc61d2d268f" x="171.120809" y="144.461081" style="fill: #008000; stroke: #008000"/>
     <use xlink:href="#mc61d2d268f" x="179.4503" y="134.644913" style="fill: #008000; stroke: #008000"/>
     <use xlink:href="#mc61d2d268f" x="191.262104" y="130.277726" style="fill: #008000; stroke: #008000"/>
     <use xlink:href="#mc61d2d268f" x="201.66341" y="121.136105" style="fill: #008000; stroke: #008000"/>
     <use xlink:href="#mc61d2d268f" x="212.742092" y="104.863526" style="fill: #008000; stroke: #008000"/>
     <use xlink:href="#mc61d2d268f" x="227.654931" y="92.48918" style="fill: #008000; stroke: #008000"/>
    </g>
   </g>
   <g id="line2d_20">
    <path d="M 227.654931 92.48918 
L 244.055364 93.564121 
L 260.175182 96.770552 
L 275.738569 102.05361 
L 290.479232 109.322901 
L 304.144953 118.454044 
L 316.501909 129.290804 
L 327.338669 141.64776 
L 336.469812 155.313481 
L 343.739102 170.054144 
L 349.02216 185.617531 
L 352.228592 201.737349 
L 353.303533 218.137782 
L 352.228592 234.538216 
L 349.02216 250.658033 
L 343.739102 266.221421 
L 336.469812 280.962083 
L 327.338669 294.627805 
L 316.501909 306.984761 
L 304.144953 317.82152 
L 290.479232 326.952664 
L 275.738569 334.221954 
L 260.175182 339.505012 
L 244.055364 342.711443 
L 227.654931 343.786384 
L 211.254497 342.711443 
L 195.134679 339.505012 
L 179.571292 334.221954 
L 164.83063 326.952664 
L 151.164908 317.82152 
L 138.807952 306.984761 
L 127.971192 294.627805 
L 118.840049 280.962083 
L 111.570759 266.221421 
L 106.287701 250.658033 
L 103.08127 234.538216 
L 102.006328 218.137782 
L 103.08127 201.737349 
L 106.287701 185.617531 
L 111.570759 170.054144 
L 118.840049 155.313481 
L 127.971192 141.64776 
L 138.807952 129.290804 
L 151.164908 118.454044 
L 164.83063 109.322901 
L 179.571292 102.05361 
L 195.134679 96.770552 
L 211.254497 93.564121 
L 227.654931 92.48918 
" clip-path="url(#pbaa649a55a)" style="fill: none; stroke: #008000; stroke-opacity: 0.3; stroke-width: 1.5; stroke-linecap: round"/>
   </g>
   <g id="line2d_21">
    <path d="M 227.654931 61.396569 
L 247.215496 69.560536 
L 263.728294 83.510156 
L 279.876578 92.063574 
L 297.460284 97.231364 
L 313.58836 106.147157 
L 329.527102 116.265611 
L 336.369468 134.718184 
L 340.067912 153.236117 
L 341.366714 171.036819 
L 348.450903 185.770599 
L 364.213896 200.159453 
L 375.78338 218.137782 
L 362.769563 235.925961 
L 345.022891 249.586432 
L 335.480752 262.8007 
L 332.229555 278.51397 
L 327.486588 294.741307 
L 320.245637 310.728489 
L 302.545693 315.737324 
L 285.432862 318.212096 
L 269.358931 318.820145 
L 256.907954 327.311554 
L 244.425071 345.519647 
L 227.654931 359.301121 
L 210.88479 345.519647 
L 198.401907 327.311554 
L 185.95093 318.820145 
L 169.876999 318.212096 
L 152.764168 315.737324 
L 135.064224 310.728489 
L 127.823273 294.741307 
L 123.080306 278.51397 
L 119.829109 262.8007 
L 110.28697 249.586432 
L 92.540298 235.925961 
L 79.526482 218.137782 
L 91.095965 200.159453 
L 106.858959 185.770599 
L 113.943147 171.036819 
L 115.241949 153.236117 
L 118.940394 134.718184 
L 125.782759 116.265611 
L 141.721501 106.147157 
L 157.849577 97.231364 
L 175.433284 92.063574 
L 191.581567 83.510156 
L 208.094365 69.560536 
L 227.654931 61.396569 
" clip-path="url(#pbaa649a55a)" style="fill: none; stroke: #0000ff; stroke-width: 2; stroke-linecap: round"/>
    <defs>
     <path id="m0f3365e8e2" d="M 0 4 
C 1.060812 4 2.078319 3.578535 2.828427 2.828427 
C 3.578535 2.078319 4 1.060812 4 0 
C 4 -1.060812 3.578535 -2.078319 2.828427 -2.828427 
C 2.078319 -3.578535 1.060812 -4 0 -4 
C -1.060812 -4 -2.078319 -3.578535 -2.828427 -2.828427 
C -3.578535 -2.078319 -4 -1.060812 -4 0 
C -4 1.060812 -3.578535 2.078319 -2.828427 2.828427 
C -2.078319 3.578535 -1.060812 4 0 4 
z
" style="stroke: #0000ff"/>
    </defs>
    <g clip-path="url(#pbaa649a55a)">
     <use xlink:href="#m0f3365e8e2" x="227.654931" y="61.396569" style="fill: #0000ff; stroke: #0000ff"/>
     <use xlink:href="#m0f3365e8e2" x="247.215496" y="69.560536" style="fill: #0000ff; stroke: #0000ff"/>
     <use xlink:href="#m0f3365e8e2" x="263.728294" y="83.510156" style="fill: #0000ff; stroke: #0000ff"/>
     <use xlink:href="#m0f3365e8e2" x="279.876578" y="92.063574" style="fill: #0000ff; stroke: #0000ff"/>
     <use xlink:href="#m0f3365e8e2" x="297.460284" y="97.231364" style="fill: #0000ff; stroke: #0000ff"/>
     <use xlink:href="#m0f3365e8e2" x="313.58836" y="106.147157" style="fill: #0000ff; stroke: #0000ff"/>
     <use xlink:href="#m0f3365e8e2" x="329.527102" y="116.265611" style="fill: #0000ff; stroke: #0000ff"/>
     <use xlink:href="#m0f3365e8e2" x="336.369468" y="134.718184" style="fill: #0000ff; stroke: #0000ff"/>
     <use xlink:href="#m0f3365e8e2" x="340.067912" y="153.236117" style="fill: #0000ff; stroke: #0000ff"/>
     <use xlink:href="#m0f3365e8e2" x="341.366714" y="171.036819" style="fill: #0000ff; stroke: #0000ff"/>
     <use xlink:href="#m0f3365e8e2" x="348.450903" y="185.770599" style="fill: #0000ff; stroke: #0000ff"/>
     <use xlink:href="#m0f3365e8e2" x="364.213896" y="200.159453" style="fill: #0000ff; stroke: #0000ff"/>
     <use xlink:href="#m0f3365e8e2" x="375.78338" y="218.137782" style="fill: #0000ff; stroke: #0000ff"/>
     <use xlink:href="#m0f3365e8e2" x="362.769563" y="235.925961" style="fill: #0000ff; stroke: #0000ff"/>
     <use xlink:href="#m0f3365e8e2" x="345.022891" y="249.586432" style="fill: #0000ff; stroke: #0000ff"/>
     <use xlink:href="#m0f3365e8e2" x="335.480752" y="262.8007" style="fill: #0000ff; stroke: #0000ff"/>
     <use xlink:href="#m0f3365e8e2" x="332.229555" y="278.51397" style="fill: #0000ff; stroke: #0000ff"/>
     <use xlink:href="#m0f3365e8e2" x="327.486588" y="294.741307" style="fill: #0000ff; stroke: #0000ff"/>
     <use xlink:href="#m0f3365e8e2" x="320.245637" y="310.728489" style="fill: #0000ff; stroke: #0000ff"/>
     <use xlink:href="#m0f3365e8e2" x="302.545693" y="315.737324" style="fill: #0000ff; stroke: #0000ff"/>
     <use xlink:href="#m0f3365e8e2" x="285.432862" y="318.212096" style="fill: #0000ff; stroke: #0000ff"/>
     <use xlink:href="#m0f3365e8e2" x="269.358931" y="318.820145" style="fill: #0000ff; stroke: #0000ff"/>
     <use xlink:href="#m0f3365e8e2" x="256.907954" y="327.311554" style="fill: #0000ff; stroke: #0000ff"/>
     <use xlink:href="#m0f3365e8e2" x="244.425071" y="345.519647" style="fill: #0000ff; stroke: #0000ff"/>
     <use xlink:href="#m0f3365e8e2" x="227.654931" y="359.301121" style="fill: #0000ff; stroke: #0000ff"/>
     <use xlink:href="#m0f3365e8e2" x="210.88479" y="345.519647" style="fill: #0000ff; stroke: #0000ff"/>
     <use xlink:href="#m0f3365e8e2" x="198.401907" y="327.311554" style="fill: #0000ff; stroke: #0000ff"/>
     <use xlink:href="#m0f3365e8e2" x="185.95093" y="318.820145" style="fill: #0000ff; stroke: #0000ff"/>
     <use xlink:href="#m0f3365e8e2" x="169.876999" y="318.212096" style="fill: #0000ff; stroke: #0000ff"/>
     <use xlink:href="#m0f3365e8e2" x="152.764168" y="315.737324" style="fill: #0000ff; stroke: #0000ff"/>
     <use xlink:href="#m0f3365e8e2" x="135.064224" y="310.728489" style="fill: #0000ff; stroke: #0000ff"/>
     <use xlink:href="#m0f3365e8e2" x="127.823273" y="294.741307" style="fill: #0000ff; stroke: #0000ff"/>
     <use xlink:href="#m0f3365e8e2" x="123.080306" y="278.51397" style="fill: #0000ff; stroke: #0000ff"/>
     <use xlink:href="#m0f3365e8e2" x="119.829109" y="262.8007" style="fill: #0000ff; stroke: #0000ff"/>
     <use xlink:href="#m0f3365e8e2" x="110.28697" y="249.586432" style="fill: #0000ff; stroke: #0000ff"/>
     <use xlink:href="#m0f3365e8e2" x="92.540298" y="235.925961" style="fill: #0000ff; stroke: #0000ff"/>
     <use xlink:href="#m0f3365e8e2" x="79.526482" y="218.137782" style="fill: #0000ff; stroke: #0000ff"/>
     <use xlink:href="#m0f3365e8e2" x="91.095965" y="200.159453" style="fill: #0000ff; stroke: #0000ff"/>
     <use xlink:href="#m0f3365e8e2" x="106.858959" y="185.770599" style="fill: #0000ff; stroke: #0000ff"/>
     <use xlink:href="#m0f3365e8e2" x="113.943147" y="171.036819" style="fill: #0000ff; stroke: #0000ff"/>
     <use xlink:href="#m0f3365e8e2" x="115.241949" y="153.236117" style="fill: #0000ff; stroke: #0000ff"/>
     <use xlink:href="#m0f3365e8e2" x="118.940394" y="134.718184" style="fill: #0000ff; stroke: #0000ff"/>
     <use xlink:href="#m0f3365e8e2" x="125.782759" y="116.265611" style="fill: #0000ff; stroke: #0000ff"/>
     <use xlink:href="#m0f3365e8e2" x="141.721501" y="106.147157" style="fill: #0000ff; stroke: #0000ff"/>
     <use xlink:href="#m0f3365e8e2" x="157.849577" y="97.231364" style="fill: #0000ff; stroke: #0000ff"/>
     <use xlink:href="#m0f3365e8e2" x="175.433284" y="92.063574" style="fill: #0000ff; stroke: #0000ff"/>
     <use xlink:href="#m0f3365e8e2" x="191.581567" y="83.510156" style="fill: #0000ff; stroke: #0000ff"/>
     <use xlink:href="#m0f3365e8e2" x="208.094365" y="69.560536" style="fill: #0000ff; stroke: #0000ff"/>
     <use xlink:href="#m0f3365e8e2" x="227.654931" y="61.396569" style="fill: #0000ff; stroke: #0000ff"/>
    </g>
   </g>
   <g id="line2d_22">
    <path d="M 227.654931 61.396569 
L 248.113764 62.737512 
L 268.222542 66.737397 
L 287.637196 73.327784 
L 306.025537 82.39591 
L 323.072935 93.786617 
L 338.487705 107.305008 
L 352.006095 122.719777 
L 363.396803 139.767176 
L 372.464929 158.155517 
L 379.055316 177.570171 
L 383.055201 197.678949 
L 384.396143 218.137782 
L 383.055201 238.596616 
L 379.055316 258.705393 
L 372.464929 278.120047 
L 363.396803 296.508389 
L 352.006095 313.555787 
L 338.487705 328.970557 
L 323.072935 342.488947 
L 306.025537 353.879654 
L 287.637196 362.947781 
L 268.222542 369.538168 
L 248.113764 373.538052 
L 227.654931 374.878995 
L 207.196097 373.538052 
L 187.08732 369.538168 
L 167.672665 362.947781 
L 149.284324 353.879654 
L 132.236926 342.488947 
L 116.822156 328.970557 
L 103.303766 313.555787 
L 91.913059 296.508389 
L 82.844932 278.120047 
L 76.254545 258.705393 
L 72.254661 238.596616 
L 70.913718 218.137782 
L 72.254661 197.678949 
L 76.254545 177.570171 
L 82.844932 158.155517 
L 91.913059 139.767176 
L 103.303766 122.719777 
L 116.822156 107.305008 
L 132.236926 93.786617 
L 149.284324 82.39591 
L 167.672665 73.327784 
L 187.08732 66.737397 
L 207.196097 62.737512 
L 227.654931 61.396569 
" clip-path="url(#pbaa649a55a)" style="fill: none; stroke: #0000ff; stroke-opacity: 0.3; stroke-width: 1.5; stroke-linecap: round"/>
   </g>
   <g id="line2d_23">
    <path d="M 227.654931 60.012052 
L 247.680994 66.024732 
L 265.820849 75.700636 
L 284.004658 82.097507 
L 302.708159 88.141777 
L 319.181592 98.857915 
L 334.613909 111.178804 
L 345.185008 127.953782 
L 353.948 145.222445 
L 357.586749 164.318261 
L 362.394488 182.034427 
L 372.444632 199.075856 
L 380.258572 218.137782 
L 371.663926 237.096926 
L 360.198131 253.652626 
L 354.095389 270.511135 
L 349.707556 288.604898 
L 340.206809 304.501876 
L 329.405742 319.888594 
L 312.21521 328.338883 
L 295.148173 335.039507 
L 276.580326 336.254136 
L 260.519239 340.789049 
L 245.460397 353.383727 
L 227.654931 363.914135 
L 209.849464 353.383727 
L 194.790623 340.789049 
L 178.729535 336.254136 
L 160.161688 335.039507 
L 143.094652 328.338883 
L 125.904119 319.888594 
L 115.103052 304.501876 
L 105.602306 288.604898 
L 101.214472 270.511135 
L 95.11173 253.652626 
L 83.645936 237.096926 
L 75.051289 218.137782 
L 82.86523 199.075856 
L 92.915373 182.034427 
L 97.723112 164.318261 
L 101.361861 145.222445 
L 110.124854 127.953782 
L 120.695952 111.178804 
L 136.12827 98.857915 
L 152.601702 88.141777 
L 171.305203 82.097507 
L 189.489012 75.700636 
L 207.628868 66.024732 
L 227.654931 60.012052 
" clip-path="url(#pbaa649a55a)" style="fill: none; stroke: #ffa500; stroke-width: 2; stroke-linecap: round"/>
    <defs>
     <path id="mbfb09ee6c3" d="M 0 4 
C 1.060812 4 2.078319 3.578535 2.828427 2.828427 
C 3.578535 2.078319 4 1.060812 4 0 
C 4 -1.060812 3.578535 -2.078319 2.828427 -2.828427 
C 2.078319 -3.578535 1.060812 -4 0 -4 
C -1.060812 -4 -2.078319 -3.578535 -2.828427 -2.828427 
C -3.578535 -2.078319 -4 -1.060812 -4 0 
C -4 1.060812 -3.578535 2.078319 -2.828427 2.828427 
C -2.078319 3.578535 -1.060812 4 0 4 
z
" style="stroke: #ffa500"/>
    </defs>
    <g clip-path="url(#pbaa649a55a)">
     <use xlink:href="#mbfb09ee6c3" x="227.654931" y="60.012052" style="fill: #ffa500; stroke: #ffa500"/>
     <use xlink:href="#mbfb09ee6c3" x="247.680994" y="66.024732" style="fill: #ffa500; stroke: #ffa500"/>
     <use xlink:href="#mbfb09ee6c3" x="265.820849" y="75.700636" style="fill: #ffa500; stroke: #ffa500"/>
     <use xlink:href="#mbfb09ee6c3" x="284.004658" y="82.097507" style="fill: #ffa500; stroke: #ffa500"/>
     <use xlink:href="#mbfb09ee6c3" x="302.708159" y="88.141777" style="fill: #ffa500; stroke: #ffa500"/>
     <use xlink:href="#mbfb09ee6c3" x="319.181592" y="98.857915" style="fill: #ffa500; stroke: #ffa500"/>
     <use xlink:href="#mbfb09ee6c3" x="334.613909" y="111.178804" style="fill: #ffa500; stroke: #ffa500"/>
     <use xlink:href="#mbfb09ee6c3" x="345.185008" y="127.953782" style="fill: #ffa500; stroke: #ffa500"/>
     <use xlink:href="#mbfb09ee6c3" x="353.948" y="145.222445" style="fill: #ffa500; stroke: #ffa500"/>
     <use xlink:href="#mbfb09ee6c3" x="357.586749" y="164.318261" style="fill: #ffa500; stroke: #ffa500"/>
     <use xlink:href="#mbfb09ee6c3" x="362.394488" y="182.034427" style="fill: #ffa500; stroke: #ffa500"/>
     <use xlink:href="#mbfb09ee6c3" x="372.444632" y="199.075856" style="fill: #ffa500; stroke: #ffa500"/>
     <use xlink:href="#mbfb09ee6c3" x="380.258572" y="218.137782" style="fill: #ffa500; stroke: #ffa500"/>
     <use xlink:href="#mbfb09ee6c3" x="371.663926" y="237.096926" style="fill: #ffa500; stroke: #ffa500"/>
     <use xlink:href="#mbfb09ee6c3" x="360.198131" y="253.652626" style="fill: #ffa500; stroke: #ffa500"/>
     <use xlink:href="#mbfb09ee6c3" x="354.095389" y="270.511135" style="fill: #ffa500; stroke: #ffa500"/>
     <use xlink:href="#mbfb09ee6c3" x="349.707556" y="288.604898" style="fill: #ffa500; stroke: #ffa500"/>
     <use xlink:href="#mbfb09ee6c3" x="340.206809" y="304.501876" style="fill: #ffa500; stroke: #ffa500"/>
     <use xlink:href="#mbfb09ee6c3" x="329.405742" y="319.888594" style="fill: #ffa500; stroke: #ffa500"/>
     <use xlink:href="#mbfb09ee6c3" x="312.21521" y="328.338883" style="fill: #ffa500; stroke: #ffa500"/>
     <use xlink:href="#mbfb09ee6c3" x="295.148173" y="335.039507" style="fill: #ffa500; stroke: #ffa500"/>
     <use xlink:href="#mbfb09ee6c3" x="276.580326" y="336.254136" style="fill: #ffa500; stroke: #ffa500"/>
     <use xlink:href="#mbfb09ee6c3" x="260.519239" y="340.789049" style="fill: #ffa500; stroke: #ffa500"/>
     <use xlink:href="#mbfb09ee6c3" x="245.460397" y="353.383727" style="fill: #ffa500; stroke: #ffa500"/>
     <use xlink:href="#mbfb09ee6c3" x="227.654931" y="363.914135" style="fill: #ffa500; stroke: #ffa500"/>
     <use xlink:href="#mbfb09ee6c3" x="209.849464" y="353.383727" style="fill: #ffa500; stroke: #ffa500"/>
     <use xlink:href="#mbfb09ee6c3" x="194.790623" y="340.789049" style="fill: #ffa500; stroke: #ffa500"/>
     <use xlink:href="#mbfb09ee6c3" x="178.729535" y="336.254136" style="fill: #ffa500; stroke: #ffa500"/>
     <use xlink:href="#mbfb09ee6c3" x="160.161688" y="335.039507" style="fill: #ffa500; stroke: #ffa500"/>
     <use xlink:href="#mbfb09ee6c3" x="143.094652" y="328.338883" style="fill: #ffa500; stroke: #ffa500"/>
     <use xlink:href="#mbfb09ee6c3" x="125.904119" y="319.888594" style="fill: #ffa500; stroke: #ffa500"/>
     <use xlink:href="#mbfb09ee6c3" x="115.103052" y="304.501876" style="fill: #ffa500; stroke: #ffa500"/>
     <use xlink:href="#mbfb09ee6c3" x="105.602306" y="288.604898" style="fill: #ffa500; stroke: #ffa500"/>
     <use xlink:href="#mbfb09ee6c3" x="101.214472" y="270.511135" style="fill: #ffa500; stroke: #ffa500"/>
     <use xlink:href="#mbfb09ee6c3" x="95.11173" y="253.652626" style="fill: #ffa500; stroke: #ffa500"/>
     <use xlink:href="#mbfb09ee6c3" x="83.645936" y="237.096926" style="fill: #ffa500; stroke: #ffa500"/>
     <use xlink:href="#mbfb09ee6c3" x="75.051289" y="218.137782" style="fill: #ffa500; stroke: #ffa500"/>
     <use xlink:href="#mbfb09ee6c3" x="82.86523" y="199.075856" style="fill: #ffa500; stroke: #ffa500"/>
     <use xlink:href="#mbfb09ee6c3" x="92.915373" y="182.034427" style="fill: #ffa500; stroke: #ffa500"/>
     <use xlink:href="#mbfb09ee6c3" x="97.723112" y="164.318261" style="fill: #ffa500; stroke: #ffa500"/>
     <use xlink:href="#mbfb09ee6c3" x="101.361861" y="145.222445" style="fill: #ffa500; stroke: #ffa500"/>
     <use xlink:href="#mbfb09ee6c3" x="110.124854" y="127.953782" style="fill: #ffa500; stroke: #ffa500"/>
     <use xlink:href="#mbfb09ee6c3" x="120.695952" y="111.178804" style="fill: #ffa500; stroke: #ffa500"/>
     <use xlink:href="#mbfb09ee6c3" x="136.12827" y="98.857915" style="fill: #ffa500; stroke: #ffa500"/>
     <use xlink:href="#mbfb09ee6c3" x="152.601702" y="88.141777" style="fill: #ffa500; stroke: #ffa500"/>
     <use xlink:href="#mbfb09ee6c3" x="171.305203" y="82.097507" style="fill: #ffa500; stroke: #ffa500"/>
     <use xlink:href="#mbfb09ee6c3" x="189.489012" y="75.700636" style="fill: #ffa500; stroke: #ffa500"/>
     <use xlink:href="#mbfb09ee6c3" x="207.628868" y="66.024732" style="fill: #ffa500; stroke: #ffa500"/>
     <use xlink:href="#mbfb09ee6c3" x="227.654931" y="60.012052" style="fill: #ffa500; stroke: #ffa500"/>
    </g>
   </g>
   <g id="line2d_24">
    <path d="M 227.654931 60.012052 
L 248.29448 61.36484 
L 268.580881 65.400056 
L 288.167028 72.048657 
L 306.717796 81.196883 
L 323.915776 92.688206 
L 339.466707 106.326006 
L 353.104507 121.876937 
L 364.59583 139.074917 
L 373.744056 157.625685 
L 380.392657 177.211832 
L 384.427873 197.498233 
L 385.780661 218.137782 
L 384.427873 238.777332 
L 380.392657 259.063733 
L 373.744056 278.649879 
L 364.59583 297.200647 
L 353.104507 314.398628 
L 339.466707 329.949558 
L 323.915776 343.587358 
L 306.717796 355.078681 
L 288.167028 364.226908 
L 268.580881 370.875509 
L 248.29448 374.910725 
L 227.654931 376.263512 
L 207.015381 374.910725 
L 186.72898 370.875509 
L 167.142833 364.226908 
L 148.592066 355.078681 
L 131.394085 343.587358 
L 115.843155 329.949558 
L 102.205354 314.398628 
L 90.714031 297.200647 
L 81.565805 278.649879 
L 74.917204 259.063733 
L 70.881988 238.777332 
L 69.529201 218.137782 
L 70.881988 197.498233 
L 74.917204 177.211832 
L 81.565805 157.625685 
L 90.714031 139.074917 
L 102.205354 121.876937 
L 115.843155 106.326006 
L 131.394085 92.688206 
L 148.592066 81.196883 
L 167.142833 72.048657 
L 186.72898 65.400056 
L 207.015381 61.36484 
L 227.654931 60.012052 
" clip-path="url(#pbaa649a55a)" style="fill: none; stroke: #ffa500; stroke-opacity: 0.3; stroke-width: 1.5; stroke-linecap: round"/>
   </g>
   <g id="line2d_25"/>
   <g id="line2d_26"/>
   <g id="line2d_27"/>
   <g id="line2d_28"/>
   <g id="patch_6">
    <path d="M 227.654931 31.244883 
C 203.11238 31.244883 178.808475 36.07923 156.134114 45.471258 
C 133.459754 54.863285 112.855898 68.630342 95.501694 85.984546 
C 78.14749 103.33875 64.380434 123.942606 54.988406 146.616966 
C 45.596379 169.291326 40.762031 193.595232 40.762031 218.137782 
C 40.762031 242.680333 45.596379 266.984238 54.988406 289.658598 
C 64.380434 312.332959 78.14749 332.936815 95.501694 350.291019 
C 112.855898 367.645223 133.459754 381.412279 156.134114 390.804307 
C 178.808475 400.196334 203.11238 405.030682 227.654931 405.030682 
C 252.197481 405.030682 276.501387 400.196334 299.175747 390.804307 
C 321.850107 381.412279 342.453963 367.645223 359.808167 350.291019 
C 377.162371 332.936815 390.929428 312.332959 400.321455 289.658598 
C 409.713483 266.984238 414.54783 242.680333 414.54783 218.137782 
C 414.54783 193.595232 409.713483 169.291326 400.321455 146.616966 
C 390.929428 123.942606 377.162371 103.33875 359.808167 85.984546 
C 342.453963 68.630342 321.850107 54.863285 299.175747 45.471258 
C 276.501387 36.07923 252.197481 31.244883 227.654931 31.244883 
" style="fill: none; stroke: #cccccc; stroke-width: 1.25; stroke-linejoin: miter; stroke-linecap: square"/>
   </g>
   <g id="legend_1">
    <g id="text_18">
     <!-- Models -->
     <g style="fill: #262626" transform="translate(422.798899 339.318294) scale(0.18 -0.18)">
      <defs>
       <path id="ArialMT-4d" d="M 475 0 
L 475 4581 
L 1388 4581 
L 2472 1338 
Q 2622 884 2691 659 
Q 2769 909 2934 1394 
L 4031 4581 
L 4847 4581 
L 4847 0 
L 4263 0 
L 4263 3834 
L 2931 0 
L 2384 0 
L 1059 3900 
L 1059 0 
L 475 0 
z
" transform="scale(0.015625)"/>
       <path id="ArialMT-6f" d="M 213 1659 
Q 213 2581 725 3025 
Q 1153 3394 1769 3394 
Q 2453 3394 2887 2945 
Q 3322 2497 3322 1706 
Q 3322 1066 3130 698 
Q 2938 331 2570 128 
Q 2203 -75 1769 -75 
Q 1072 -75 642 372 
Q 213 819 213 1659 
z
M 791 1659 
Q 791 1022 1069 705 
Q 1347 388 1769 388 
Q 2188 388 2466 706 
Q 2744 1025 2744 1678 
Q 2744 2294 2464 2611 
Q 2184 2928 1769 2928 
Q 1347 2928 1069 2612 
Q 791 2297 791 1659 
z
" transform="scale(0.015625)"/>
       <path id="ArialMT-64" d="M 2575 0 
L 2575 419 
Q 2259 -75 1647 -75 
Q 1250 -75 917 144 
Q 584 363 401 755 
Q 219 1147 219 1656 
Q 219 2153 384 2558 
Q 550 2963 881 3178 
Q 1213 3394 1622 3394 
Q 1922 3394 2156 3267 
Q 2391 3141 2538 2938 
L 2538 4581 
L 3097 4581 
L 3097 0 
L 2575 0 
z
M 797 1656 
Q 797 1019 1065 703 
Q 1334 388 1700 388 
Q 2069 388 2326 689 
Q 2584 991 2584 1609 
Q 2584 2291 2321 2609 
Q 2059 2928 1675 2928 
Q 1300 2928 1048 2622 
Q 797 2316 797 1656 
z
" transform="scale(0.015625)"/>
       <path id="ArialMT-65" d="M 2694 1069 
L 3275 997 
Q 3138 488 2766 206 
Q 2394 -75 1816 -75 
Q 1088 -75 661 373 
Q 234 822 234 1631 
Q 234 2469 665 2931 
Q 1097 3394 1784 3394 
Q 2450 3394 2872 2941 
Q 3294 2488 3294 1666 
Q 3294 1616 3291 1516 
L 816 1516 
Q 847 969 1125 678 
Q 1403 388 1819 388 
Q 2128 388 2347 550 
Q 2566 713 2694 1069 
z
M 847 1978 
L 2700 1978 
Q 2663 2397 2488 2606 
Q 2219 2931 1791 2931 
Q 1403 2931 1139 2672 
Q 875 2413 847 1978 
z
" transform="scale(0.015625)"/>
       <path id="ArialMT-6c" d="M 409 0 
L 409 4581 
L 972 4581 
L 972 0 
L 409 0 
z
" transform="scale(0.015625)"/>
       <path id="ArialMT-73" d="M 197 991 
L 753 1078 
Q 800 744 1014 566 
Q 1228 388 1613 388 
Q 2000 388 2187 545 
Q 2375 703 2375 916 
Q 2375 1106 2209 1216 
Q 2094 1291 1634 1406 
Q 1016 1563 777 1677 
Q 538 1791 414 1992 
Q 291 2194 291 2438 
Q 291 2659 392 2848 
Q 494 3038 669 3163 
Q 800 3259 1026 3326 
Q 1253 3394 1513 3394 
Q 1903 3394 2198 3281 
Q 2494 3169 2634 2976 
Q 2775 2784 2828 2463 
L 2278 2388 
Q 2241 2644 2061 2787 
Q 1881 2931 1553 2931 
Q 1166 2931 1000 2803 
Q 834 2675 834 2503 
Q 834 2394 903 2306 
Q 972 2216 1119 2156 
Q 1203 2125 1616 2013 
Q 2213 1853 2448 1751 
Q 2684 1650 2818 1456 
Q 2953 1263 2953 975 
Q 2953 694 2789 445 
Q 2625 197 2315 61 
Q 2006 -75 1616 -75 
Q 969 -75 630 194 
Q 291 463 197 991 
z
" transform="scale(0.015625)"/>
      </defs>
      <use xlink:href="#ArialMT-4d"/>
      <use xlink:href="#ArialMT-6f" transform="translate(83.300781 0)"/>
      <use xlink:href="#ArialMT-64" transform="translate(138.916016 0)"/>
      <use xlink:href="#ArialMT-65" transform="translate(194.53125 0)"/>
      <use xlink:href="#ArialMT-6c" transform="translate(250.146484 0)"/>
      <use xlink:href="#ArialMT-73" transform="translate(272.363281 0)"/>
     </g>
    </g>
    <g id="line2d_29">
     <path d="M 392.01925 357.181185 
L 408.51925 357.181185 
L 425.01925 357.181185 
" style="fill: none; stroke: #008000; stroke-width: 2; stroke-linecap: round"/>
    </g>
    <g id="text_19">
     <!-- resnet18 -->
     <g style="fill: #262626" transform="translate(438.21925 362.956185) scale(0.165 -0.165)">
      <defs>
       <path id="ArialMT-72" d="M 416 0 
L 416 3319 
L 922 3319 
L 922 2816 
Q 1116 3169 1280 3281 
Q 1444 3394 1641 3394 
Q 1925 3394 2219 3213 
L 2025 2691 
Q 1819 2813 1613 2813 
Q 1428 2813 1281 2702 
Q 1134 2591 1072 2394 
Q 978 2094 978 1738 
L 978 0 
L 416 0 
z
" transform="scale(0.015625)"/>
       <path id="ArialMT-6e" d="M 422 0 
L 422 3319 
L 928 3319 
L 928 2847 
Q 1294 3394 1984 3394 
Q 2284 3394 2536 3286 
Q 2788 3178 2913 3003 
Q 3038 2828 3088 2588 
Q 3119 2431 3119 2041 
L 3119 0 
L 2556 0 
L 2556 2019 
Q 2556 2363 2490 2533 
Q 2425 2703 2258 2804 
Q 2091 2906 1866 2906 
Q 1506 2906 1245 2678 
Q 984 2450 984 1813 
L 984 0 
L 422 0 
z
" transform="scale(0.015625)"/>
       <path id="ArialMT-74" d="M 1650 503 
L 1731 6 
Q 1494 -44 1306 -44 
Q 1000 -44 831 53 
Q 663 150 594 308 
Q 525 466 525 972 
L 525 2881 
L 113 2881 
L 113 3319 
L 525 3319 
L 525 4141 
L 1084 4478 
L 1084 3319 
L 1650 3319 
L 1650 2881 
L 1084 2881 
L 1084 941 
Q 1084 700 1114 631 
Q 1144 563 1211 522 
Q 1278 481 1403 481 
Q 1497 481 1650 503 
z
" transform="scale(0.015625)"/>
      </defs>
      <use xlink:href="#ArialMT-72"/>
      <use xlink:href="#ArialMT-65" transform="translate(33.300781 0)"/>
      <use xlink:href="#ArialMT-73" transform="translate(88.916016 0)"/>
      <use xlink:href="#ArialMT-6e" transform="translate(138.916016 0)"/>
      <use xlink:href="#ArialMT-65" transform="translate(194.53125 0)"/>
      <use xlink:href="#ArialMT-74" transform="translate(250.146484 0)"/>
      <use xlink:href="#ArialMT-31" transform="translate(277.929688 0)"/>
      <use xlink:href="#ArialMT-38" transform="translate(333.544922 0)"/>
     </g>
    </g>
    <g id="line2d_30">
     <path d="M 392.01925 380.520951 
L 408.51925 380.520951 
L 425.01925 380.520951 
" style="fill: none; stroke: #0000ff; stroke-width: 2; stroke-linecap: round"/>
    </g>
    <g id="text_20">
     <!-- resnet50 -->
     <g style="fill: #262626" transform="translate(438.21925 386.295951) scale(0.165 -0.165)">
      <use xlink:href="#ArialMT-72"/>
      <use xlink:href="#ArialMT-65" transform="translate(33.300781 0)"/>
      <use xlink:href="#ArialMT-73" transform="translate(88.916016 0)"/>
      <use xlink:href="#ArialMT-6e" transform="translate(138.916016 0)"/>
      <use xlink:href="#ArialMT-65" transform="translate(194.53125 0)"/>
      <use xlink:href="#ArialMT-74" transform="translate(250.146484 0)"/>
      <use xlink:href="#ArialMT-35" transform="translate(277.929688 0)"/>
      <use xlink:href="#ArialMT-30" transform="translate(333.544922 0)"/>
     </g>
    </g>
    <g id="line2d_31">
     <path d="M 392.01925 403.860716 
L 408.51925 403.860716 
L 425.01925 403.860716 
" style="fill: none; stroke: #ffa500; stroke-width: 2; stroke-linecap: round"/>
    </g>
    <g id="text_21">
     <!-- resnet101 -->
     <g style="fill: #262626" transform="translate(438.21925 409.635716) scale(0.165 -0.165)">
      <use xlink:href="#ArialMT-72"/>
      <use xlink:href="#ArialMT-65" transform="translate(33.300781 0)"/>
      <use xlink:href="#ArialMT-73" transform="translate(88.916016 0)"/>
      <use xlink:href="#ArialMT-6e" transform="translate(138.916016 0)"/>
      <use xlink:href="#ArialMT-65" transform="translate(194.53125 0)"/>
      <use xlink:href="#ArialMT-74" transform="translate(250.146484 0)"/>
      <use xlink:href="#ArialMT-31" transform="translate(277.929688 0)"/>
      <use xlink:href="#ArialMT-30" transform="translate(333.544922 0)"/>
      <use xlink:href="#ArialMT-31" transform="translate(389.160156 0)"/>
     </g>
    </g>
   </g>
  </g>
 </g>
 <defs>
  <clipPath id="pbaa649a55a">
   <path d="M 414.54783 218.137782 
C 414.54783 193.595232 409.713483 169.291326 400.321455 146.616966 
C 390.929428 123.942606 377.162371 103.33875 359.808167 85.984546 
C 342.453963 68.630342 321.850107 54.863285 299.175747 45.471258 
C 276.501387 36.07923 252.197481 31.244883 227.654931 31.244883 
C 203.11238 31.244883 178.808475 36.07923 156.134114 45.471258 
C 133.459754 54.863285 112.855898 68.630342 95.501694 85.984546 
C 78.14749 103.33875 64.380434 123.942606 54.988406 146.616966 
C 45.596379 169.291326 40.762031 193.595232 40.762031 218.137782 
C 40.762031 242.680333 45.596379 266.984238 54.988406 289.658598 
C 64.380434 312.332959 78.14749 332.936815 95.501694 350.291019 
C 112.855898 367.645223 133.459754 381.412279 156.134114 390.804307 
C 178.808475 400.196334 203.11238 405.030682 227.654931 405.030682 
C 252.197481 405.030682 276.501387 400.196334 299.175747 390.804307 
C 321.850107 381.412279 342.453963 367.645223 359.808167 350.291019 
C 377.162371 332.936815 390.929428 312.332959 400.321455 289.658598 
C 409.713483 266.984238 414.54783 242.680333 414.54783 218.137782 
M 227.654931 218.137782 
C 227.654931 218.137782 227.654931 218.137782 227.654931 218.137782 
C 227.654931 218.137782 227.654931 218.137782 227.654931 218.137782 
C 227.654931 218.137782 227.654931 218.137782 227.654931 218.137782 
C 227.654931 218.137782 227.654931 218.137782 227.654931 218.137782 
C 227.654931 218.137782 227.654931 218.137782 227.654931 218.137782 
C 227.654931 218.137782 227.654931 218.137782 227.654931 218.137782 
C 227.654931 218.137782 227.654931 218.137782 227.654931 218.137782 
C 227.654931 218.137782 227.654931 218.137782 227.654931 218.137782 
C 227.654931 218.137782 227.654931 218.137782 227.654931 218.137782 
C 227.654931 218.137782 227.654931 218.137782 227.654931 218.137782 
C 227.654931 218.137782 227.654931 218.137782 227.654931 218.137782 
C 227.654931 218.137782 227.654931 218.137782 227.654931 218.137782 
C 227.654931 218.137782 227.654931 218.137782 227.654931 218.137782 
C 227.654931 218.137782 227.654931 218.137782 227.654931 218.137782 
C 227.654931 218.137782 227.654931 218.137782 227.654931 218.137782 
C 227.654931 218.137782 227.654931 218.137782 227.654931 218.137782 
z
"/>
  </clipPath>
 </defs>
</svg>
